<?xml version="1.0" encoding="UTF-8" standalone="no"?>
<!DOCTYPE svg PUBLIC "-//W3C//DTD SVG 1.1//EN" "http://www.w3.org/Graphics/SVG/1.1/DTD/svg11.dtd">
<svg width="100%" height="100%" viewBox="0 0 15282 9872" version="1.1" xmlns="http://www.w3.org/2000/svg" xmlns:xlink="http://www.w3.org/1999/xlink" xml:space="preserve" xmlns:serif="http://www.serif.com/" style="fill-rule:evenodd;clip-rule:evenodd;stroke-linejoin:round;stroke-miterlimit:2;">
    <g transform="matrix(1,0,0,1,-16493.4,-15508.9)">
        <g id="Neofetch" transform="matrix(1,0,0,1,16470.7,2300.11)">
            <rect x="22.688" y="13208.8" width="15281.9" height="9871.82" style="fill:rgb(26,26,26);"/>
            <g transform="matrix(1.1408,0,0,1.58201,-95.1691,6089.89)">
                <rect x="1902.62" y="6393.45" width="168.649" height="31.924" style="fill:rgb(30,187,79);fill-rule:nonzero;"/>
                <rect x="2113.43" y="6393.45" width="168.649" height="31.924" style="fill:rgb(30,187,79);fill-rule:nonzero;"/>
                <rect x="2956.68" y="6393.45" width="168.649" height="31.924" style="fill:rgb(30,187,79);fill-rule:nonzero;"/>
                <rect x="3167.49" y="6393.45" width="168.649" height="31.924" style="fill:rgb(30,187,79);fill-rule:nonzero;"/>
                <rect x="4010.73" y="6393.45" width="168.649" height="31.924" style="fill:rgb(30,187,79);fill-rule:nonzero;"/>
                <rect x="4221.54" y="6393.45" width="168.649" height="31.924" style="fill:rgb(30,187,79);fill-rule:nonzero;"/>
                <rect x="1749.43" y="6507.97" width="53.406" height="253.363" style="fill:rgb(30,187,79);fill-rule:nonzero;"/>
                <rect x="2381.86" y="6507.97" width="53.406" height="253.363" style="fill:rgb(30,187,79);fill-rule:nonzero;"/>
                <rect x="2535.05" y="6710.15" width="168.649" height="31.924" style="fill:rgb(30,187,79);fill-rule:nonzero;"/>
                <rect x="2803.49" y="6507.97" width="53.406" height="253.363" style="fill:rgb(30,187,79);fill-rule:nonzero;"/>
                <rect x="3435.92" y="6507.97" width="53.406" height="253.363" style="fill:rgb(30,187,79);fill-rule:nonzero;"/>
                <rect x="3589.11" y="6710.15" width="168.649" height="31.924" style="fill:rgb(30,187,79);fill-rule:nonzero;"/>
                <rect x="3857.54" y="6507.97" width="53.406" height="253.363" style="fill:rgb(30,187,79);fill-rule:nonzero;"/>
                <rect x="4489.98" y="6507.97" width="53.406" height="253.363" style="fill:rgb(30,187,79);fill-rule:nonzero;"/>
                <rect x="1749.43" y="6824.67" width="53.406" height="253.363" style="fill:rgb(30,187,79);fill-rule:nonzero;"/>
                <rect x="4489.98" y="6824.67" width="53.406" height="253.363" style="fill:rgb(30,187,79);fill-rule:nonzero;"/>
                <path d="M1757.86,7259.44L1744.51,7198.13L1742.4,7158.1L1809.86,7158.1L1807.75,7198.13L1794.4,7259.44L1757.86,7259.44Z" style="fill:rgb(30,187,79);fill-rule:nonzero;"/>
                <rect x="1904.02" y="7232.59" width="165.838" height="30.404" style="fill:rgb(30,187,79);fill-rule:nonzero;"/>
                <rect x="2114.83" y="7232.59" width="165.838" height="30.404" style="fill:rgb(30,187,79);fill-rule:nonzero;"/>
                <rect x="2325.65" y="7232.59" width="165.838" height="30.404" style="fill:rgb(30,187,79);fill-rule:nonzero;"/>
                <rect x="2536.46" y="7232.59" width="165.838" height="30.404" style="fill:rgb(30,187,79);fill-rule:nonzero;"/>
                <rect x="2747.27" y="7232.59" width="165.838" height="30.404" style="fill:rgb(30,187,79);fill-rule:nonzero;"/>
                <path d="M3012.19,7386.63L2997.78,7361.8C3013.71,7358.09 3025.48,7353.27 3033.09,7347.36C3040.71,7341.45 3044.28,7335.12 3043.81,7328.36L3041,7328.36C3033.74,7328.36 3026.89,7327.22 3020.45,7324.94C3014,7322.66 3008.79,7319.41 3004.81,7315.19C3000.83,7310.96 2998.84,7305.81 2998.84,7299.73C2998.84,7291.28 3003.11,7284.4 3011.66,7279.08C3020.21,7273.76 3030.58,7271.1 3042.76,7271.1C3058.68,7271.1 3070.69,7275.28 3078.77,7283.64C3086.85,7292 3090.89,7303.7 3090.89,7318.73C3090.89,7335.28 3084.33,7349.39 3071.22,7361.04C3058.1,7372.7 3038.42,7381.23 3012.19,7386.63Z" style="fill:rgb(30,187,79);fill-rule:nonzero;"/>
                <rect x="4489.98" y="7141.38" width="53.406" height="253.363" style="fill:rgb(30,187,79);fill-rule:nonzero;"/>
                <rect x="3014.3" y="7458.08" width="53.406" height="253.363" style="fill:rgb(30,187,79);fill-rule:nonzero;"/>
                <rect x="4489.98" y="7458.08" width="53.406" height="253.363" style="fill:rgb(30,187,79);fill-rule:nonzero;"/>
                <path d="M2325.65,8005.35L2441.59,7784.92L2491.48,7784.92L2375.54,8005.35L2325.65,8005.35Z" style="fill:rgb(30,187,79);fill-rule:nonzero;"/>
                <rect x="3014.3" y="7774.79" width="53.406" height="253.363" style="fill:rgb(30,187,79);fill-rule:nonzero;"/>
                <path d="M3706.46,8005.35L3590.51,7784.92L3640.41,7784.92L3756.35,8005.35L3706.46,8005.35Z" style="fill:rgb(30,187,79);fill-rule:nonzero;"/>
                <rect x="4489.98" y="7774.79" width="53.406" height="253.363" style="fill:rgb(30,187,79);fill-rule:nonzero;"/>
                <path d="M2441.59,8322.05L2325.65,8101.62L2375.54,8101.62L2491.48,8322.05L2441.59,8322.05Z" style="fill:rgb(30,187,79);fill-rule:nonzero;"/>
                <rect x="3014.3" y="8091.49" width="53.406" height="253.363" style="fill:rgb(30,187,79);fill-rule:nonzero;"/>
                <path d="M3590.51,8322.05L3706.46,8101.62L3756.35,8101.62L3640.41,8322.05L3590.51,8322.05Z" style="fill:rgb(30,187,79);fill-rule:nonzero;"/>
                <rect x="4489.98" y="8091.49" width="53.406" height="253.363" style="fill:rgb(30,187,79);fill-rule:nonzero;"/>
                <rect x="3014.3" y="8408.19" width="53.406" height="253.363" style="fill:rgb(30,187,79);fill-rule:nonzero;"/>
                <rect x="4489.98" y="8408.19" width="53.406" height="253.363" style="fill:rgb(30,187,79);fill-rule:nonzero;"/>
                <path d="M3022.73,8842.97L3009.38,8781.65L3007.27,8741.62L3074.73,8741.62L3072.62,8781.65L3059.27,8842.97L3022.73,8842.97Z" style="fill:rgb(30,187,79);fill-rule:nonzero;"/>
                <rect x="3168.89" y="8816.11" width="165.838" height="30.404" style="fill:rgb(30,187,79);fill-rule:nonzero;"/>
                <rect x="3379.7" y="8816.11" width="165.838" height="30.404" style="fill:rgb(30,187,79);fill-rule:nonzero;"/>
                <rect x="3590.51" y="8816.11" width="165.838" height="30.404" style="fill:rgb(30,187,79);fill-rule:nonzero;"/>
                <rect x="3801.33" y="8816.11" width="165.838" height="30.404" style="fill:rgb(30,187,79);fill-rule:nonzero;"/>
                <rect x="4012.14" y="8816.11" width="165.838" height="30.404" style="fill:rgb(30,187,79);fill-rule:nonzero;"/>
                <rect x="4222.95" y="8816.11" width="165.838" height="30.404" style="fill:rgb(30,187,79);fill-rule:nonzero;"/>
                <path d="M4498.41,8842.97L4485.06,8781.65L4482.95,8741.62L4550.41,8741.62L4548.3,8781.65L4534.95,8842.97L4498.41,8842.97Z" style="fill:rgb(30,187,79);fill-rule:nonzero;"/>
            </g>
            <g transform="matrix(1,0,0,1,43.6085,650.682)">
                <text x="7095.97px" y="14606.3px" style="font-family:'Hasklig-Bold', 'Hasklig', monospace;font-weight:700;font-size:391.667px;fill:rgb(30,187,79);">HackNotts</text>
                <text x="9445.97px" y="14606.3px" style="font-family:'Hasklig-Bold', 'Hasklig', monospace;font-weight:700;font-size:391.667px;fill:rgb(187,25,55);">&apos;23</text>
                <text x="7095.97px" y="15156.3px" style="font-family:'Hasklig-Bold', 'Hasklig', monospace;font-weight:700;font-size:391.667px;fill:rgb(160,160,160);">-------------</text>
                <text x="7095.97px" y="15706.3px" style="font-family:'Hasklig-Bold', 'Hasklig', monospace;font-weight:700;font-size:391.667px;fill:rgb(29,187,159);">Date:</text>
                <text x="8505.97px" y="15706.3px" style="font-family:'Hasklig-Regular', 'Hasklig', monospace;font-size:391.667px;fill:rgb(160,160,160);">11-12 Feb 2023</text>
                <text x="7095.97px" y="16256.3px" style="font-family:'Hasklig-Bold', 'Hasklig', monospace;font-weight:700;font-size:391.667px;fill:rgb(29,187,159);">Start:</text>
                <text x="8740.97px" y="16256.3px" style="font-family:'Hasklig-Regular', 'Hasklig', monospace;font-size:391.667px;fill:rgb(160,160,160);">10a</text>
                <text x="9445.97px" y="16256.3px" style="font-family:'Hasklig-Regular', 'Hasklig', monospace;font-size:391.667px;fill:rgb(160,160,160);">m</text>
                <text x="9669.22px" y="16256.3px" style="font-family:'Hasklig-Regular', 'Hasklig', monospace;font-size:391.667px;fill:rgb(160,160,160);">, 11 Feb</text>
                <text x="7095.97px" y="16806.3px" style="font-family:'Hasklig-Bold', 'Hasklig', monospace;font-weight:700;font-size:391.667px;fill:rgb(29,187,159);">Finish:</text>
                <text x="8975.97px" y="16806.3px" style="font-family:'Hasklig-Regular', 'Hasklig', monospace;font-size:391.667px;fill:rgb(160,160,160);">3pm, 12 Feb</text>
                <text x="7095.97px" y="17356.3px" style="font-family:'Hasklig-Bold', 'Hasklig', monospace;font-weight:700;font-size:391.667px;fill:rgb(29,187,159);">Location:</text>
                <text x="9445.97px" y="17356.3px" style="font-family:'Hasklig-Regular', 'Hasklig', monospace;font-size:391.667px;fill:rgb(160,160,160);">University of</text>
                <text x="9445.97px" y="17906.3px" style="font-family:'Hasklig-Regular', 'Hasklig', monospace;font-size:391.667px;fill:rgb(160,160,160);">Nottingham</text>
                <text x="7095.97px" y="18456.3px" style="font-family:'Hasklig-Bold', 'Hasklig', monospace;font-weight:700;font-size:391.667px;fill:rgb(29,187,159);">Host:</text>
                <text x="8505.97px" y="18456.3px" style="font-family:'Hasklig-Regular', 'Hasklig', monospace;font-size:391.667px;fill:rgb(160,160,160);">HackSoc</text>
                <text x="7095.97px" y="19006.3px" style="font-family:'Hasklig-Bold', 'Hasklig', monospace;font-weight:700;font-size:391.667px;fill:rgb(29,187,159);">Uptime:</text>
                <text x="8975.97px" y="19006.3px" style="font-family:'Hasklig-Regular', 'Hasklig', monospace;font-size:391.667px;fill:rgb(160,160,160);">9</text>
                <text x="9445.97px" y="19006.3px" style="font-family:'Hasklig-Regular', 'Hasklig', monospace;font-size:391.667px;fill:rgb(160,160,160);">years</text>
            </g>
            <g transform="matrix(1,0,0,1,42.921,448.163)">
                <g transform="matrix(1,0,0,1,0.687547,0.838608)">
                    <rect x="7095.97" y="20613.2" width="773.612" height="524.623" style="fill:rgb(187,25,55);"/>
                </g>
                <g transform="matrix(1,0,0,1,774.3,0.838608)">
                    <rect x="7095.97" y="20613.2" width="773.612" height="524.623" style="fill:rgb(187,23,135);"/>
                </g>
                <g transform="matrix(1,0,0,1,1544.91,0.838608)">
                    <rect x="7095.97" y="20613.2" width="773.612" height="524.623" style="fill:rgb(29,187,159);"/>
                </g>
                <g transform="matrix(1,0,0,1,2317.52,0.838608)">
                    <rect x="7095.97" y="20613.2" width="773.612" height="524.623" style="fill:rgb(30,187,79);"/>
                </g>
                <g transform="matrix(1,0,0,1,3088.14,0.838608)">
                    <rect x="7095.97" y="20613.2" width="773.612" height="524.623" style="fill:rgb(160,160,160);"/>
                </g>
            </g>
        </g>
    </g>
</svg>
