<?xml version="1.0" encoding="UTF-8" standalone="no"?><!DOCTYPE svg PUBLIC "-//W3C//DTD SVG 1.1//EN" "http://www.w3.org/Graphics/SVG/1.1/DTD/svg11.dtd"><svg width="100%" height="100%" viewBox="0 0 1418 142" version="1.1" xmlns="http://www.w3.org/2000/svg" xmlns:xlink="http://www.w3.org/1999/xlink" xml:space="preserve" xmlns:serif="http://www.serif.com/" style="fill-rule:evenodd;clip-rule:evenodd;stroke-linejoin:round;stroke-miterlimit:2;"><g id="Logo"><path d="M1346.48,0l-1275.67,0c-38.949,0 -70.809,31.86 -70.809,70.809c0,38.949 31.86,70.809 70.809,70.809l1275.7,-0c38.949,-0 70.809,-31.86 70.809,-70.809c-0,-38.949 -31.897,-70.809 -70.846,-70.809Z" style="fill:#3e3632;"/><g><rect id="polygon7_00000001656786455258842800000011693801996860144811_" x="669.386" y="20.508" width="486.853" height="10.337" style="fill:#f20029;"/><rect x="669.386" y="43.065" width="486.853" height="10.374" style="fill:#fd7801;"/><rect x="669.386" y="65.659" width="486.853" height="10.3" style="fill:#f2f540;"/><rect x="669.386" y="88.179" width="486.853" height="10.374" style="fill:#48cc31;"/><rect id="polygon15_00000025427389810582415990000006569259060333928854_" x="669.386" y="110.773" width="486.853" height="10.337" style="fill:#14a3fd;"/></g><path d="M147.929,42.908l-0,54.815l14.546,0l-0,-16.6c-0,-10.355 2.054,-12.41 12.327,-12.41c9.533,0 11.259,1.562 11.259,10.026l-0,18.984l14.546,0l0,-18.984c0,-9.122 -0.904,-12.656 -4.273,-16.107c-3.37,-3.452 -8.219,-4.849 -16.848,-4.849c-9.204,0 -13.97,2.055 -16.354,6.986l-0.657,-0l-0,-21.861l-14.546,0Z" style="fill:#fff;fill-rule:nonzero;"/><path d="M221.81,71.014c0.411,-3.533 1.479,-3.862 11.916,-3.862c8.794,-0 9.944,0.822 9.944,6.903l0,2.055l-0.657,-0c-2.301,-2.466 -4.274,-3.041 -11.013,-3.041c-10.683,-0 -14.464,0.246 -17.997,1.233c-5.671,1.479 -8.301,5.341 -8.301,12.327c0,9.204 4.027,12.08 16.93,12.08c9.451,0 13.149,-0.328 15.532,-1.314c2.63,-1.069 4.191,-2.466 5.424,-5.013l0.575,-0l0,5.341l13.971,0l0,-23.421c0,-7.068 -0.822,-10.026 -3.287,-12.656c-3.288,-3.288 -6.246,-3.863 -18.984,-3.863c-11.67,0 -18.409,0.74 -21.778,2.301c-4.52,2.219 -6.41,5.26 -6.821,10.93l14.546,0Zm9.697,10.273c6.164,0 8.465,0.082 9.369,0.411c1.644,0.575 2.548,1.726 2.548,3.287c-0,3.452 -2.877,4.438 -13.149,4.438c-7.808,-0 -10.027,-0.904 -10.027,-4.027c0,-3.205 2.384,-4.109 11.259,-4.109Z" style="fill:#fff;fill-rule:nonzero;"/><path d="M301.772,82.109c-0.657,4.438 -3.123,5.588 -11.669,5.588c-3.863,0 -6.986,-0.411 -8.712,-1.15c-2.629,-1.069 -3.451,-3.041 -3.451,-8.136c-0,-8.136 1.89,-9.698 11.998,-9.698c8.547,0 11.423,1.48 11.916,5.917l14.793,0c-0.246,-7.314 -1.315,-10.354 -4.438,-12.82c-3.698,-3.041 -9.368,-4.027 -22.271,-4.027c-13.149,0 -18.244,0.904 -21.942,3.945c-3.452,2.794 -4.602,6.903 -4.602,16.272c-0,10.272 1.232,14.464 5.013,17.094c3.862,2.794 8.875,3.615 20.792,3.615c15.285,0 20.052,-0.986 23.75,-4.766c2.548,-2.548 3.369,-5.342 3.616,-11.834l-14.793,-0Z" style="fill:#fff;fill-rule:nonzero;"/><path d="M321.742,42.908l0,54.815l14.546,0l0,-15.614l3.699,-0l15.614,15.614l19.313,0l-22.847,-20.792l20.135,-18.079l-19.477,-0l-13.314,12.655l-3.123,0l0,-28.599l-14.546,0Z" style="fill:#fff;fill-rule:nonzero;"/><path d="M376.557,58.852l0,38.871l14.546,0l0,-15.532c0,-7.15 0.329,-8.958 2.137,-10.848c1.726,-1.808 4.602,-2.548 9.944,-2.548c5.424,0 8.218,0.576 9.78,2.137c1.561,1.479 1.808,2.877 1.808,9.122l-0,17.669l14.546,0l-0,-17.669c-0,-10.683 -0.74,-13.642 -4.274,-17.34c-3.451,-3.534 -8.218,-4.849 -17.504,-4.849c-9.451,0 -13.889,1.891 -16.519,6.904l-0.739,-0l-0,-5.917l-13.725,-0Z" style="fill:#fff;fill-rule:nonzero;"/><path d="M462.108,57.865c-13.231,0 -18.902,0.904 -22.518,3.534c-3.862,2.794 -5.013,6.492 -5.013,15.615c0,11.258 0.904,14.874 4.52,17.833c3.699,3.041 8.547,3.862 23.093,3.862c14.382,0 19.231,-0.821 22.929,-3.862c3.534,-2.959 4.52,-6.575 4.52,-17.258c-0,-9.78 -1.068,-13.313 -5.013,-16.19c-3.616,-2.63 -9.204,-3.534 -22.518,-3.534Zm0.082,10.93c4.109,0 7.561,0.411 9.369,1.151c2.712,1.068 3.534,2.959 3.534,8.218c-0,8.218 -1.89,9.615 -12.903,9.615c-4.684,0 -7.971,-0.411 -9.779,-1.232c-2.63,-1.069 -3.288,-2.795 -3.288,-7.972c0,-8.3 1.973,-9.78 13.067,-9.78Z" style="fill:#fff;fill-rule:nonzero;"/><path d="M500.322,49.894l0,8.958l-7.642,-0l-0,10.437l7.642,-0l0,11.341c0,3.205 0,5.177 0.083,5.834c0.164,4.438 0.986,6.575 3.04,8.63c2.877,2.794 6.657,3.615 15.944,3.615c10.026,0 14.463,-1.232 17.422,-4.93c2.219,-2.877 2.794,-5.26 2.959,-12.656l-13.314,-0c0,4.027 -0.082,4.355 -0.575,5.259c-0.658,1.397 -2.301,1.973 -5.26,1.973c-2.794,-0 -4.273,-0.576 -5.013,-1.891c-0.657,-0.986 -0.739,-1.561 -0.739,-5.834l-0,-11.341l23.01,-0l0,-10.437l-23.01,-0l-0,-8.958l-14.547,-0Z" style="fill:#fff;fill-rule:nonzero;"/><path d="M547.905,49.894l0,8.958l-7.642,-0l-0,10.437l7.642,-0l0,11.341c0,3.205 0,5.177 0.083,5.834c0.164,4.438 0.986,6.575 3.04,8.63c2.877,2.794 6.657,3.615 15.944,3.615c10.026,0 14.463,-1.232 17.422,-4.93c2.219,-2.877 2.794,-5.26 2.959,-12.656l-13.314,-0c0,4.027 -0.082,4.355 -0.575,5.259c-0.658,1.397 -2.301,1.973 -5.26,1.973c-2.794,-0 -4.273,-0.576 -5.013,-1.891c-0.657,-0.986 -0.739,-1.561 -0.739,-5.834l-0,-11.341l23.01,-0l0,-10.437l-23.01,-0l-0,-8.958l-14.547,-0Z" style="fill:#fff;fill-rule:nonzero;"/><path d="M589.9,85.314c0.082,4.52 1.068,7.232 3.452,9.369c3.451,3.205 8.3,4.026 22.435,4.026c22.518,0 27.778,-2.547 27.778,-13.642c-0,-8.711 -4.274,-11.998 -15.533,-12.08c-14.957,-0.082 -17.504,-0.165 -19.888,-0.329c-2.301,-0.164 -3.451,-0.986 -3.451,-2.548c-0,-2.465 2.794,-3.205 11.916,-3.205c4.931,0 7.889,0.329 9.122,1.151c0.493,0.329 0.658,0.575 0.986,1.808l14.793,-0c-0.329,-4.685 -1.068,-6.739 -3.123,-8.383c-3.287,-2.794 -8.136,-3.616 -21.367,-3.616c-10.191,0 -17.012,0.576 -20.134,1.808c-4.603,1.726 -6.739,5.342 -6.739,11.341c-0,8.301 4.602,11.752 15.614,11.917c14.3,-0 17.916,0.082 19.888,0.246c2.137,0.247 3.369,1.315 3.369,2.877c0,2.794 -2.712,3.616 -12.162,3.616c-9.123,-0 -11.917,-0.987 -12.163,-4.356l-14.793,-0Z" style="fill:#fff;fill-rule:nonzero;"/><path d="M1196.26,70c-4.097,0.647 -5.714,1.078 -7.439,1.941c-4.744,2.372 -6.577,6.901 -6.577,16.065c-0,9.596 2.372,14.233 8.518,16.928c5.391,2.264 10.566,2.696 33.64,2.696c20.27,-0 25.338,-0.324 30.513,-1.618c8.733,-2.264 11.752,-7.008 11.752,-18.006c0,-8.302 -1.401,-12.507 -5.175,-15.202c-1.833,-1.402 -3.558,-1.941 -8.841,-2.804c9.919,-0.754 13.154,-4.636 13.154,-15.957c-0,-9.381 -2.372,-14.34 -8.302,-17.036c-4.529,-2.049 -15.311,-3.019 -33.101,-3.019c-14.125,0 -25.77,0.755 -30.298,2.049c-7.871,2.264 -10.998,7.332 -10.998,18.006c0,11.321 3.235,15.203 13.154,15.957Zm25.985,-19.839c7.871,0 16.389,0.324 18.761,0.755c2.803,0.539 3.989,2.156 3.989,5.499c0,6.146 0,6.146 -21.348,6.146c-18.869,-0 -19.731,-0.216 -19.731,-6.146c-0,-5.607 1.94,-6.254 18.329,-6.254Zm2.157,27.926c7.763,-0 16.496,0.323 18.006,0.755c2.587,0.646 3.45,1.94 3.45,5.606c-0,6.685 -0.97,7.009 -23.505,7.009c-18.545,-0 -19.3,-0.216 -19.3,-6.47c0,-6.685 0.539,-6.9 21.349,-6.9Z" style="fill:#fff;fill-rule:nonzero;"/><path d="M1368.24,77.224l-14.017,0l-0,-42.373l-35.473,-0l-42.697,31.052l-0,27.494l57.361,0l-0,13.37l20.809,0l-0,-13.37l14.017,0l-0,-16.173Zm-34.826,0l-37.738,0l0,-2.803l33.317,-22.858l4.421,-0l-0,25.661Z" style="fill:#fff;fill-rule:nonzero;"/><g id="HackNotts-Logo" serif:id="HackNotts Logo"><g><path d="M97.589,87.679c0.02,0.694 -0.305,1.167 -0.764,1.42c-4.043,3.309 -8.082,6.618 -12.126,9.927c-1.097,0.897 -2.887,0.391 -2.887,-1.199l0,-2.162c0,-0.767 -0.183,-1.877 0.224,-2.571c0.53,-0.906 1.679,-1.636 2.438,-2.325c1.825,-1.66 3.652,-3.319 5.477,-4.978c-1.825,-1.665 -3.648,-3.33 -5.474,-4.995c-0.764,-0.696 -2.317,-1.662 -2.613,-2.736c-0.2,-0.728 -0.052,-1.637 -0.052,-2.377l0,-1.925c0,-1.568 1.799,-2.127 2.887,-1.199c2.776,2.366 5.544,4.733 8.32,7.1c1.275,1.087 2.549,2.173 3.824,3.26c1.107,0.944 0.708,3.442 0.746,4.76m10.977,-59.663c0.016,-0.574 -0.575,-0.574 -0.575,-0.574l-15.634,0c-0.499,0 -0.545,0.574 -0.545,0.574l-1.413,16.381l-9.277,0.007c0,-0 -0.877,-15.814 -0.91,-16.388c-0.033,-0.574 -0.542,-0.574 -0.542,-0.574c-0,0 -11.571,0.003 -12.122,0.002c-0.552,-0.002 -0.543,0.572 -0.543,0.572l-0.892,16.387l-9.452,-0c0,-0 -1.207,-15.813 -1.255,-16.387c-0.048,-0.574 -0.58,-0.574 -0.58,-0.574l-15.493,0c-0.686,0 -0.686,0.574 -0.686,0.574c0,0 0.247,32.389 0.271,33.17c0.025,0.781 0.748,0.761 0.748,0.761l32.117,0.358c0,0 -0.031,49.233 0,50.552c0.031,1.319 1.288,1.319 1.288,1.319l34.093,-0c1.418,-0 1.418,-1.319 1.418,-1.319c0,-0 -0.032,-84.267 -0.016,-84.841" style="fill:#fff;fill-rule:nonzero;"/></g><g><path d="M63.457,78.106c0.2,-0.727 0.052,-1.636 0.052,-2.376l-0,-1.926c-0,-1.567 -1.799,-2.127 -2.887,-1.199c-2.776,2.367 -5.544,4.734 -8.32,7.1c-1.274,1.087 -2.549,2.174 -3.824,3.261c-1.107,0.944 -0.708,3.442 -0.746,4.76c-0.02,0.694 0.305,1.166 0.764,1.42c4.043,3.309 8.082,6.618 12.126,9.926c1.097,0.898 2.887,0.391 2.887,-1.199l-0,-2.162c-0,-0.766 0.183,-1.877 -0.224,-2.571c-0.53,-0.906 -1.679,-1.636 -2.437,-2.325c-1.826,-1.659 -3.653,-3.319 -5.478,-4.978c1.825,-1.665 3.649,-3.33 5.474,-4.994c0.764,-0.697 2.317,-1.663 2.613,-2.737" style="fill:#fff;fill-rule:nonzero;"/></g></g></g></svg>