<?xml version="1.0" encoding="UTF-8" standalone="no"?><!DOCTYPE svg PUBLIC "-//W3C//DTD SVG 1.1//EN" "http://www.w3.org/Graphics/SVG/1.1/DTD/svg11.dtd"><svg width="100%" height="100%" viewBox="0 0 7045 3906" version="1.1" xmlns="http://www.w3.org/2000/svg" xmlns:xlink="http://www.w3.org/1999/xlink" xml:space="preserve" xmlns:serif="http://www.serif.com/" style="fill-rule:evenodd;clip-rule:evenodd;stroke-linejoin:round;stroke-miterlimit:2;"><rect id="Large-Logo" serif:id="Large Logo" x="-0" y="0" width="7044.47" height="3905.66" style="fill:#1a1a1a;"/><g><g transform="matrix(0.964949,0,0,0.964949,2561.57,881.862)"><g transform="matrix(671.707,0,0,671.707,500.217,1006.65)"><path d="M-0.002,-0l0.13,-0.65l0.16,0l-0.05,0.244l0.16,0l0.048,-0.244l0.16,0l-0.13,0.65l-0.16,-0l0.054,-0.266l-0.16,0l-0.052,0.266l-0.16,-0Z" style="fill:#1ebb4f;fill-rule:nonzero;"/></g><g transform="matrix(671.707,0,0,671.707,903.242,1006.65)"><path d="M0.189,0.012c-0.049,0 -0.089,-0.017 -0.117,-0.051c-0.029,-0.033 -0.044,-0.081 -0.044,-0.143c0,-0.046 0.007,-0.089 0.022,-0.129c0.015,-0.04 0.035,-0.075 0.06,-0.105c0.024,-0.03 0.053,-0.053 0.085,-0.07c0.031,-0.017 0.064,-0.026 0.099,-0.026c0.032,0 0.059,0.005 0.082,0.017c0.023,0.011 0.039,0.026 0.05,0.045l0.004,0l0.022,-0.05l0.128,0l-0.1,0.5l-0.13,-0l-0,-0.066l-0.004,0c-0.023,0.025 -0.048,0.044 -0.076,0.058c-0.027,0.013 -0.054,0.02 -0.081,0.02Zm0.061,-0.13c0.016,0 0.034,-0.006 0.053,-0.017c0.02,-0.01 0.038,-0.028 0.055,-0.053l0.033,-0.156c-0.007,-0.013 -0.017,-0.023 -0.031,-0.029c-0.013,-0.006 -0.025,-0.009 -0.036,-0.009c-0.023,0 -0.044,0.008 -0.063,0.023c-0.02,0.015 -0.036,0.036 -0.048,0.064c-0.013,0.026 -0.019,0.058 -0.019,0.093c0,0.029 0.005,0.051 0.016,0.064c0.01,0.013 0.023,0.02 0.04,0.02Z" style="fill:#1ebb4f;fill-rule:nonzero;"/></g><g transform="matrix(671.707,0,0,671.707,1306.27,1006.65)"><path d="M0.3,0.012c-0.043,0 -0.083,-0.008 -0.12,-0.024c-0.037,-0.016 -0.066,-0.04 -0.089,-0.073c-0.022,-0.032 -0.033,-0.072 -0.033,-0.121c0,-0.046 0.008,-0.088 0.025,-0.126c0.016,-0.037 0.038,-0.069 0.067,-0.096c0.028,-0.027 0.061,-0.047 0.098,-0.062c0.036,-0.015 0.075,-0.022 0.116,-0.022c0.045,-0 0.084,0.009 0.117,0.028c0.034,0.019 0.059,0.041 0.077,0.064l-0.096,0.088c-0.016,-0.017 -0.033,-0.03 -0.051,-0.038c-0.019,-0.008 -0.038,-0.012 -0.057,-0.012c-0.023,-0 -0.044,0.007 -0.065,0.021c-0.02,0.015 -0.036,0.034 -0.049,0.058c-0.013,0.025 -0.02,0.052 -0.02,0.083c0,0.035 0.011,0.06 0.032,0.077c0.021,0.017 0.045,0.025 0.072,0.025c0.023,-0 0.044,-0.005 0.061,-0.015c0.017,-0.01 0.035,-0.022 0.053,-0.037l0.055,0.108c-0.025,0.023 -0.053,0.041 -0.085,0.054c-0.032,0.013 -0.068,0.02 -0.108,0.02Z" style="fill:#1ebb4f;fill-rule:nonzero;"/></g><g transform="matrix(671.707,0,0,671.707,1709.29,1006.65)"><path d="M0.01,-0l0.14,-0.696l0.16,0l-0.078,0.38l0.004,0l0.198,-0.184l0.184,0l-0.223,0.208l0.135,0.292l-0.162,-0l-0.082,-0.195l-0.094,0.081l-0.022,0.114l-0.16,-0Z" style="fill:#1ebb4f;fill-rule:nonzero;"/></g><g transform="matrix(671.707,0,0,671.707,2112.32,1006.65)"><path d="M0.006,-0l0.13,-0.65l0.16,0l0.057,0.31l0.021,0.144l0.004,0c0.001,-0.017 0.003,-0.038 0.005,-0.061c0.003,-0.023 0.005,-0.046 0.007,-0.069c0.003,-0.023 0.005,-0.045 0.008,-0.065c0.003,-0.019 0.005,-0.035 0.007,-0.047l0.042,-0.212l0.151,0l-0.13,0.65l-0.156,-0l-0.063,-0.31l-0.021,-0.144l-0.004,0c-0.002,0.024 -0.004,0.052 -0.007,0.083c-0.003,0.031 -0.006,0.062 -0.01,0.092c-0.003,0.03 -0.007,0.056 -0.011,0.077l-0.039,0.202l-0.151,-0Z" style="fill:#1ebb4f;fill-rule:nonzero;"/></g><g transform="matrix(671.707,0,0,671.707,2515.34,1006.65)"><path d="M0.256,0.012c-0.07,0 -0.125,-0.02 -0.166,-0.061c-0.04,-0.041 -0.06,-0.095 -0.06,-0.163c0,-0.045 0.008,-0.087 0.024,-0.124c0.016,-0.037 0.038,-0.068 0.066,-0.094c0.027,-0.027 0.058,-0.047 0.094,-0.061c0.035,-0.014 0.071,-0.021 0.108,-0.021c0.07,0 0.125,0.02 0.165,0.061c0.041,0.041 0.061,0.095 0.061,0.163c0,0.045 -0.008,0.087 -0.024,0.124c-0.016,0.037 -0.038,0.068 -0.066,0.095c-0.027,0.026 -0.059,0.046 -0.094,0.06c-0.035,0.014 -0.071,0.021 -0.108,0.021Zm0.012,-0.13c0.02,0 0.039,-0.007 0.057,-0.02c0.018,-0.014 0.033,-0.033 0.044,-0.058c0.011,-0.025 0.017,-0.055 0.017,-0.088c-0,-0.032 -0.007,-0.056 -0.021,-0.073c-0.013,-0.017 -0.032,-0.025 -0.055,-0.025c-0.02,0 -0.039,0.007 -0.057,0.021c-0.018,0.013 -0.033,0.033 -0.044,0.058c-0.011,0.025 -0.017,0.054 -0.017,0.087c0,0.032 0.007,0.056 0.021,0.073c0.014,0.017 0.032,0.025 0.055,0.025Z" style="fill:#1ebb4f;fill-rule:nonzero;"/></g><g transform="matrix(671.707,0,0,671.707,2918.36,1006.65)"><path d="M0.31,0.012c-0.062,0 -0.107,-0.014 -0.134,-0.042c-0.028,-0.028 -0.042,-0.065 -0.042,-0.112c0,-0.01 0.001,-0.02 0.002,-0.03c0.001,-0.01 0.003,-0.022 0.006,-0.036l0.034,-0.168l-0.126,0l0.024,-0.118l0.134,-0.006l0.054,-0.15l0.13,0l-0.032,0.15l0.2,0l-0.024,0.124l-0.202,0l-0.034,0.16c-0.002,0.009 -0.003,0.015 -0.004,0.02c0,0.006 -0,0.011 -0,0.016c-0,0.023 0.006,0.039 0.018,0.048c0.012,0.009 0.027,0.014 0.046,0.014c0.019,0 0.038,-0.004 0.056,-0.011c0.018,-0.008 0.034,-0.016 0.048,-0.025l0.048,0.111c-0.023,0.015 -0.052,0.028 -0.088,0.039c-0.036,0.011 -0.074,0.016 -0.114,0.016Z" style="fill:#1ebb4f;fill-rule:nonzero;"/></g><g transform="matrix(671.707,0,0,671.707,3321.39,1006.65)"><path d="M0.31,0.012c-0.062,0 -0.107,-0.014 -0.134,-0.042c-0.028,-0.028 -0.042,-0.065 -0.042,-0.112c0,-0.01 0.001,-0.02 0.002,-0.03c0.001,-0.01 0.003,-0.022 0.006,-0.036l0.034,-0.168l-0.126,0l0.024,-0.118l0.134,-0.006l0.054,-0.15l0.13,0l-0.032,0.15l0.2,0l-0.024,0.124l-0.202,0l-0.034,0.16c-0.002,0.009 -0.003,0.015 -0.004,0.02c0,0.006 -0,0.011 -0,0.016c-0,0.023 0.006,0.039 0.018,0.048c0.012,0.009 0.027,0.014 0.046,0.014c0.019,0 0.038,-0.004 0.056,-0.011c0.018,-0.008 0.034,-0.016 0.048,-0.025l0.048,0.111c-0.023,0.015 -0.052,0.028 -0.088,0.039c-0.036,0.011 -0.074,0.016 -0.114,0.016Z" style="fill:#1ebb4f;fill-rule:nonzero;"/></g><g transform="matrix(671.707,0,0,671.707,3724.41,1006.65)"><path d="M0.264,0.012c-0.048,0 -0.092,-0.008 -0.131,-0.025c-0.039,-0.017 -0.073,-0.039 -0.101,-0.067l0.087,-0.1c0.027,0.026 0.055,0.045 0.084,0.056c0.029,0.012 0.058,0.018 0.087,0.018c0.039,0 0.058,-0.009 0.058,-0.028c0,-0.011 -0.006,-0.02 -0.017,-0.027c-0.011,-0.008 -0.034,-0.016 -0.069,-0.027c-0.05,-0.016 -0.089,-0.036 -0.117,-0.061c-0.027,-0.025 -0.041,-0.056 -0.041,-0.095c0,-0.037 0.01,-0.068 0.031,-0.093c0.021,-0.025 0.048,-0.043 0.081,-0.056c0.033,-0.013 0.069,-0.019 0.108,-0.019c0.049,-0 0.091,0.008 0.125,0.023c0.034,0.016 0.063,0.036 0.087,0.059l-0.087,0.093c-0.02,-0.016 -0.042,-0.03 -0.068,-0.041c-0.024,-0.011 -0.05,-0.016 -0.075,-0.016c-0.015,-0 -0.028,0.002 -0.037,0.007c-0.01,0.005 -0.015,0.012 -0.015,0.023c0,0.01 0.007,0.018 0.021,0.025c0.013,0.007 0.039,0.018 0.077,0.031c0.044,0.015 0.079,0.033 0.106,0.056c0.027,0.023 0.04,0.055 0.04,0.096c0,0.038 -0.01,0.069 -0.031,0.094c-0.021,0.025 -0.049,0.044 -0.084,0.056c-0.035,0.012 -0.075,0.018 -0.119,0.018Z" style="fill:#1ebb4f;fill-rule:nonzero;"/></g><g transform="matrix(671.707,0,0,671.707,500.217,1678.36)"><path d="M0.248,-0.284l-0.038,-0.242l-0.006,-0.158l0.192,0l-0.006,0.158l-0.038,0.242l-0.104,0Z" style="fill:#bb1937;fill-rule:nonzero;"/></g><g transform="matrix(671.707,0,0,671.707,903.242,1678.36)"><path d="M0.052,-0l0,-0.098c0.057,-0.046 0.107,-0.089 0.151,-0.128c0.044,-0.039 0.079,-0.076 0.104,-0.109c0.025,-0.033 0.038,-0.064 0.038,-0.093c0,-0.029 -0.008,-0.05 -0.025,-0.063c-0.017,-0.014 -0.039,-0.021 -0.067,-0.021c-0.023,0 -0.045,0.006 -0.064,0.019c-0.018,0.012 -0.037,0.026 -0.054,0.041l-0.091,-0.092c0.035,-0.035 0.07,-0.061 0.105,-0.078c0.035,-0.016 0.078,-0.024 0.128,-0.024c0.045,0 0.085,0.008 0.12,0.025c0.035,0.017 0.062,0.042 0.082,0.073c0.019,0.031 0.029,0.068 0.029,0.11c0,0.034 -0.01,0.069 -0.031,0.104c-0.021,0.035 -0.047,0.07 -0.079,0.104c-0.032,0.033 -0.065,0.065 -0.1,0.094c0.017,-0.002 0.037,-0.004 0.059,-0.005c0.021,-0.002 0.04,-0.003 0.055,-0.003l0.128,0l0,0.144l-0.488,0Z" style="fill:#bb1937;fill-rule:nonzero;"/></g><g transform="matrix(671.707,0,0,671.707,1306.27,1678.36)"><path d="M0.276,0.012c-0.054,0 -0.101,-0.008 -0.142,-0.024c-0.04,-0.016 -0.073,-0.038 -0.098,-0.066l0.078,-0.108c0.021,0.018 0.045,0.033 0.07,0.043c0.025,0.011 0.05,0.017 0.074,0.017c0.031,0 0.057,-0.005 0.077,-0.015c0.019,-0.01 0.029,-0.025 0.029,-0.045c0,-0.016 -0.005,-0.03 -0.015,-0.041c-0.009,-0.011 -0.027,-0.02 -0.052,-0.026c-0.025,-0.006 -0.062,-0.009 -0.109,-0.009l-0,-0.12c0.057,0 0.098,-0.007 0.121,-0.02c0.023,-0.013 0.035,-0.03 0.035,-0.052c-0,-0.019 -0.007,-0.034 -0.021,-0.043c-0.014,-0.01 -0.034,-0.015 -0.059,-0.015c-0.023,0 -0.044,0.004 -0.064,0.013c-0.019,0.009 -0.04,0.022 -0.062,0.039l-0.086,-0.104c0.033,-0.026 0.067,-0.046 0.104,-0.061c0.037,-0.014 0.075,-0.021 0.116,-0.021c0.073,0 0.132,0.015 0.177,0.046c0.045,0.031 0.067,0.076 0.067,0.133c0,0.031 -0.01,0.057 -0.03,0.08c-0.02,0.023 -0.049,0.042 -0.086,0.057l0,0.004c0.039,0.011 0.072,0.029 0.098,0.054c0.025,0.025 0.038,0.058 0.038,0.098c0,0.04 -0.012,0.074 -0.037,0.101c-0.024,0.028 -0.056,0.049 -0.095,0.063c-0.039,0.015 -0.082,0.022 -0.128,0.022Z" style="fill:#bb1937;fill-rule:nonzero;"/></g></g><g><rect x="759.952" y="777.845" width="116.782" height="30.655" style="fill:#1ebb4f;fill-rule:nonzero;"/><rect x="905.929" y="777.845" width="116.782" height="30.655" style="fill:#1ebb4f;fill-rule:nonzero;"/><rect x="1489.84" y="777.845" width="116.782" height="30.655" style="fill:#1ebb4f;fill-rule:nonzero;"/><rect x="1635.81" y="777.845" width="116.782" height="30.655" style="fill:#1ebb4f;fill-rule:nonzero;"/><rect x="2219.72" y="777.845" width="116.782" height="30.655" style="fill:#1ebb4f;fill-rule:nonzero;"/><rect x="2365.7" y="777.845" width="116.782" height="30.655" style="fill:#1ebb4f;fill-rule:nonzero;"/><rect x="653.875" y="887.814" width="36.981" height="243.295" style="fill:#1ebb4f;fill-rule:nonzero;"/><rect x="1091.81" y="887.814" width="36.981" height="243.295" style="fill:#1ebb4f;fill-rule:nonzero;"/><rect x="1197.88" y="1081.96" width="116.782" height="30.655" style="fill:#1ebb4f;fill-rule:nonzero;"/><rect x="1383.76" y="887.814" width="36.981" height="243.295" style="fill:#1ebb4f;fill-rule:nonzero;"/><rect x="1821.69" y="887.814" width="36.981" height="243.295" style="fill:#1ebb4f;fill-rule:nonzero;"/><rect x="1927.77" y="1081.96" width="116.782" height="30.655" style="fill:#1ebb4f;fill-rule:nonzero;"/><rect x="2113.64" y="887.814" width="36.981" height="243.295" style="fill:#1ebb4f;fill-rule:nonzero;"/><rect x="2551.58" y="887.814" width="36.981" height="243.295" style="fill:#1ebb4f;fill-rule:nonzero;"/><rect x="653.875" y="1191.93" width="36.981" height="243.295" style="fill:#1ebb4f;fill-rule:nonzero;"/><rect x="2551.58" y="1191.93" width="36.981" height="243.295" style="fill:#1ebb4f;fill-rule:nonzero;"/><path d="M659.714,1609.43l-9.245,-58.877l-1.46,-38.441l46.713,0l-1.46,38.441l-9.245,58.877l-25.303,-0Z" style="fill:#1ebb4f;fill-rule:nonzero;"/><rect x="760.925" y="1583.64" width="114.835" height="29.195" style="fill:#1ebb4f;fill-rule:nonzero;"/><rect x="906.902" y="1583.64" width="114.835" height="29.195" style="fill:#1ebb4f;fill-rule:nonzero;"/><rect x="1052.88" y="1583.64" width="114.835" height="29.195" style="fill:#1ebb4f;fill-rule:nonzero;"/><rect x="1198.86" y="1583.64" width="114.835" height="29.195" style="fill:#1ebb4f;fill-rule:nonzero;"/><rect x="1344.83" y="1583.64" width="114.835" height="29.195" style="fill:#1ebb4f;fill-rule:nonzero;"/><path d="M1528.28,1731.56l-9.975,-23.843c11.03,-3.568 19.18,-8.191 24.451,-13.868c5.272,-5.677 7.745,-11.759 7.421,-18.247l-1.946,0c-5.029,0 -9.773,-1.095 -14.233,-3.284c-4.461,-2.19 -8.07,-5.312 -10.827,-9.367c-2.757,-4.055 -4.136,-9.002 -4.136,-14.841c0,-8.11 2.96,-14.719 8.88,-19.829c5.921,-5.109 13.098,-7.663 21.532,-7.663c11.029,-0 19.342,4.014 24.938,12.043c5.595,8.028 8.393,19.261 8.393,33.696c0,15.895 -4.541,29.439 -13.624,40.63c-9.083,11.192 -22.708,19.383 -40.874,24.573Z" style="fill:#1ebb4f;fill-rule:nonzero;"/><rect x="2551.58" y="1496.05" width="36.981" height="243.295" style="fill:#1ebb4f;fill-rule:nonzero;"/><rect x="1529.74" y="1800.17" width="36.981" height="243.295" style="fill:#1ebb4f;fill-rule:nonzero;"/><rect x="2551.58" y="1800.17" width="36.981" height="243.295" style="fill:#1ebb4f;fill-rule:nonzero;"/><path d="M1052.88,2325.69l80.287,-211.666l34.548,-0l-80.287,211.666l-34.548,0Z" style="fill:#1ebb4f;fill-rule:nonzero;"/><rect x="1529.74" y="2104.29" width="36.981" height="243.295" style="fill:#1ebb4f;fill-rule:nonzero;"/><path d="M2009.03,2325.69l-80.287,-211.666l34.548,-0l80.287,211.666l-34.548,0Z" style="fill:#1ebb4f;fill-rule:nonzero;"/><rect x="2551.58" y="2104.29" width="36.981" height="243.295" style="fill:#1ebb4f;fill-rule:nonzero;"/><path d="M1133.17,2629.81l-80.287,-211.667l34.548,0l80.287,211.667l-34.548,0Z" style="fill:#1ebb4f;fill-rule:nonzero;"/><rect x="1529.74" y="2408.41" width="36.981" height="243.295" style="fill:#1ebb4f;fill-rule:nonzero;"/><path d="M1928.74,2629.81l80.287,-211.667l34.548,0l-80.287,211.667l-34.548,0Z" style="fill:#1ebb4f;fill-rule:nonzero;"/><rect x="2551.58" y="2408.41" width="36.981" height="243.295" style="fill:#1ebb4f;fill-rule:nonzero;"/><rect x="1529.74" y="2712.53" width="36.981" height="243.295" style="fill:#1ebb4f;fill-rule:nonzero;"/><rect x="2551.58" y="2712.53" width="36.981" height="243.295" style="fill:#1ebb4f;fill-rule:nonzero;"/><path d="M1535.58,3130.02l-9.245,-58.877l-1.46,-38.441l46.713,0l-1.46,38.441l-9.245,58.877l-25.303,0Z" style="fill:#1ebb4f;fill-rule:nonzero;"/><rect x="1636.79" y="3104.23" width="114.835" height="29.195" style="fill:#1ebb4f;fill-rule:nonzero;"/><rect x="1782.76" y="3104.23" width="114.835" height="29.195" style="fill:#1ebb4f;fill-rule:nonzero;"/><rect x="1928.74" y="3104.23" width="114.835" height="29.195" style="fill:#1ebb4f;fill-rule:nonzero;"/><rect x="2074.72" y="3104.23" width="114.835" height="29.195" style="fill:#1ebb4f;fill-rule:nonzero;"/><rect x="2220.7" y="3104.23" width="114.835" height="29.195" style="fill:#1ebb4f;fill-rule:nonzero;"/><rect x="2366.67" y="3104.23" width="114.835" height="29.195" style="fill:#1ebb4f;fill-rule:nonzero;"/><path d="M2557.41,3130.02l-9.245,-58.877l-1.46,-38.441l46.713,0l-1.46,38.441l-9.245,58.877l-25.303,0Z" style="fill:#1ebb4f;fill-rule:nonzero;"/></g></g></svg>