<?xml version="1.0" standalone="no"?>
<!DOCTYPE svg PUBLIC "-//W3C//DTD SVG 20010904//EN"
 "http://www.w3.org/TR/2001/REC-SVG-20010904/DTD/svg10.dtd">
<svg version="1.0" xmlns="http://www.w3.org/2000/svg"
 width="64.000000pt" height="64.000000pt" viewBox="0 0 64.000000 64.000000"
 preserveAspectRatio="xMidYMid meet">
<metadata>
Created by potrace 1.14, written by Peter Selinger 2001-2017
</metadata>
<g transform="translate(0.000000,64.000000) scale(0.100000,-0.100000)"
fill="#000000" stroke="none">
<path d="M149 533 c-5 -38 5 -160 14 -165 7 -4 42 -8 80 -8 l67 0 0 -130 0
-131 93 3 92 3 0 215 0 215 -42 3 -42 3 -3 -43 c-2 -35 -7 -44 -25 -46 -19 -3
-23 3 -28 42 -7 42 -10 46 -35 46 -25 0 -28 -4 -35 -46 -5 -39 -9 -45 -28 -42
-18 2 -23 11 -25 46 -3 42 -3 42 -43 42 -21 0 -39 -3 -40 -7z m260 -249 c17
-14 31 -32 31 -39 0 -14 -55 -65 -71 -65 -15 0 -10 23 11 45 l20 22 -20 18
c-21 19 -27 45 -11 45 5 0 23 -12 40 -26z"/>
<path d="M223 274 c-18 -14 -33 -32 -33 -39 0 -13 59 -65 73 -65 14 0 6 24
-13 45 l-20 22 20 18 c20 18 27 45 13 45 -5 0 -23 -12 -40 -26z"/>
</g>
</svg>
