<?xml version="1.0" encoding="UTF-8" standalone="no"?>
<!DOCTYPE svg PUBLIC "-//W3C//DTD SVG 1.1//EN" "http://www.w3.org/Graphics/SVG/1.1/DTD/svg11.dtd">
<svg width="100%" height="100%" viewBox="0 0 720 390" version="1.1" xmlns="http://www.w3.org/2000/svg" xmlns:xlink="http://www.w3.org/1999/xlink" xml:space="preserve" xmlns:serif="http://www.serif.com/" style="fill-rule:evenodd;clip-rule:evenodd;">
    <g id="g6" transform="matrix(1,0,0,1,-48,-176.5)">
        <path id="path8" d="M408,564L405,564L406,563L410,563L412,562L416,562L420,561L430,559L436,558L443,557L450,555L459,553L468,550L479,546L491,542L503,537L518,530L533,522L550,512L568,500L588,486L609,469L631,449L654,425L676,399L699,370L719,338L737,305L751,272L760,242L763,216L758,196L744,183L722,179L693,183L658,193L618,208L489,256L449,269L412,279L378,287L347,293L320,296L297,298L277,299L261,299L247,298L236,297L228,296L223,295L218,295L219,295L225,298L231,300L237,303L244,306L251,310L275,322L283,327L291,331L298,335L305,340L312,344L318,349L324,353L334,361L342,369L351,381L353,385L355,388L357,392L358,395L360,398L361,402L361,405L363,411L363,434L362,436L362,441L361,444L360,446L360,448L359,451L355,459L353,461L351,465L349,466L345,470L343,471L341,473L338,474L336,475L333,477L330,478L326,479L322,479L314,481L298,481L286,479L279,478L263,474L254,471L234,463L224,457L212,451L200,444L176,426L163,415L150,403L137,389L125,375L114,360L104,344L95,328L89,313L85,299L85,286L87,276L93,268L102,262L114,260L130,260L147,262L167,267L188,273L210,280L231,287L253,295L273,302L293,310L311,316L328,323L343,329L357,334L369,339L380,344L390,348L399,352L406,356L413,359L418,363L423,366L431,372L437,378L440,380L442,383L444,385L446,388L448,390L449,392L460,403L462,404L465,405L467,406L470,407L472,408L475,409L492,409L495,408L499,407L504,406L508,405L512,403L517,401L521,399L526,397L531,394L535,391L540,387L544,384L549,380L553,376L556,372L560,368L563,363L569,351L569,341L567,338L565,336L562,334L559,333L555,332L539,332L533,334L527,335L521,337L514,339L508,341L502,344L496,346L484,352L469,361L461,367L449,379L443,388L442,391L441,393L441,396L440,399L440,401L441,403L441,406L445,414L447,416L449,417L451,419L453,420L456,421L458,422L461,423L465,424L468,425L480,425L485,424L489,423L494,422L500,421L505,419L517,415L523,412L529,408L536,404L542,400L548,395L555,390L561,385L567,379L577,367L582,360L588,348L590,342L591,336L591,331L590,327L588,323L584,320L580,318L574,316L560,316L552,317L534,321L507,330L497,334L489,337L480,341L472,345L451,357L445,361L440,365L435,368L427,376L423,379L421,383L418,386L416,390L412,396L410,402L410,406L409,408L409,417L410,420L410,422L411,425L412,427L413,430L415,434L417,436L418,438L422,442L425,444L427,446L430,447L433,449L439,451L447,453L472,453L478,452L484,450L491,449L499,447L506,444L514,440L532,432L550,420L570,406L579,397L589,388L598,378L606,367L614,357L620,346L625,335L629,325L631,315L631,307L629,300L624,294L618,290L609,287L599,287L586,288L573,290L559,293L543,297L513,307L483,319L469,324L456,330L444,335L433,340L413,350L405,355L391,363L385,368L375,376L371,379L365,387L359,393L357,397L353,403L352,406L350,409L349,412L347,415L346,417L344,420L343,423L341,425L340,428L336,432L335,434L331,438L328,440L326,442L323,444L321,445L318,447L314,448L311,449L303,451L278,451L272,450L266,448L259,447L252,444L244,442L228,434L219,430L201,418L191,411L182,403L172,395L163,386L154,376L146,366L139,356L133,345L128,335L125,325L123,316L124,308L126,301L130,295L137,292L145,289L156,289L167,290L181,292L195,295L209,299L254,314L268,320L281,325L294,331L306,336L317,341L327,346L336,351L344,355L351,360L363,368L373,376L377,380L380,384L383,387L386,391L390,397L392,401L396,407L397,410L399,413L400,416L401,418L403,421L404,424L405,426L407,429L408,431L410,434L411,436L419,444L422,446L424,447L427,449L430,450L433,452L436,453L444,455L448,455L452,456L463,456L468,455L474,455L480,454L487,452L495,450L502,447L510,444L519,441L537,431L546,425L566,411L586,393L596,383L605,372L613,361L620,350L626,339L631,328L634,318L634,308L633,300L629,294L624,289L616,286L605,284L594,285L580,287L565,290L550,294L518,304L503,309L487,315L459,327L446,332L434,338L423,343L414,348L405,352L397,357L383,365L378,370L373,373L362,384L359,388L356,391L354,395L346,407L345,410L343,412L341,415L340,418L338,420L337,423L333,427L331,430L325,436L322,437L320,439L317,441L311,443L299,446L275,446L269,445L262,443L256,441L249,439L241,436L234,433L225,429L217,424L208,419L200,413L182,399L173,391L157,373L150,364L143,354L138,344L133,335L131,326L130,318L130,310L133,304L138,300L144,296L152,294L162,294L173,295L185,297L198,300L212,303L226,308L239,312L253,317L266,323L279,328L290,333L302,338L312,343L321,348L330,352L337,357L344,361L350,366L356,370L361,374L365,378L369,381L375,389L377,392L380,396L381,399L385,405L386,409L387,412L389,415L390,418L391,420L394,429L395,431L396,434L397,436L398,439L399,441L401,443L402,445L403,448L407,452L408,454L410,455L412,457L415,459L417,461L423,463L426,465L429,466L437,468L441,468L445,469L456,469L461,468L468,468L474,466L481,465L489,463L497,460L506,457L515,453L525,449L535,443L546,437L568,421L579,412L591,401L602,390L613,378L623,365L632,351L640,338L646,325L650,312L651,300L650,291L646,282L640,277L631,273L619,272L604,272L588,275L571,279L553,284L534,290L515,297L496,303L479,310L462,316L446,323L431,329L418,334L406,340L395,345L385,349L377,354L369,358L362,362L357,366L351,369L347,373L343,376L333,386L327,395L325,397L323,400L321,402L319,405L309,415L306,417L304,418L301,420L299,421L293,423L289,424L286,425L269,425L254,422L248,420L243,418L237,416L231,413L224,410L212,402L205,397L199,392L192,387L186,381L181,375L175,369L171,363L167,356L163,350L161,344L159,332L160,328L162,324L165,320L169,318L175,316L181,315L188,315L196,316L223,322L232,325L242,329L251,332L269,340L285,348L299,356L305,359L320,371L324,375L328,378L331,382L333,385L336,389L338,392L339,395L341,398L342,402L342,405L343,408L343,422L342,424L341,427L339,431L338,434L336,436L335,438L329,444L327,445L321,449L315,451L311,452L308,453L304,454L284,454L272,452L265,451L251,447L243,444L235,440L226,436L217,431L208,425L198,419L188,412L178,404L159,385L150,375L142,364L128,342L123,331L120,321L119,312L120,304L123,297L128,292L135,288L145,286L156,286L169,287L183,290L197,294L213,298L228,303L244,309L259,314L274,320L287,326L300,331L312,337L323,342L333,347L342,351L350,356L357,360L364,365L370,369L375,373L379,377L383,380L386,384L389,387L392,391L394,394L397,397L398,401L402,407L403,410L405,412L407,415L408,418L409,420L411,423L413,425L414,428L424,438L427,440L429,442L432,443L435,445L438,446L442,447L445,448L449,449L474,449L480,448L486,446L493,445L500,442L508,440L516,436L524,433L532,428L541,423L550,417L559,410L569,403L587,385L595,376L603,366L610,356L616,346L621,336L624,326L626,317L625,310L623,303L619,298L613,294L604,292L594,291L583,291L570,293L557,296L543,300L528,305L514,310L499,315L486,320L473,326L460,331L448,336L428,346L419,351L411,356L397,364L382,376L378,380L375,384L372,387L369,391L367,394L365,398L361,404L360,407L358,410L356,416L354,419L353,422L352,424L351,427L349,430L347,434L345,437L344,439L332,451L329,452L327,454L324,455L320,457L317,458L313,459L309,459L305,460L300,460L295,461L290,460L284,460L272,458L265,456L257,454L241,448L232,444L223,439L213,434L203,428L193,420L182,412L172,403L161,394L151,383L142,372L133,360L125,348L119,336L114,324L112,313L111,303L113,295L117,288L124,284L133,281L144,280L157,281L172,283L204,291L255,309L271,315L286,321L300,327L313,332L326,338L337,343L347,348L356,352L364,357L371,361L377,365L392,377L402,387L404,390L407,394L411,400L413,402L414,405L418,411L420,413L421,416L427,422L429,425L431,426L434,428L436,430L439,432L448,435L452,436L455,437L459,438L473,438L478,437L484,437L490,435L496,434L502,432L523,423L531,419L539,414L546,409L562,397L578,383L585,375L591,367L597,358L602,350L606,342L609,334L610,327L610,320L608,314L605,309L600,306L594,304L586,302L577,302L567,303L556,305L545,308L533,311L509,319L497,324L486,329L475,333L464,338L455,343L446,347L438,352L430,356L424,360L418,365L412,369L407,373L403,377L399,380L393,388L391,391L389,395L385,401L384,405L380,417L380,420L379,423L379,426L378,429L378,470L379,472L379,477L380,479L380,482L381,484L381,487L382,489L382,490L383,491L383,493L384,494L385,496L385,497L386,498L387,500L390,503L392,504L393,505L395,506L396,507L402,510L408,512L411,512L414,513L418,513L421,514L436,514L448,512L462,510L471,508L489,502L500,498L511,493L524,487L537,480L551,472L566,462L582,450L599,436L615,421L632,403L649,384L664,363L679,341L691,319L700,297L706,277L708,259L704,244L696,234L682,228L664,227L641,230L615,236L587,245L557,255L527,266L497,276L469,286L418,303L395,310L375,316L357,321L341,325L328,328L316,331L306,334L297,336L290,339L284,340L279,342L273,346L271,347L269,349L268,351L268,358L275,372L276,373L276,375L277,377L277,379L278,381L278,389L276,391L275,393L272,396L270,396L266,398L254,398L252,397L249,397L243,395L239,394L236,392L233,391L230,389L226,387L220,383L217,380L214,378L206,370L202,364L200,358L199,356L199,351L200,349L203,346L207,344L210,344L213,343L217,344L220,344L224,345L229,346L237,348L241,350L246,351L258,357L262,360L265,362L269,364L272,366L277,371L280,373L282,376L284,378L285,380L287,382L288,385L288,387L289,389L289,396L287,400L285,402L283,403L281,405L279,406L277,406L275,407L272,407L269,408L263,408L260,407L256,407L244,404L240,402L236,401L232,399L227,396L223,394L218,391L214,388L210,384L206,381L198,373L189,361L187,357L186,353L185,350L185,343L186,340L190,336L193,335L201,333L206,333L216,335L228,337L240,341L246,344L252,346L258,349L263,352L269,355L274,357L278,360L283,363L286,366L290,369L299,378L303,384L304,386L306,389L307,392L307,394L308,397L308,401L307,404L307,406L305,410L300,415L298,416L296,418L287,421L284,421L281,422L269,422L265,421L260,421L255,420L245,416L233,412L227,409L221,405L215,402L209,398L191,383L186,377L181,372L176,366L172,360L166,348L164,342L164,332L165,328L171,322L175,320L187,318L194,319L210,321L219,323L227,326L245,332L253,335L262,339L270,343L277,346L291,354L303,362L308,365L313,369L324,380L326,383L329,386L331,390L333,393L336,402L336,405L337,408L337,414L336,416L336,419L335,421L334,424L332,428L330,431L329,433L325,437L323,438L320,440L318,442L312,444L304,446L301,447L296,447L292,448L287,448L282,447L276,447L264,445L250,441L243,438L235,434L227,431L218,426L210,421L201,415L183,401L174,393L165,384L157,375L150,365L143,356L137,346L133,336L130,327L128,318L129,311L131,304L135,299L141,295L149,293L170,293L183,295L196,298L224,306L252,316L265,321L278,327L290,332L312,342L330,352L338,356L345,361L357,369L362,373L370,381L374,384L377,388L379,391L381,395L383,398L385,402L387,405L388,408L390,411L393,420L394,422L396,428L398,430L399,433L400,435L401,438L403,440L404,442L405,445L411,451L413,452L417,456L420,458L423,459L429,462L432,463L436,464L440,464L444,465L465,465L472,464L478,463L486,461L493,459L501,456L519,448L539,438L550,431L560,424L582,406L604,384L614,372L632,346L638,334L643,321L646,310L647,299L645,290L640,283L633,278L623,276L611,275L596,276L581,279L564,283L546,289L528,294L510,301L492,307L475,314L459,320L431,332L418,337L407,342L397,347L388,352L379,356L372,360L360,368L355,372L351,376L347,379L344,382L341,386L338,389L334,395L332,397L328,403L326,405L324,408L323,410L321,413L317,417L314,419L312,421L310,422L307,424L304,425L301,427L295,429L291,429L288,430L270,430L265,429L259,428L254,426L248,424L241,422L235,420L228,416L222,413L215,409L201,399L180,381L168,367L163,360L159,352L156,345L153,339L152,332L152,327L153,322L156,317L160,314L165,312L172,310L179,310L197,312L207,314L217,317L228,320L238,323L268,335L277,340L286,344L302,352L309,356L315,361L321,365L326,369L330,372L338,380L341,384L344,387L346,391L350,397L351,401L354,410L354,430L353,432L352,435L352,437L351,439L350,442L348,444L346,448L344,450L343,452L339,456L336,458L334,459L331,461L329,462L326,463L322,465L319,466L315,466L311,467L306,468L296,468L290,467L284,467L278,466L271,464L255,460L247,457L238,453L228,449L208,437L197,430L186,422L174,413L152,391L141,379L131,367L122,353L114,340L108,327L103,314L101,303L102,293L105,285L111,278L120,274L132,273L145,273L161,275L178,279L196,284L214,290L233,296L251,303L269,309L286,316L302,322L317,328L330,334L342,339L353,344L363,349L372,353L380,357L386,362L392,365L398,369L402,373L406,376L416,386L418,389L421,392L423,395L425,397L429,403L431,405L432,407L434,410L440,416L443,417L445,419L448,421L450,422L453,423L457,424L463,426L467,426L471,427L475,427L480,426L485,426L495,424L500,422L512,418L524,412L531,409L538,405L544,400L551,395L557,390L564,384L570,378L575,372L580,365L585,359L588,352L591,346L593,339L594,334L594,328L590,320L586,317L581,315L574,314L559,314L551,316L542,318L532,320L523,323L513,326L503,330L476,342L468,346L447,358L441,362L436,366L431,369L420,380L417,384L414,387L412,391L410,394L409,397L408,401L405,410L405,418L406,421L406,424L407,426L407,429L408,431L409,434L411,436L412,438L414,440L415,442L421,448L424,449L426,451L429,452L432,454L436,455L439,456L443,457L448,457L452,458L462,458L480,455L487,454L495,451L503,449L511,446L519,442L528,437L538,432L548,426L558,419L568,411L588,393L598,383L607,372L615,360L623,349L629,337L633,326L636,316L637,306L635,298L631,291L625,287L616,284L606,283L593,283L579,285L564,289L548,293L532,298L516,304L500,309L484,315L469,321L455,327L442,332L431,338L420,343L410,348L401,353L393,357L386,361L380,366L374,370L369,373L358,384L355,388L353,391L350,394L348,397L346,401L344,404L343,406L339,412L338,415L336,417L334,420L333,422L329,426L327,429L325,431L322,432L320,434L317,436L314,437L311,439L305,441L297,443L278,443L273,442L267,441L260,440L254,438L247,435L240,433L216,421L208,416L199,410L191,403L182,396L166,380L152,362L146,353L141,344L137,335L135,327L134,319L135,312L138,307L142,302L149,299L156,298L166,297L176,298L188,300L200,303L213,306L226,310L252,320L265,324L277,329L299,339L317,349L325,353L333,358L345,366L351,371L355,375L359,378L363,382L366,386L369,389L371,393L373,396L375,400L377,403L378,406L380,409L383,418L383,421L386,430L386,432L387,435L388,437L389,440L389,442L390,445L392,449L393,452L397,460L399,462L400,464L402,465L404,467L405,469L408,470L410,472L412,473L415,475L424,478L432,480L441,480L446,481L451,480L457,480L463,479L470,478L494,472L504,468L513,464L524,459L546,447L559,439L571,429L584,419L597,407L609,394L622,380L633,366L644,350L653,334L660,319L665,304L667,291L665,280L661,271L653,264L642,261L628,260L611,261L592,265L550,277L528,285L507,292L486,300L466,307L447,314L430,321L414,327L400,332L387,337L375,342L365,347L356,351L349,355L342,358L336,362L326,368L322,371L316,377L313,379L311,382L309,384L307,387L301,393L300,395L294,401L292,402L290,404L286,406L283,407L281,408L278,409L275,409L272,410L265,410L261,409L258,409L250,407L245,406L241,404L236,402L232,400L227,398L222,395L218,392L213,389L209,385L204,382L200,378L196,373L193,369L189,365L187,361L184,356L182,348L182,342L183,339L185,336L188,334L191,333L199,331L204,331L222,334L228,336L235,338L241,340L247,343L254,345L260,348L265,351L271,354L281,360L285,363L290,366L293,369L297,372L300,375L302,378L305,381L307,384L310,393L311,395L312,398L312,403L311,405L311,407L309,411L307,413L306,415L304,417L302,418L300,420L298,421L289,424L285,425L269,425L265,424L260,423L254,422L249,421L243,419L237,416L231,414L225,410L219,407L212,403L206,398L199,393L193,388L181,376L176,370L171,363L167,357L164,351L161,344L160,339L159,333L160,328L161,324L164,321L168,318L174,316L180,315L187,315L203,317L212,319L222,322L231,325L241,328L250,331L268,339L284,347L298,355L310,363L315,367L320,370L324,374L327,378L330,381L333,385L336,388L338,391L339,395L341,398L342,401L342,404L343,407L343,410L344,413L344,416L343,419L343,421L342,424L342,426L341,429L340,431L338,433L337,436L335,438L334,440L330,444L327,445L325,447L322,448L319,450L313,452L305,454L300,454L296,455L291,455L285,454L280,454L274,453L267,452L253,448L245,445L237,441L219,433L210,427L200,421L190,414L181,406L161,388L152,377L144,367L136,356L129,345L124,334L121,323L119,314L119,305L122,298L126,292L133,288L142,286L153,286L165,287L179,289L194,292L209,297L225,302L240,307L256,313L270,319L284,324L298,330L310,335L321,340L341,350L349,355L356,359L363,364L369,368L374,372L378,376L382,379L389,386L392,390L394,393L397,397L399,400L400,403L404,409L405,412L407,414L408,417L410,420L411,422L413,425L414,427L416,429L418,432L424,438L427,439L429,441L432,443L438,445L442,446L445,447L449,448L454,449L468,449L486,446L500,442L507,439L515,436L523,432L532,428L541,423L550,417L568,403L577,395L586,386L594,376L602,367L609,357L615,347L620,337L623,327L625,318L625,310L623,304L618,298L612,294L604,292L595,291L583,292L571,294L558,297L544,300L529,305L487,320L474,326L461,331L439,341L429,346L420,351L412,355L405,360L393,368L383,376L379,380L376,384L373,387L370,391L368,394L366,398L362,404L361,407L359,410L356,419L354,422L353,424L351,430L350,432L348,435L347,437L345,439L344,441L342,444L338,448L336,449L332,453L329,454L326,456L320,458L316,460L313,460L308,461L304,462L289,462L283,461L276,460L270,459L262,457L255,455L246,452L238,448L229,444L219,439L209,433L199,426L188,419L178,410L167,401L157,390L146,379L137,367L121,343L115,331L111,319L109,308L110,299L112,291L117,285L125,281L135,279L148,278L162,280L177,283L194,287L211,292L262,310L278,317L293,323L307,328L320,334L332,339L343,344L361,354L369,358L387,370L395,378L399,381L402,385L408,391L418,406L419,408L421,411L423,413L425,416L435,426L438,428L440,429L443,431L446,432L450,433L453,434L457,435L461,435L465,436L474,436L479,435L485,434L490,433L496,432L503,430L509,427L523,421L531,417L538,413L546,408L553,402L561,396L568,389L576,382L582,375L589,367L599,351L603,343L605,335L607,328L607,322L605,316L602,312L598,308L592,306L584,305L576,305L556,307L545,310L533,313L522,317L510,321L488,329L477,334L467,338L458,343L449,347L441,352L427,360L422,365L416,369L411,373L400,384L398,388L395,391L393,395L391,398L390,401L388,405L387,408L387,411L385,417L385,423L384,426L384,439L385,441L385,446L386,448L386,451L387,453L387,455L389,459L389,461L394,471L402,479L404,480L406,482L408,483L420,487L428,489L432,489L436,490L447,490L459,488L466,487L474,486L482,484L500,478L510,473L521,468L533,462L545,455L558,447L571,437L585,427L599,414L613,400L626,385L639,369L651,352L661,335L670,317L675,301L678,286L677,273L673,262L664,255L652,251L637,251L618,253L597,257L551,271L527,280L503,288L480,296L459,304L438,311L420,318L403,324L387,330L374,335L362,339L351,343L342,347L334,351L327,354L321,357L311,363L308,365L304,368L295,377L294,379L292,381L291,383L289,385L287,389L285,390L284,392L282,393L279,396L275,398L273,398L269,400L256,400L252,399L249,399L243,397L239,395L236,394L228,390L225,388L221,386L218,383L214,381L205,372L197,360L196,357L196,349L198,345L200,344L202,342L205,342L208,341L216,341L220,342L225,343L229,344L234,345L239,347L243,349L248,350L252,353L257,355L265,359L269,362L272,364L276,367L279,369L284,374L286,377L288,379L290,382L293,388L293,398L291,402L287,406L281,409L278,410L275,410L272,411L262,411L259,410L255,409L251,409L246,407L242,406L237,404L233,402L228,399L223,397L218,394L214,390L209,387L204,383L196,375L192,370L189,366L186,361L183,357L182,353L180,349L180,341L181,338L183,336L185,333L197,330L208,330L214,331L220,333L227,334L233,336L240,339L247,341L271,353L286,362L290,366L298,372L304,378L310,387L311,390L313,392L313,395L314,398L314,405L313,408L313,410L312,412L310,414L309,416L307,418L305,419L303,421L301,422L298,424L292,426L289,426L286,427L269,427L259,425L253,424L248,422L242,420L236,417L229,414L223,411L216,407L210,403L203,398L196,392L190,387L184,381L178,374L172,368L168,361L163,354L160,348L158,341L157,335L156,330L157,325L160,321L163,318L168,315L174,314L181,313L188,313L197,314L206,316L215,319L225,321L235,325L245,328L254,332L264,336L273,340L289,348L303,356L315,364L320,368L324,372L328,375L332,379L335,383L338,386L340,390L342,393L343,396L345,399L346,403L347,406L347,409L348,412L348,420L347,423L347,426L346,428L345,431L343,435L342,438L341,440L333,448L331,449L329,451L326,453L317,456L305,459L284,459L272,457L265,455L257,453L250,451L241,447L233,443L223,439L214,434L194,420L183,412L173,404L153,384L143,372L135,361L127,349L121,337L116,326L113,315L112,305L114,297L118,290L124,285L133,282L144,281L156,282L171,284L186,287L203,292L219,297L236,303L252,308L268,314L283,320L311,332L323,337L334,342L344,347L353,352L361,357L368,361L380,369L385,373L389,377L393,380L396,384L402,390L404,394L412,406L414,408L415,411L417,414L419,416L421,419L422,421L428,427L431,429L433,431L436,433L438,434L441,436L445,437L448,438L452,439L456,439L460,440L474,440L479,439L491,437L497,435L504,433L518,427L534,419L550,409L558,402L566,396L574,388L582,381L589,372L595,364L601,355L606,346L610,338L612,330L613,323L612,316L610,311L606,306L601,303L593,301L585,300L575,301L564,302L553,305L540,308L528,311L516,316L503,320L491,325L480,330L469,334L458,339L449,344L440,348L432,353L425,357L418,362L412,366L402,374L391,385L389,389L386,393L382,399L381,403L379,406L376,415L376,418L374,424L374,427L373,429L373,435L372,437L372,440L371,442L371,447L370,450L370,454L369,456L369,458L368,460L368,463L367,465L367,466L366,468L366,470L363,476L362,477L360,481L359,482L358,484L356,485L355,487L351,489L349,491L345,493L342,494L340,495L337,496L333,497L330,497L326,498L306,498L299,497L293,496L285,495L278,493L269,491L260,488L250,484L239,480L215,468L202,460L188,451L174,440L159,428L144,414L129,399L115,382L101,364L88,345L78,326L70,307L64,290L63,274L65,261L71,251L82,245L97,242L115,243L137,247L161,254L186,262L213,270L239,280L264,289L288,297L311,305L331,312L350,318L383,329L396,334L408,338L418,341L427,345L435,348L441,350L447,353L452,355L455,358L459,360L461,362L464,364L465,366L467,368L472,378L472,379L474,383L474,384L475,385L476,387L479,390L481,391L483,393L485,393L487,394L489,394L491,395L498,395L500,394L503,394L505,393L517,389L520,387L523,386L525,384L534,378L536,375L540,371L542,368L544,366L545,363L547,359L547,353L546,351L545,350L541,348L539,348L536,347L531,347L527,348L524,348L516,350L513,351L509,353L505,354L502,356L498,358L492,362L488,364L486,366L480,370L474,376L469,386L469,393L470,394L470,396L471,397L473,398L474,399L476,400L477,401L479,402L482,402L484,403L492,403L495,402L498,402L502,401L505,400L509,399L512,398L528,390L532,387L535,384L539,382L542,378L546,375L552,369L554,365L556,362L558,358L559,355L559,352L560,349L557,343L554,341L552,340L549,339L532,339L527,340L522,342L517,343L502,349L497,352L487,356L479,362L475,364L469,370L466,372L461,377L457,383L455,387L454,390L453,392L453,399L454,400L457,406L460,409L466,412L472,414L475,414L478,415L485,415L489,414L493,414L497,413L502,412L506,410L521,404L526,401L532,398L537,394L542,391L547,387L552,382L557,378L569,363L572,358L574,354L576,349L577,344L577,340L576,337L575,333L569,329L565,327L560,326L555,326L549,327L542,327L536,329L528,330L521,333L514,335L506,338L492,344L486,347L479,350L473,354L468,357L462,360L458,364L453,367L449,370L446,374L437,383L435,386L434,389L432,392L431,395L431,398L430,401L430,409L432,413L433,416L435,420L439,424L441,425L443,427L446,428L448,430L451,431L455,432L458,433L466,433L470,434L475,433L480,433L490,431L496,430L502,428L509,426L515,423L522,420L536,412L544,407L551,402L558,396L566,389L573,383L579,375L585,368L591,360L596,353L599,345L602,338L604,331L604,325L603,319L600,315L596,311L584,307L567,307L557,309L546,311L536,314L525,317L513,321L502,325L492,329L482,334L472,338L463,343L454,347L446,351L439,356L432,360L426,364L416,372L405,383L402,387L400,390L398,394L396,397L394,401L391,410L391,413L390,416L390,435L391,438L391,440L392,443L393,445L393,447L394,450L397,456L399,458L401,462L403,464L405,465L409,469L411,470L414,472L416,473L422,475L426,476L429,477L433,478L438,478L442,479L453,479L459,478L473,476L480,474L488,472L506,466L516,461L527,456L538,450L549,443L561,435L574,426L586,415L599,403L623,377L634,362L644,347L653,331L659,316L663,302L664,290L662,279L657,271L649,265L637,262L623,262L606,264L587,268L566,273L524,287L503,295L483,302L445,316L413,328L400,334L387,339L376,344L366,348L350,356L343,360L338,363L333,367L328,370L325,373L321,376L311,386L309,389L307,391L306,393L304,395L302,398L300,399L294,405L290,407L287,408L285,409L276,412L262,412L250,409L245,408L241,406L231,402L211,390L207,386L202,382L193,373L190,369L186,364L183,359L181,355L180,351L179,346L178,343L179,339L180,336L182,334L185,332L189,330L193,329L204,329L222,332L229,334L236,337L243,339L250,342L256,345L263,348L269,351L274,354L280,357L285,360L289,364L294,367L297,370L301,373L307,379L313,388L316,397L316,407L311,417L305,423L302,424L300,425L294,427L290,428L287,429L270,429L265,428L259,427L254,425L248,424L242,421L236,419L229,416L223,412L209,404L202,399L195,393L189,388L176,375L161,354L155,340L154,334L154,329L155,324L157,319L161,316L166,313L172,312L179,311L187,312L196,313L205,315L215,317L225,320L236,323L256,331L283,343L291,348L299,352L305,356L312,360L318,364L323,368L327,372L331,375L335,379L338,383L341,386L343,390L345,393L347,397L351,409L351,415L352,418L351,421L351,426L350,429L350,431L349,434L347,438L346,441L344,443L343,445L341,447L340,449L336,453L333,454L331,456L328,458L319,461L307,464L292,464L286,463L279,462L273,461L266,460L258,457L250,455L232,447L223,442L213,437L202,430L192,423L181,415L159,395L149,384L139,372L130,360L121,347L115,334L110,322L107,311L106,301L108,292L113,285L120,280L129,277L141,276L155,277L171,280L187,284L205,289L223,295L240,301L258,307L274,314L290,320L305,326L318,332L331,337L342,342L352,347L361,352L377,360L383,365L388,368L398,376L408,386L410,389L413,392L421,404L423,406L424,409L428,413L430,416L436,422L439,424L441,425L444,427L453,430L461,432L478,432L483,431L489,431L494,429L500,428L506,425L513,423L519,420L533,412L541,408L548,403L569,385L576,378L582,371L588,363L593,356L597,348L600,341L602,334L602,322L600,317L596,314L591,311L585,309L578,308L569,308L560,309L550,311L540,314L518,320L507,324L497,328L486,332L476,337L467,341L459,346L450,350L436,358L430,362L415,374L411,378L408,382L405,385L403,389L400,392L399,396L397,399L396,402L395,406L393,412L393,415L392,418L392,429L393,432L393,434L394,437L394,439L395,441L396,444L399,450L400,453L401,455L403,457L404,459L406,460L410,464L412,465L415,467L417,468L420,470L426,472L434,474L438,474L443,475L453,475L459,474L465,474L472,472L479,471L487,469L495,466L504,463L514,459L524,454L535,449L546,442L557,434L569,426L581,416L593,405L605,393L617,379L628,366L638,351L646,337L653,322L657,309L659,296L658,285L654,277L647,270L637,267L624,266L608,267L591,270L572,275L552,280L492,301L473,308L455,315L423,327L409,333L397,338L386,343L376,348L367,352L359,356L352,360L346,364L341,367L336,371L332,374L323,383L321,386L318,388L316,391L314,393L312,396L311,398L301,408L299,409L296,411L294,412L291,413L288,415L285,415L279,417L268,417L264,416L259,416L255,415L250,414L235,408L229,405L224,402L218,399L213,395L207,391L202,387L197,382L192,378L187,373L183,367L179,362L176,357L172,347L171,342L171,338L172,334L176,328L180,326L190,324L202,324L209,325L217,327L224,329L232,331L248,337L262,343L269,347L276,350L282,354L288,357L293,361L298,364L303,368L307,371L310,375L314,378L316,381L319,384L321,388L322,391L324,394L325,397L325,400L326,402L326,410L325,413L325,415L324,418L323,420L321,422L320,424L314,430L311,431L309,433L303,435L299,436L296,437L292,437L288,438L278,438L268,436L256,434L250,432L229,423L221,419L214,415L206,409L198,404L190,398L168,376L161,368L155,359L150,351L146,343L144,335L142,328L142,321L143,315L146,310L151,307L157,304L165,303L173,303L183,304L194,305L205,308L217,311L241,319L253,324L264,328L275,333L285,337L295,342L304,347L312,351L320,356L326,360L333,364L343,372L351,380L354,384L357,387L360,391L362,394L364,398L365,401L367,404L368,408L370,414L370,417L371,420L371,423L372,425L372,439L373,441L373,444L372,446L372,462L371,464L371,468L370,470L370,473L369,475L369,477L368,479L368,480L366,484L366,485L365,487L364,488L363,490L361,492L360,494L359,495L357,496L356,498L348,502L345,503L343,504L340,504L336,505L333,506L325,506L320,507L315,506L303,506L296,505L289,503L281,502L273,499L253,493L242,488L230,483L218,476L204,468L190,459L175,448L159,435L143,421L127,405L112,387L97,368L83,348L71,327L61,306L55,287L53,269L54,255L61,244L72,237L88,234L107,235L131,240L156,247L184,256L240,276L267,285L293,294L318,302L340,309L360,316L378,321L394,326L408,330L420,334L431,337L440,340L448,343L454,345L464,349L473,355L474,357L476,359L476,361L477,363L477,364L478,366L478,370L477,372L477,383L478,384L478,386L479,387L479,388L482,391L484,392L485,393L486,393L488,394L501,394L503,393L506,393L512,391L514,389L520,387L526,383L528,381L534,377L538,373L540,370L544,366L545,363L546,361L546,359L547,357L546,355L546,353L545,352L544,350L542,349L540,349L538,348L526,348L523,349L519,350L516,351L512,352L509,354L505,355L501,357L498,358L495,360L491,362L489,364L483,368L475,376L474,378L472,380L471,382L471,384L470,386L470,393L472,395L473,397L475,399L479,401L481,401L483,402L496,402L500,401L506,399L510,398L513,397L529,389L532,386L536,383L539,380L543,377L549,371L551,368L554,364L556,361L558,355L558,347L557,345L553,341L550,340L547,340L543,339L539,339L535,340L531,340L526,341L521,343L516,344L496,352L491,355L487,357L483,360L479,362L475,365L472,368L469,370L464,375L462,378L460,380L458,383L457,385L456,388L455,390L455,400L457,404L460,407L462,408L464,410L468,412L471,412L474,413L477,413L480,414L483,414L487,413L491,413L499,411L504,410L509,408L513,406L523,402L533,396L539,392L544,388L548,384L558,376L562,371L565,366L569,361L571,357L575,347L575,340L574,336L572,333L570,331L566,329L562,328L557,327L552,327L546,328L532,330L518,334L504,340L497,342L490,346L472,355L467,359L457,365L453,369L449,372L443,378L441,381L438,384L437,387L435,390L432,399L432,407L433,409L433,411L434,414L435,416L437,418L438,420L440,422L442,423L444,425L447,426L449,428L455,430L459,431L462,431L466,432L475,432L480,431L485,431L490,430L508,424L515,422L521,418L528,415L535,411L542,406L550,401L564,389L577,376L583,369L588,361L593,354L597,347L601,333L601,327L600,322L598,317L594,313L589,311L583,309L567,309L557,310L547,312L537,315L526,318L516,322L505,325L495,330L475,338L466,342L458,347L450,351L436,359L430,363L420,371L412,379L409,383L406,386L403,390L401,393L400,397L398,400L395,409L395,412L394,415L394,429L395,432L395,434L396,437L397,439L397,442L399,446L401,448L402,451L403,453L405,455L406,457L408,458L412,462L415,463L417,465L420,466L423,468L426,469L430,470L433,471L437,471L442,472L458,472L470,470L477,469L493,465L501,462L510,458L520,454L530,449L541,443L552,436L564,427L575,418L587,408L599,397L621,371L631,357L640,343L647,329L652,316L655,303L655,292L653,283L647,276L639,271L627,268L613,268L597,271L580,274L561,280L541,286L522,292L502,299L483,306L466,313L449,319L433,325L419,331L406,337L394,342L384,347L375,351L359,359L353,363L348,367L343,370L339,374L335,377L326,386L324,389L322,391L318,397L314,401L312,404L306,410L304,411L302,413L299,414L297,416L285,420L277,420L274,421L269,420L265,420L260,419L256,418L251,417L245,415L240,413L234,411L229,408L223,405L205,393L199,388L194,383L188,378L183,372L179,367L171,355L169,350L167,344L166,339L166,335L167,330L169,327L172,324L176,322L181,321L187,320L194,320L201,321L209,322L217,324L225,327L234,329L242,332L251,336L259,339L267,343L274,346L288,354L294,357L299,361L305,365L309,368L313,372L317,375L320,379L323,382L325,386L328,389L329,392L331,395L333,401L333,415L332,418L332,420L331,422L329,425L327,429L321,435L318,436L316,438L313,439L310,441L307,442L299,444L276,444L264,442L250,438L236,432L220,424L212,419L194,407L186,400L177,393L169,384L161,376L154,367L147,357L137,339L134,330L133,322L133,314L135,308L138,303L144,299L151,297L160,296L170,296L194,300L207,303L221,307L273,327L306,342L315,347L324,351L332,356L339,360L345,364L350,369L360,377L364,380L370,388L373,391L375,395L379,401L380,405L382,408L387,423L388,425L388,428L389,431L390,433L391,436L392,438L393,441L394,443L395,446L398,452L400,454L401,456L403,458L404,460L408,464L410,465L412,467L415,468L418,470L427,473L435,475L444,475L449,476L455,475L461,475L467,474L474,473L481,471L489,469L498,466L507,462L517,458L527,453L538,447L549,440L561,432L573,423L585,413L598,401L610,389L632,361L641,346L649,332L655,317L659,304L660,292L658,282L653,274L645,268L634,265L620,265L603,267L585,271L566,276L545,282L485,303L466,310L449,317L432,323L417,329L404,335L392,340L381,345L371,349L355,357L343,365L338,368L330,374L327,378L324,380L321,383L319,386L314,391L312,394L310,396L309,398L307,400" style="fill:none;fill-rule:nonzero;stroke:rgb(160,174,218);stroke-width:1px;"/>
    </g>
</svg>
