<svg _ngcontent-psf-c141="" width="210px" height="11px" viewBox="0 0 210 11" version="1.1"
    xmlns="http://www.w3.org/2000/svg"
    xmlns:xlink="http://www.w3.org/1999/xlink">
    <title _ngcontent-psf-c141="">Group</title>
    <defs _ngcontent-psf-c141="">
        <path _ngcontent-psf-c141="" d="M3.68336667,0 C4.2052,0 4.68696667,0.0831460317 5.11503333,0.246749206 C5.54066667,0.408571429 5.91023333,0.642050794 6.21323333,0.939225397 C6.51463333,1.23461905 6.7527,1.59632698 6.92103333,2.0163873 C7.0902,2.43826349 7.17593333,2.91227619 7.17593333,3.4252254 C7.17593333,4.12300952 7.02523333,4.7367746 6.72706667,5.24885079 C6.43305,5.75671905 6.02664216,6.1534286 5.51697109,6.42968245 L5.49096667,6.4436254 L5.1511,6.6231873 L8,11 L6.33506667,11 L3.58716667,6.86902857 L1.53586667,6.86902857 L1.53586667,11 L0,11 L0,0 L3.68336667,0 Z M3.66813333,1.40971111 L1.53586667,1.40971111 L1.53586667,1.4132381 L0.875366667,1.4132381 L1.53586667,2.14286984 L1.53586667,5.45844444 L3.66813333,5.45844444 C4.26773333,5.45844444 4.7431,5.2691746 5.08136667,4.89506984 C5.41966667,4.521 5.59116667,4.02662857 5.59116667,3.4252254 C5.59116667,2.83534603 5.41966667,2.34715556 5.08056667,1.97395873 C4.7415,1.59985397 4.26613333,1.40971111 3.66813333,1.40971111 Z" id="path-1"></path>
        <path _ngcontent-psf-c141="" d="M5.83132698,0 C6.8091746,0 7.69451746,0.201815665 8.46280635,0.60115012 C9.1314276,0.947724766 9.71396047,1.42262683 10.2004857,2.01700638 L10.2255651,2.04785666 L9.06874921,2.97515684 C8.69855556,2.54770363 8.2786,2.20027544 7.81495873,1.93971289 C7.24487937,1.6221222 6.56647619,1.46203779 5.79727937,1.46203779 C5.19224444,1.46203779 4.63697143,1.56251594 4.14452063,1.75920973 C3.64515556,1.96016602 3.21119683,2.24458482 2.85500635,2.60476615 C2.49790794,2.96580684 2.21938095,3.40092568 2.02731746,3.89733515 C1.8378381,4.39037588 1.74267937,4.93020098 1.74267937,5.50158235 C1.74267937,6.08657622 1.84133016,6.6357857 2.03779365,7.13137017 C2.23334921,7.63118277 2.52060635,8.07228286 2.89167302,8.44098919 C3.26095873,8.80711738 3.70448571,9.09662369 4.21265079,9.30015811 C4.71728889,9.50451752 5.29176825,9.60839879 5.92040952,9.60839879 C6.65901587,9.60839879 7.31733968,9.47045189 7.87785079,9.19796121 C8.42749535,8.92783811 8.88534936,8.55833962 9.23983374,8.09750958 L9.25906667,8.07228286 L9.3271619,7.98369847 L9.3271619,6.61533257 L6.14215556,6.61533257 L6.14215556,5.28955731 L11,5.28955731 L11,8.19317976 C10.7677778,8.58062046 10.4822667,8.94506429 10.1504857,9.27716123 C9.80389841,9.62713317 9.40224127,9.93365511 8.95874921,10.1856927 C8.5151873,10.4360458 8.02364444,10.6370021 7.49718095,10.783474 C6.23734921,11.1308678 4.73387619,11.0576491 3.52027937,10.5825177 C2.81219365,10.3032208 2.19057143,9.91323636 1.67109206,9.42191438 C1.1516127,8.93313616 0.73864127,8.34731729 0.445273016,7.67972028 C0.149320635,7.0147014 0,6.28241063 0,5.50158235 C0,4.71989469 0.149320635,3.98588517 0.445273016,3.32000691 C0.737768254,2.65584741 1.15073968,2.06999416 1.67196508,1.57784719 C2.19057143,1.08738459 2.81219365,0.697365764 3.51940635,0.418928209 C4.23098413,0.141350028 5.00974921,0 5.83132698,0 Z" id="path-3"></path>
        <path _ngcontent-psf-c141="" d="M1.65267692,0 L1.65267692,6.56152267 C1.65267692,7.03179923 1.72426154,7.45350115 1.86573462,7.81709509 C2.00890385,8.18498427 2.21334231,8.49996865 2.47126154,8.75244504 C2.73001154,9.0084135 3.03968077,9.20107079 3.38988462,9.32601693 C4.07218846,9.57329014 4.93044231,9.57241712 5.60755385,9.32685502 C5.96031923,9.20019778 6.26998846,9.0075754 6.52787308,8.75419107 C6.78406154,8.50255278 6.98763462,8.18760332 7.1334,7.81793319 C7.27150467,7.46388257 7.34383395,7.05276091 7.34719991,6.59509345 L7.34732308,6.56152267 L7.34732308,0 L9,0 L9,6.38712888 C9,7.10296754 8.88355385,7.75720616 8.65412308,8.32815899 C8.42465769,8.89649277 8.10640385,9.38412491 7.70960769,9.7780649 C7.31367692,10.1711319 6.83844231,10.4757099 6.29761154,10.6848148 C5.20733077,11.1047707 3.79270385,11.1056437 2.69293846,10.6839418 C2.14608462,10.4757099 1.66818462,10.1711319 1.27228846,9.77893792 C0.876357692,9.38412491 0.562396154,8.89823881 0.338988462,8.33074312 C0.117943427,7.77188553 0.00417678957,7.13106009 0.000112893695,6.42634531 L0,6.38712888 L0,0 L1.65267692,0 Z" id="path-5"></path>
        <path _ngcontent-psf-c141="" d="M5.49087164,0 C6.25161194,0 6.97662687,0.140524999 7.64608358,0.418103123 C8.3147194,0.698293746 8.90287463,1.08831249 9.39478806,1.57880937 C9.88837612,2.06758749 10.2832597,2.65519374 10.5710985,3.32282498 C10.8556537,3.98959685 11,4.72278123 11,5.50195935 C11,6.28031247 10.8556537,7.01263746 10.5710985,7.67772496 C10.282406,8.34961871 9.88673433,8.9363312 9.39478806,9.42342495 C8.90369552,9.91309682 8.3147194,10.3031156 7.64690448,10.5832718 C6.30799104,11.1384968 4.67542687,11.1393218 3.33651343,10.5832718 C2.67119403,10.3047999 2.08553433,9.9147812 1.59690448,9.42428433 C1.10748657,8.93464683 0.715065672,8.34704058 0.429722388,7.67772496 C0.144346269,7.01604059 0,6.28371559 0,5.50195935 C0,4.71851873 0.144346269,3.98619373 0.429722388,3.32282498 C0.713423881,2.65773749 1.10912836,2.07102499 1.60357015,1.57880937 C2.0996209,1.08659374 2.6852806,0.695715621 3.34396716,0.418103123 C4.01010746,0.140524999 4.7326597,0 5.49087164,0 Z M3.96114925,1.76017187 C3.49576716,1.95858436 3.08433433,2.24217811 2.74005075,2.60239374 C2.39412537,2.96343436 2.12368955,3.39518436 1.93701791,3.88399685 C1.7503791,4.37023123 1.65581194,4.91438747 1.65581194,5.50195935 C1.65581194,6.08784684 1.7503791,6.63368747 1.93619701,7.12504371 C2.12283582,7.62152184 2.39412537,8.05327183 2.74172537,8.41008433 C3.08597612,8.7643187 3.4966209,9.04364995 3.96114925,9.24206245 C4.42403582,9.44047495 4.94504179,9.54095308 5.50827463,9.54095308 C6.04750448,9.54095308 6.55938209,9.44047495 7.02804776,9.24288745 C7.4984209,9.04533433 7.91152836,8.76517808 8.25994925,8.41008433 C8.60754925,8.04986871 8.88130149,7.61897809 9.07043582,7.12844684 C9.2629194,6.63368747 9.36080299,6.08698747 9.36080299,5.50195935 C9.36080299,4.91524685 9.2629194,4.36937185 9.07043582,3.8822781 C8.8804806,3.39690311 8.60837015,2.96687186 8.26080299,2.60239374 C7.91320299,2.24131874 7.49924179,1.95775936 7.02890149,1.75934687 C6.07488955,1.35568124 4.8637403,1.37187187 3.96114925,1.76017187 Z" id="path-7"></path>
        <path _ngcontent-psf-c141="" d="M3.59451933,0 C4.10375619,0 4.57313465,0.0831460317 4.99086649,0.246749206 C5.40547218,0.408571429 5.76686819,0.641177778 6.06258247,0.939225397 C6.35670112,1.23549206 6.58979471,1.59807302 6.75408042,2.0163873 C6.90660079,2.40639737 6.98898193,2.84290891 7,3.31527581 L7,3.53546571 C6.98898865,4.00890123 6.90665926,4.44260393 6.75486196,4.82522857 C6.58979471,5.23998095 6.35591958,5.60346984 6.06023786,5.90591746 C5.76217896,6.20927302 5.40231347,6.44806032 4.98848931,6.6152254 C4.57951942,6.78029762 4.12268556,6.86512644 3.62902068,6.86889703 L3.59451933,6.86902857 L3.47406485,6.86902857 L3.47406485,6.86815556 L0.908211808,6.86815556 L1.49882628,7.53496508 L1.49882628,11 L0,11 L0,0 L3.59451933,0 Z M3.57807447,1.40971111 L1.49882628,1.40971111 L1.49882628,5.47702222 L3.57807447,5.47702222 C4.16481382,5.47702222 4.62943792,5.28331746 4.95797678,4.90215873 C5.28814385,4.5254 5.45552315,4.0283746 5.45552315,3.4252254 C5.45552315,2.83356508 5.28732975,2.34450159 4.95719524,1.97395873 C4.62631177,1.59985397 4.16243664,1.40971111 3.57807447,1.40971111 Z" id="path-9"></path>
        <path _ngcontent-psf-c141="" d="M3.59282326,0 C4.36627442,0 5.02866977,0.186484855 5.56337209,0.554366115 C6.01366393,0.863259633 6.37780375,1.24336804 6.64830557,1.68665655 L6.66442326,1.71332961 L5.6759907,2.53167631 C5.44753023,2.22083384 5.19367442,1.96623938 4.91761395,1.77122793 C4.22506977,1.2850058 3.17712093,1.23559969 2.51713488,1.69459173 C2.27753953,1.86065402 1.99275349,2.18848092 1.99275349,2.80414911 C1.99275349,3.35342678 2.23391163,3.66169064 2.4346,3.82345525 C2.66178182,4.00654182 2.97680713,4.19777181 3.37526962,4.39473846 L3.40320465,4.4084896 L4.59395349,4.97134793 C5.38088372,5.35115954 5.99333488,5.77779866 6.41375814,6.24016008 C6.80803721,6.67278156 7,7.23478035 7,7.95861252 C7,8.42781584 6.91433953,8.85445496 6.74454884,9.22910936 C6.57716744,9.60125391 6.34313953,9.92227329 6.04884651,10.182025 C5.75533488,10.4434269 5.39993023,10.646965 4.99220465,10.7874819 C4.61983205,10.9158365 4.21324072,10.9872996 3.78114598,11 L3.49505503,11 C2.69529005,10.9772175 1.98418127,10.7653342 1.38033488,10.3693694 C0.823686688,10.0036411 0.366656644,9.53181939 0.0182375133,8.96281322 L0,8.93277584 L1.00034884,8.12549996 C1.09476744,8.25408649 1.19390698,8.37758458 1.29783256,8.49592544 C1.48106977,8.70541147 1.68813953,8.89615963 1.91184651,9.06222191 C2.14268372,9.23337265 2.40129302,9.37217047 2.68213953,9.47266738 C2.96611163,9.57484898 3.2889907,9.62679931 3.64042326,9.62679931 C4.17509302,9.62679931 4.60586977,9.49308995 4.92158605,9.23082843 C5.26032093,8.9489695 5.43167442,8.54959485 5.43167442,8.04460046 C5.43167442,7.45193344 5.17228372,7.12407216 4.95329767,6.95292142 C4.70796586,6.76125155 4.37674387,6.56464159 3.94256888,6.35358274 L3.91410698,6.33979745 L2.80110698,5.79309839 C2.44967442,5.62022858 2.11650698,5.42865528 1.81189302,5.22597677 C1.52232093,5.02842109 1.2732186,4.80958332 1.07412558,4.57623658 C0.876595349,4.34206469 0.71872093,4.08062832 0.605288372,3.79876939 C0.495795349,3.52285845 0.439502326,3.20524283 0.439502326,2.85523991 C0.439502326,2.42096812 0.520409302,2.02585677 0.679065116,1.68011715 C0.836939535,1.33523706 1.05586047,1.03292118 1.33113953,0.781730486 C1.60563721,0.533084012 1.93880465,0.338932099 2.32276279,0.206082268 C2.71306977,0.0698286764 3.14062326,0 3.59282326,0 Z" id="path-11"></path>
        <path _ngcontent-psf-c141="" d="M3.59243256,0 C4.3659814,0 5.02844186,0.186484857 5.56239535,0.55436612 C6.01275103,0.863259641 6.37695469,1.24336805 6.648993,1.68665656 L6.66520465,1.71332962 L5.67586047,2.53167633 C5.44736744,2.22169339 5.19347907,1.96709893 4.91657209,1.77208748 C4.22555814,1.28414628 3.17907442,1.23305548 2.5158,1.69459175 C2.27620465,1.86147919 1.99138605,2.18848094 1.99138605,2.80414914 C1.99138605,3.35342681 2.23257674,3.66251583 2.43411163,3.82345529 C2.6589389,4.00573545 2.97397289,4.19691428 3.3739868,4.39468128 L3.40203256,4.40848964 L4.59287907,4.97134797 C5.38072093,5.35115959 5.99242326,5.77779871 6.41369302,6.24016013 C6.80878605,6.67278162 7,7.23478042 7,7.95861259 C7,8.42781591 6.91430698,8.85528019 6.74533023,9.22828428 C6.57632093,9.60297307 6.34229302,9.92399245 6.04874884,10.1820251 C5.7536093,10.443427 5.39817209,10.6469651 4.99194419,10.787482 C4.61886722,10.9158363 4.21215528,10.9872993 3.78114612,11 L3.49515913,11 C2.69399828,10.9772144 1.98280545,10.7653313 1.37890233,10.3693694 C0.821256445,10.0035324 0.364798231,9.53153886 0.0178480002,8.96312226 L0,8.93363546 L0.998851163,8.12550003 C1.09326977,8.25408657 1.19325581,8.3784098 1.2971814,8.49592552 C1.47966977,8.70541155 1.68673953,8.89530017 1.91126047,9.06222199 C2.14372558,9.23509181 2.40236744,9.37303009 2.6816186,9.47266746 C2.96565581,9.57484906 3.28856744,9.6267994 3.64081395,9.6267994 C4.17476744,9.6267994 4.60557674,9.49309003 4.92135814,9.23082851 C5.26012558,8.94896957 5.43229302,8.54959493 5.43229302,8.04460053 C5.43229302,7.45193351 5.17205581,7.12407222 4.95306977,6.95292148 C4.70770609,6.76125161 4.37645223,6.56464165 3.94221485,6.3528092 L3.91374884,6.33897235 L2.80065116,5.79309844 C2.4444,5.61768441 2.1112,5.42693625 1.81130698,5.22511728 C1.52170233,5.02928067 1.2733814,4.81040851 1.07344186,4.57537708 C0.875097674,4.34206472 0.717223256,4.08062836 0.604572093,3.79876942 C0.49507907,3.52285848 0.438753488,3.20524286 0.438753488,2.85523994 C0.438753488,2.42010861 0.51887907,2.02499725 0.677567442,1.6809767 C0.8386,1.32928909 1.0520186,1.0354998 1.32892558,0.781730492 C1.60420465,0.533084017 1.9382186,0.338932102 2.32142791,0.20608227 C2.71176744,0.0689691414 3.1394186,0 3.59243256,0 Z" id="path-13"></path>
        <polygon _ngcontent-psf-c141="" id="path-15" points="7 0 7 1.46306916 1.06726667 1.46306916 1.69647692 2.0919699 1.69647692 5.08796279 6.92831282 5.08796279 6.92831282 6.55277831 1.69647692 6.55277831 1.69647692 11 0 11 0 0"></polygon>
        <path _ngcontent-psf-c141="" d="M3.68516288,0 C4.20635192,0 4.68823424,0.0831269448 5.11644073,0.246761288 C5.54218012,0.408614339 5.91180993,0.642138185 6.21492838,0.939334476 C6.51637988,1.23474948 6.7553207,1.59827269 6.922916,2.01663174 C7.09211157,2.43764527 7.17709275,2.91262145 7.17709275,3.42559853 C7.17709275,4.12348066 7.026367,4.73729282 6.72888285,5.25030482 C6.43556997,5.75734251 6.02829933,6.15407841 5.51848282,6.43041672 L5.49247163,6.44436401 L5.15251355,6.62389026 L8,11 L6.33538229,11 L3.58814631,6.87068648 L1.53629578,6.87068648 L1.53629578,11 L0,11 L0,0 L3.68516288,0 Z M3.66912681,1.4098749 L0.993469718,1.4098749 L1.53629578,2.00866832 L1.53629578,5.45990347 L3.66912681,5.45990347 C4.26889594,5.45990347 4.74437716,5.26975932 5.08273497,4.8964914 C5.42109277,4.52235029 5.59268875,4.02795453 5.59268875,3.42559853 C5.59268875,2.83564171 5.42109277,2.34742808 5.08273497,1.97506827 C4.74277689,1.60001905 4.26729566,1.4098749 3.66912681,1.4098749 Z" id="path-17"></path>
        <polygon _ngcontent-psf-c141="" id="path-19" points="7 0 7 1.46306916 1.65394634 1.46306916 1.65394634 4.75273068 7 4.75273068 7 6.21663809 3.8164 6.21663809 3.8164 6.21398362 0.98495122 6.21398362 1.65394634 6.89953642 1.65394634 9.5381533 6.98535122 9.5381533 6.98535122 11 0 11 0 0"></polygon>
        <path _ngcontent-psf-c141="" d="M3.68436275,0 C4.20635192,0 4.68826758,0.0831269448 5.11640739,0.246761288 C5.54218012,0.408614339 5.91180993,0.642138185 6.21492838,0.939334476 C6.51557974,1.23474948 6.7545539,1.59736458 6.922916,2.01663174 C7.09211157,2.43851845 7.17709275,2.91349463 7.17709275,3.42559853 C7.17709275,4.12348066 7.026367,4.73729282 6.72888285,5.25030482 C6.43478316,5.75734251 6.02749941,6.15407841 5.51844348,6.43041672 L5.49247163,6.44436401 L5.15251355,6.62389026 L8,11 L6.33538229,11 L3.58814631,6.87068648 L1.53629578,6.87068648 L1.53629578,11 L0,11 L0,0 L3.68436275,0 Z M3.66912681,1.4098749 L1.53629578,1.4098749 L1.53629578,1.41427574 L0.875582912,1.41427574 L1.53629578,2.14310345 L1.53629578,5.45990347 L3.66912681,5.45990347 C4.26889594,5.45990347 4.74437716,5.26975932 5.08273497,4.8964914 C5.42109277,4.52147711 5.59268875,4.02704642 5.59268875,3.42559853 C5.59268875,2.83564171 5.42109277,2.34742808 5.08193483,1.97506827 C4.74277689,1.60001905 4.26729566,1.4098749 3.66912681,1.4098749 Z" id="path-21"></path>
        <path _ngcontent-psf-c141="" d="M5.15917241,0 L10,11 L8.22489655,11 L7.29955172,8.73302222 L8.06313793,7.97217143 L3.01182759,7.97217143 L1.77510345,11 L0,11 L4.84086207,0 L5.15917241,0 Z M5.00175862,3.10158095 L3.59889655,6.53717778 L6.40372414,6.53717778 L5.00175862,3.10158095 Z" id="path-23"></path>
    </defs>
    <g _ngcontent-psf-c141="" id="Page-1" stroke="none" stroke-width="1" fill="none" fill-rule="evenodd">
        <g _ngcontent-psf-c141="" id="Desktop-HD" transform="translate(-197.000000, -151.000000)">
            <g _ngcontent-psf-c141="" id="Group" transform="translate(197.000000, 151.000000)">
                <g _ngcontent-psf-c141="" id="Group-3" transform="translate(147.000000, 0.000000)">
                    <mask _ngcontent-psf-c141="" id="mask-2" fill="white">
                        <use _ngcontent-psf-c141="" xlink:href="#path-1"></use>
                    </mask>
                    <g _ngcontent-psf-c141="" id="Clip-2"></g>
                    <polygon _ngcontent-psf-c141="" id="Fill-1" fill="#FFFFFF" mask="url(#mask-2)" points="-0.00266666667 11.0034921 8.00133333 11.0034921 8.00133333 -0.000698412698 -0.00266666667 -0.000698412698"></polygon>
                </g>
                <g _ngcontent-psf-c141="" id="Group-6" transform="translate(126.000000, 0.000000)">
                    <mask _ngcontent-psf-c141="" id="mask-4" fill="white">
                        <use _ngcontent-psf-c141="" xlink:href="#path-3"></use>
                    </mask>
                    <g _ngcontent-psf-c141="" id="Clip-5"></g>
                    <polygon _ngcontent-psf-c141="" id="Fill-4" fill="#FFFFFF" mask="url(#mask-4)" points="-0.0013968254 11.0006897 11.0027937 11.0006897 11.0027937 -0.000687500137 -0.0013968254 -0.000687500137"></polygon>
                </g>
                <g _ngcontent-psf-c141="" id="Group-9" transform="translate(183.000000, 0.000000)">
                    <mask _ngcontent-psf-c141="" id="mask-6" fill="white">
                        <use _ngcontent-psf-c141="" xlink:href="#path-5"></use>
                    </mask>
                    <g _ngcontent-psf-c141="" id="Clip-8"></g>
                    <polygon _ngcontent-psf-c141="" id="Fill-7" fill="#FFFFFF" mask="url(#mask-6)" points="-0.00138461538 11.0007071 9 11.0007071 9 -0.00349206626 -0.00138461538 -0.00349206626"></polygon>
                </g>
                <g _ngcontent-psf-c141="" id="Group-12" transform="translate(163.000000, 0.000000)">
                    <mask _ngcontent-psf-c141="" id="mask-8" fill="white">
                        <use _ngcontent-psf-c141="" xlink:href="#path-7"></use>
                    </mask>
                    <g _ngcontent-psf-c141="" id="Clip-11"></g>
                    <polygon _ngcontent-psf-c141="" id="Fill-10" fill="#FFFFFF" mask="url(#mask-8)" points="-0.00262686567 11.0006874 11.0026269 11.0006874 11.0026269 -0.000687499996 -0.00262686567 -0.000687499996"></polygon>
                </g>
                <g _ngcontent-psf-c141="" id="Group-15" transform="translate(203.000000, 0.000000)">
                    <mask _ngcontent-psf-c141="" id="mask-10" fill="white">
                        <use _ngcontent-psf-c141="" xlink:href="#path-9"></use>
                    </mask>
                    <g _ngcontent-psf-c141="" id="Clip-14"></g>
                    <polygon _ngcontent-psf-c141="" id="Fill-13" fill="#FFFFFF" mask="url(#mask-10)" points="-0.0026051253 11.0034921 6.99997168 11.0034921 6.99997168 -0.000698412698 -0.0026051253 -0.000698412698"></polygon>
                </g>
                <g _ngcontent-psf-c141="" id="Group-18" transform="translate(102.000000, 0.000000)">
                    <mask _ngcontent-psf-c141="" id="mask-12" fill="white">
                        <use _ngcontent-psf-c141="" xlink:href="#path-11"></use>
                    </mask>
                    <g _ngcontent-psf-c141="" id="Clip-17"></g>
                    <polygon _ngcontent-psf-c141="" id="Fill-16" fill="#FFFFFF" mask="url(#mask-12)" points="-0.00130232558 10.9999935 7 10.9999935 7 -0.00343814261 -0.00130232558 -0.00343814261"></polygon>
                </g>
                <g _ngcontent-psf-c141="" id="Group-21" transform="translate(51.000000, 0.000000)">
                    <mask _ngcontent-psf-c141="" id="mask-14" fill="white">
                        <use _ngcontent-psf-c141="" xlink:href="#path-13"></use>
                    </mask>
                    <g _ngcontent-psf-c141="" id="Clip-20"></g>
                    <polygon _ngcontent-psf-c141="" id="Fill-19" fill="#FFFFFF" mask="url(#mask-14)" points="0 10.9999936 7.00130233 10.9999936 7.00130233 -0.00343814264 0 -0.00343814264"></polygon>
                </g>
                <g _ngcontent-psf-c141="" id="Group-24">
                    <mask _ngcontent-psf-c141="" id="mask-16" fill="white">
                        <use _ngcontent-psf-c141="" xlink:href="#path-15"></use>
                    </mask>
                    <g _ngcontent-psf-c141="" id="Clip-23"></g>
                    <polygon _ngcontent-psf-c141="" id="Fill-22" fill="#FFFFFF" mask="url(#mask-16)" points="0 11 7 11 7 -0.00209563726 0 -0.00209563726"></polygon>
                </g>
                <g _ngcontent-psf-c141="" id="Group-27" transform="translate(16.000000, 0.000000)">
                    <mask _ngcontent-psf-c141="" id="mask-18" fill="white">
                        <use _ngcontent-psf-c141="" xlink:href="#path-17"></use>
                    </mask>
                    <g _ngcontent-psf-c141="" id="Clip-26"></g>
                    <polygon _ngcontent-psf-c141="" id="Fill-25" fill="#FFFFFF" mask="url(#mask-18)" points="0 11 8.0013669 11 8.0013669 -0.00209563726 0 -0.00209563726"></polygon>
                </g>
                <g _ngcontent-psf-c141="" id="Group-30" transform="translate(68.000000, 0.000000)">
                    <mask _ngcontent-psf-c141="" id="mask-20" fill="white">
                        <use _ngcontent-psf-c141="" xlink:href="#path-19"></use>
                    </mask>
                    <g _ngcontent-psf-c141="" id="Clip-29"></g>
                    <polygon _ngcontent-psf-c141="" id="Fill-28" fill="#FFFFFF" mask="url(#mask-20)" points="-0.00136585366 11 7.00136585 11 7.00136585 -0.00209563726 -0.00136585366 -0.00209563726"></polygon>
                </g>
                <g _ngcontent-psf-c141="" id="Group-33" transform="translate(85.000000, 0.000000)">
                    <mask _ngcontent-psf-c141="" id="mask-22" fill="white">
                        <use _ngcontent-psf-c141="" xlink:href="#path-21"></use>
                    </mask>
                    <g _ngcontent-psf-c141="" id="Clip-32"></g>
                    <polygon _ngcontent-psf-c141="" id="Fill-31" fill="#FFFFFF" mask="url(#mask-22)" points="-0.0026671223 11 8.00270046 11 8.00270046 -0.00209563726 -0.0026671223 -0.00209563726"></polygon>
                </g>
                <g _ngcontent-psf-c141="" id="Group-36" transform="translate(32.000000, 0.000000)">
                    <mask _ngcontent-psf-c141="" id="mask-24" fill="white">
                        <use _ngcontent-psf-c141="" xlink:href="#path-23"></use>
                    </mask>
                    <g _ngcontent-psf-c141="" id="Clip-35"></g>
                    <polygon _ngcontent-psf-c141="" id="Fill-34" fill="#FFFFFF" mask="url(#mask-24)" points="0 11.0006984 10.0013793 11.0006984 10.0013793 -0.00349206349 0 -0.00349206349"></polygon>
                </g>
            </g>
        </g>
    </g>
</svg>