<?xml version="1.0" encoding="UTF-8" standalone="no"?>
<!-- Created with Inkscape (http://www.inkscape.org/) -->

<svg
   width="840mm"
   height="490mm"
   viewBox="0 0 840 490"
   version="1.1"
   id="svg4903"
   inkscape:version="1.2 (dc2aedaf03, 2022-05-15)"
   sodipodi:docname="hacknotts_master_design_clipped.svg"
   xmlns:inkscape="http://www.inkscape.org/namespaces/inkscape"
   xmlns:sodipodi="http://sodipodi.sourceforge.net/DTD/sodipodi-0.dtd"
   xmlns="http://www.w3.org/2000/svg"
   xmlns:svg="http://www.w3.org/2000/svg">
  <sodipodi:namedview
     id="namedview4905"
     pagecolor="#ffffff"
     bordercolor="#000000"
     borderopacity="0.25"
     inkscape:showpageshadow="2"
     inkscape:pageopacity="0.0"
     inkscape:pagecheckerboard="0"
     inkscape:deskcolor="#d1d1d1"
     inkscape:document-units="mm"
     showgrid="false"
     inkscape:zoom="0.36976784"
     inkscape:cx="1926.8847"
     inkscape:cy="1073.6466"
     inkscape:window-width="2560"
     inkscape:window-height="1377"
     inkscape:window-x="1912"
     inkscape:window-y="-8"
     inkscape:window-maximized="1"
     inkscape:current-layer="layer1" />
  <defs
     id="defs4900">
    <clipPath
       clipPathUnits="userSpaceOnUse"
       id="clipPath4547">
      <rect
         style="fill:#000000;fill-opacity:0.321244"
         id="rect4549"
         width="12301.379"
         height="7198.9585"
         x="1424.6027"
         y="14585.433"
         ry="12.629752" />
    </clipPath>
  </defs>
  <g
     inkscape:label="Layer 1"
     inkscape:groupmode="layer"
     id="layer1">
    <g
       id="Neofetch"
       transform="matrix(0.06870431,0,0,0.06870431,-100.84614,-1004.3694)"
       clip-path="url(#clipPath4547)"
       style="clip-rule:evenodd;fill-rule:evenodd;stroke-linejoin:round;stroke-miterlimit:2">
            <rect
   x="22.688"
   y="13208.8"
   width="15281.9"
   height="9871.8203"
   style="fill:#1a1a1a"
   id="rect2" />

            <g
   transform="matrix(1.1408,0,0,1.58201,-95.1691,6089.89)"
   id="g92">
                <rect
   x="1902.62"
   y="6393.4502"
   width="168.649"
   height="31.924"
   style="fill:#1ebb4f;fill-rule:nonzero"
   id="rect4" />

                <rect
   x="2113.4299"
   y="6393.4502"
   width="168.649"
   height="31.924"
   style="fill:#1ebb4f;fill-rule:nonzero"
   id="rect6" />

                <rect
   x="2956.6799"
   y="6393.4502"
   width="168.649"
   height="31.924"
   style="fill:#1ebb4f;fill-rule:nonzero"
   id="rect8" />

                <rect
   x="3167.49"
   y="6393.4502"
   width="168.649"
   height="31.924"
   style="fill:#1ebb4f;fill-rule:nonzero"
   id="rect10" />

                <rect
   x="4010.73"
   y="6393.4502"
   width="168.649"
   height="31.924"
   style="fill:#1ebb4f;fill-rule:nonzero"
   id="rect12" />

                <rect
   x="4221.54"
   y="6393.4502"
   width="168.649"
   height="31.924"
   style="fill:#1ebb4f;fill-rule:nonzero"
   id="rect14" />

                <rect
   x="1749.4301"
   y="6507.9702"
   width="53.405998"
   height="253.36301"
   style="fill:#1ebb4f;fill-rule:nonzero"
   id="rect16" />

                <rect
   x="2381.8601"
   y="6507.9702"
   width="53.405998"
   height="253.36301"
   style="fill:#1ebb4f;fill-rule:nonzero"
   id="rect18" />

                <rect
   x="2535.05"
   y="6710.1499"
   width="168.649"
   height="31.924"
   style="fill:#1ebb4f;fill-rule:nonzero"
   id="rect20" />

                <rect
   x="2803.49"
   y="6507.9702"
   width="53.405998"
   height="253.36301"
   style="fill:#1ebb4f;fill-rule:nonzero"
   id="rect22" />

                <rect
   x="3435.9199"
   y="6507.9702"
   width="53.405998"
   height="253.36301"
   style="fill:#1ebb4f;fill-rule:nonzero"
   id="rect24" />

                <rect
   x="3589.1101"
   y="6710.1499"
   width="168.649"
   height="31.924"
   style="fill:#1ebb4f;fill-rule:nonzero"
   id="rect26" />

                <rect
   x="3857.54"
   y="6507.9702"
   width="53.405998"
   height="253.36301"
   style="fill:#1ebb4f;fill-rule:nonzero"
   id="rect28" />

                <rect
   x="4489.98"
   y="6507.9702"
   width="53.405998"
   height="253.36301"
   style="fill:#1ebb4f;fill-rule:nonzero"
   id="rect30" />

                <rect
   x="1749.4301"
   y="6824.6699"
   width="53.405998"
   height="253.36301"
   style="fill:#1ebb4f;fill-rule:nonzero"
   id="rect32" />

                <rect
   x="4489.98"
   y="6824.6699"
   width="53.405998"
   height="253.36301"
   style="fill:#1ebb4f;fill-rule:nonzero"
   id="rect34" />

                <path
   d="m 1757.86,7259.44 -13.35,-61.31 -2.11,-40.03 h 67.46 l -2.11,40.03 -13.35,61.31 z"
   style="fill:#1ebb4f;fill-rule:nonzero"
   id="path36" />

                <rect
   x="1904.02"
   y="7232.5898"
   width="165.838"
   height="30.403999"
   style="fill:#1ebb4f;fill-rule:nonzero"
   id="rect38" />

                <rect
   x="2114.8301"
   y="7232.5898"
   width="165.838"
   height="30.403999"
   style="fill:#1ebb4f;fill-rule:nonzero"
   id="rect40" />

                <rect
   x="2325.6499"
   y="7232.5898"
   width="165.838"
   height="30.403999"
   style="fill:#1ebb4f;fill-rule:nonzero"
   id="rect42" />

                <rect
   x="2536.46"
   y="7232.5898"
   width="165.838"
   height="30.403999"
   style="fill:#1ebb4f;fill-rule:nonzero"
   id="rect44" />

                <rect
   x="2747.27"
   y="7232.5898"
   width="165.838"
   height="30.403999"
   style="fill:#1ebb4f;fill-rule:nonzero"
   id="rect46" />

                <path
   d="m 3012.19,7386.63 -14.41,-24.83 c 15.93,-3.71 27.7,-8.53 35.31,-14.44 7.62,-5.91 11.19,-12.24 10.72,-19 H 3041 c -7.26,0 -14.11,-1.14 -20.55,-3.42 -6.45,-2.28 -11.66,-5.53 -15.64,-9.75 -3.98,-4.23 -5.97,-9.38 -5.97,-15.46 0,-8.45 4.27,-15.33 12.82,-20.65 8.55,-5.32 18.92,-7.98 31.1,-7.98 15.92,0 27.93,4.18 36.01,12.54 8.08,8.36 12.12,20.06 12.12,35.09 0,16.55 -6.56,30.66 -19.67,42.31 -13.12,11.66 -32.8,20.19 -59.03,25.59 z"
   style="fill:#1ebb4f;fill-rule:nonzero"
   id="path48" />

                <rect
   x="4489.98"
   y="7141.3799"
   width="53.405998"
   height="253.36301"
   style="fill:#1ebb4f;fill-rule:nonzero"
   id="rect50" />

                <rect
   x="3014.3"
   y="7458.0801"
   width="53.405998"
   height="253.36301"
   style="fill:#1ebb4f;fill-rule:nonzero"
   id="rect52" />

                <rect
   x="4489.98"
   y="7458.0801"
   width="53.405998"
   height="253.36301"
   style="fill:#1ebb4f;fill-rule:nonzero"
   id="rect54" />

                <path
   d="m 2325.65,8005.35 115.94,-220.43 h 49.89 l -115.94,220.43 z"
   style="fill:#1ebb4f;fill-rule:nonzero"
   id="path56" />

                <rect
   x="3014.3"
   y="7774.79"
   width="53.405998"
   height="253.36301"
   style="fill:#1ebb4f;fill-rule:nonzero"
   id="rect58" />

                <path
   d="m 3706.46,8005.35 -115.95,-220.43 h 49.9 l 115.94,220.43 z"
   style="fill:#1ebb4f;fill-rule:nonzero"
   id="path60" />

                <rect
   x="4489.98"
   y="7774.79"
   width="53.405998"
   height="253.36301"
   style="fill:#1ebb4f;fill-rule:nonzero"
   id="rect62" />

                <path
   d="m 2441.59,8322.05 -115.94,-220.43 h 49.89 l 115.94,220.43 z"
   style="fill:#1ebb4f;fill-rule:nonzero"
   id="path64" />

                <rect
   x="3014.3"
   y="8091.4902"
   width="53.405998"
   height="253.36301"
   style="fill:#1ebb4f;fill-rule:nonzero"
   id="rect66" />

                <path
   d="m 3590.51,8322.05 115.95,-220.43 h 49.89 l -115.94,220.43 z"
   style="fill:#1ebb4f;fill-rule:nonzero"
   id="path68" />

                <rect
   x="4489.98"
   y="8091.4902"
   width="53.405998"
   height="253.36301"
   style="fill:#1ebb4f;fill-rule:nonzero"
   id="rect70" />

                <rect
   x="3014.3"
   y="8408.1904"
   width="53.405998"
   height="253.36301"
   style="fill:#1ebb4f;fill-rule:nonzero"
   id="rect72" />

                <rect
   x="4489.98"
   y="8408.1904"
   width="53.405998"
   height="253.36301"
   style="fill:#1ebb4f;fill-rule:nonzero"
   id="rect74" />

                <path
   d="m 3022.73,8842.97 -13.35,-61.32 -2.11,-40.03 h 67.46 l -2.11,40.03 -13.35,61.32 z"
   style="fill:#1ebb4f;fill-rule:nonzero"
   id="path76" />

                <rect
   x="3168.8899"
   y="8816.1104"
   width="165.838"
   height="30.403999"
   style="fill:#1ebb4f;fill-rule:nonzero"
   id="rect78" />

                <rect
   x="3379.7"
   y="8816.1104"
   width="165.838"
   height="30.403999"
   style="fill:#1ebb4f;fill-rule:nonzero"
   id="rect80" />

                <rect
   x="3590.51"
   y="8816.1104"
   width="165.838"
   height="30.403999"
   style="fill:#1ebb4f;fill-rule:nonzero"
   id="rect82" />

                <rect
   x="3801.3301"
   y="8816.1104"
   width="165.838"
   height="30.403999"
   style="fill:#1ebb4f;fill-rule:nonzero"
   id="rect84" />

                <rect
   x="4012.1399"
   y="8816.1104"
   width="165.838"
   height="30.403999"
   style="fill:#1ebb4f;fill-rule:nonzero"
   id="rect86" />

                <rect
   x="4222.9502"
   y="8816.1104"
   width="165.838"
   height="30.403999"
   style="fill:#1ebb4f;fill-rule:nonzero"
   id="rect88" />

                <path
   d="m 4498.41,8842.97 -13.35,-61.32 -2.11,-40.03 h 67.46 l -2.11,40.03 -13.35,61.32 z"
   style="fill:#1ebb4f;fill-rule:nonzero"
   id="path90" />

            </g>

            <g
   transform="translate(43.6085,650.682)"
   id="g132">
                <text
   x="7095.9702"
   y="14606.3"
   style="font-weight:700;font-size:391.667px;font-family:Hasklig-Bold, Hasklig, monospace;fill:#1ebb4f"
   id="text94">HackNotts</text>

                <text
   x="9445.9697"
   y="14606.3"
   style="font-weight:700;font-size:391.667px;font-family:Hasklig-Bold, Hasklig, monospace;fill:#bb1937"
   id="text96">'23</text>

                <text
   x="7095.9702"
   y="15156.3"
   style="font-weight:700;font-size:391.667px;font-family:Hasklig-Bold, Hasklig, monospace;fill:#a0a0a0"
   id="text98">-------------</text>

                <text
   x="7095.9702"
   y="15706.3"
   style="font-weight:700;font-size:391.667px;font-family:Hasklig-Bold, Hasklig, monospace;fill:#1dbb9f"
   id="text100">Date:</text>

                <text
   x="8505.9697"
   y="15706.3"
   style="font-size:391.667px;font-family:Hasklig-Regular, Hasklig, monospace;fill:#a0a0a0"
   id="text102">11-12 Feb 2023</text>

                <text
   x="7095.9702"
   y="16256.3"
   style="font-weight:700;font-size:391.667px;font-family:Hasklig-Bold, Hasklig, monospace;fill:#1dbb9f"
   id="text104">Start:</text>

                <text
   x="8740.9697"
   y="16256.3"
   style="font-size:391.667px;font-family:Hasklig-Regular, Hasklig, monospace;fill:#a0a0a0"
   id="text106">10a</text>

                <text
   x="9445.9697"
   y="16256.3"
   style="font-size:391.667px;font-family:Hasklig-Regular, Hasklig, monospace;fill:#a0a0a0"
   id="text108">m</text>

                <text
   x="9669.2197"
   y="16256.3"
   style="font-size:391.667px;font-family:Hasklig-Regular, Hasklig, monospace;fill:#a0a0a0"
   id="text110">, 11 Feb</text>

                <text
   x="7095.9702"
   y="16806.301"
   style="font-weight:700;font-size:391.667px;font-family:Hasklig-Bold, Hasklig, monospace;fill:#1dbb9f"
   id="text112">Finish:</text>

                <text
   x="8975.9697"
   y="16806.301"
   style="font-size:391.667px;font-family:Hasklig-Regular, Hasklig, monospace;fill:#a0a0a0"
   id="text114">3pm, 12 Feb</text>

                <text
   x="7095.9702"
   y="17356.301"
   style="font-weight:700;font-size:391.667px;font-family:Hasklig-Bold, Hasklig, monospace;fill:#1dbb9f"
   id="text116">Location:</text>

                <text
   x="9445.9697"
   y="17356.301"
   style="font-size:391.667px;font-family:Hasklig-Regular, Hasklig, monospace;fill:#a0a0a0"
   id="text118">University of</text>

                <text
   x="9445.9697"
   y="17906.301"
   style="font-size:391.667px;font-family:Hasklig-Regular, Hasklig, monospace;fill:#a0a0a0"
   id="text120">Nottingham</text>

                <text
   x="7095.9702"
   y="18456.301"
   style="font-weight:700;font-size:391.667px;font-family:Hasklig-Bold, Hasklig, monospace;fill:#1dbb9f"
   id="text122">Host:</text>

                <text
   x="8505.9697"
   y="18456.301"
   style="font-size:391.667px;font-family:Hasklig-Regular, Hasklig, monospace;fill:#a0a0a0"
   id="text124">HackSoc</text>

                <text
   x="7095.9702"
   y="19006.301"
   style="font-weight:700;font-size:391.667px;font-family:Hasklig-Bold, Hasklig, monospace;fill:#1dbb9f"
   id="text126">Uptime:</text>

                <text
   x="8975.9697"
   y="19006.301"
   style="font-size:391.667px;font-family:Hasklig-Regular, Hasklig, monospace;fill:#a0a0a0"
   id="text128">9</text>

                <text
   x="9445.9697"
   y="19006.301"
   style="font-size:391.667px;font-family:Hasklig-Regular, Hasklig, monospace;fill:#a0a0a0"
   id="text130">years</text>

            </g>

            <g
   transform="translate(42.921,448.163)"
   id="g154">
                <g
   transform="translate(0.687547,0.838608)"
   id="g136">
                    <rect
   x="7095.9702"
   y="20613.199"
   width="773.612"
   height="524.62299"
   style="fill:#bb1937"
   id="rect134" />

                </g>

                <g
   transform="translate(774.3,0.838608)"
   id="g140">
                    <rect
   x="7095.9702"
   y="20613.199"
   width="773.612"
   height="524.62299"
   style="fill:#bb1787"
   id="rect138" />

                </g>

                <g
   transform="translate(1544.91,0.838608)"
   id="g144">
                    <rect
   x="7095.9702"
   y="20613.199"
   width="773.612"
   height="524.62299"
   style="fill:#1dbb9f"
   id="rect142" />

                </g>

                <g
   transform="translate(2317.52,0.838608)"
   id="g148">
                    <rect
   x="7095.9702"
   y="20613.199"
   width="773.612"
   height="524.62299"
   style="fill:#1ebb4f"
   id="rect146" />

                </g>

                <g
   transform="translate(3088.14,0.838608)"
   id="g152">
                    <rect
   x="7095.9702"
   y="20613.199"
   width="773.612"
   height="524.62299"
   style="fill:#a0a0a0"
   id="rect150" />

                </g>

            </g>

        </g>
  </g>
</svg>
