<?xml version="1.0" standalone="no"?>
<!DOCTYPE svg PUBLIC "-//W3C//DTD SVG 20010904//EN"
 "http://www.w3.org/TR/2001/REC-SVG-20010904/DTD/svg10.dtd">
<svg version="1.0" xmlns="http://www.w3.org/2000/svg"
 width="2519.000000pt" height="2519.000000pt" viewBox="0 0 2519.000000 2519.000000"
 preserveAspectRatio="xMidYMid meet">
<metadata>
Created by potrace 1.14, written by Peter Selinger 2001-2017
</metadata>
<g transform="translate(0.000000,2519.000000) scale(0.100000,-0.100000)"
fill="#000000" stroke="none">
<path d="M2540 25174 c-50 -22 -89 -62 -100 -106 -7 -24 -9 -262 -5 -685 3
-356 7 -938 10 -1293 3 -355 7 -933 10 -1285 3 -352 7 -935 10 -1295 3 -360 7
-936 10 -1280 7 -776 13 -1506 20 -2425 9 -1163 14 -1447 26 -1485 18 -55 58
-101 108 -123 54 -24 14 -22 931 -32 360 -4 781 -8 935 -10 154 -2 528 -6 830
-9 303 -4 721 -8 930 -11 392 -5 1148 -13 1805 -20 206 -2 600 -7 875 -10 275
-3 669 -8 875 -10 1015 -11 1571 -17 1830 -20 157 -2 313 -4 346 -4 l62 -1 -1
-7362 -2 -7363 22 -71 c37 -118 114 -195 238 -240 48 -17 272 -18 5060 -19
5199 -1 5063 -2 5155 38 91 40 176 154 199 267 15 74 9 24743 -6 24780 -6 14
-20 33 -31 43 -53 48 51 46 -2395 47 -2580 0 -2344 7 -2393 -76 -26 -45 -35
-104 -59 -409 -3 -27 -6 -75 -9 -105 -3 -30 -8 -91 -11 -135 -4 -44 -8 -96
-10 -115 -8 -78 -15 -159 -20 -230 -3 -41 -8 -91 -10 -110 -2 -19 -7 -69 -10
-110 -3 -41 -8 -97 -10 -125 -3 -27 -7 -79 -10 -115 -3 -36 -7 -87 -10 -115
-3 -27 -7 -79 -10 -115 -10 -127 -20 -237 -30 -340 -2 -19 -6 -73 -9 -120 -6
-81 -11 -130 -21 -230 -3 -25 -8 -79 -10 -120 -3 -41 -7 -93 -9 -115 -2 -22
-7 -76 -11 -120 -3 -44 -8 -96 -10 -115 -2 -19 -7 -71 -10 -115 -3 -44 -8 -98
-10 -120 -2 -22 -7 -74 -10 -115 -3 -41 -8 -95 -10 -120 -3 -25 -7 -72 -10
-105 -5 -64 -13 -161 -20 -235 -2 -25 -6 -79 -10 -120 -3 -41 -8 -91 -10 -110
-3 -19 -7 -73 -10 -120 -4 -47 -8 -101 -10 -120 -2 -19 -7 -71 -10 -115 -3
-44 -7 -96 -10 -115 -2 -19 -7 -69 -10 -110 -7 -83 -11 -128 -21 -240 -4 -41
-7 -90 -8 -107 -1 -28 -5 -33 -26 -34 -14 0 -620 -1 -1348 -2 l-1322 -2 -1 25
c-1 14 -2 39 -4 55 -1 17 -6 95 -10 175 -4 80 -8 165 -10 190 -2 25 -6 99 -9
165 -4 66 -8 152 -11 190 -2 39 -7 122 -10 185 -3 63 -8 142 -10 175 -2 33 -7
114 -10 180 -3 66 -7 147 -10 180 -3 33 -7 112 -10 175 -3 63 -8 147 -10 185
-2 39 -7 120 -10 180 -3 61 -7 146 -10 190 -10 170 -15 254 -20 355 -3 58 -7
137 -10 175 -2 39 -6 124 -10 190 -3 66 -8 147 -10 180 -2 33 -7 110 -10 170
-3 61 -8 148 -11 195 -3 47 -7 123 -9 170 -8 162 -16 305 -20 360 -3 30 -7
111 -10 180 -3 69 -8 152 -10 185 -2 33 -7 112 -11 175 -11 204 -12 215 -25
245 -18 40 -56 73 -99 86 -24 7 -618 9 -1832 7 l-1797 -3 -35 -34 c-43 -42
-54 -85 -61 -251 -4 -69 -8 -150 -10 -180 -2 -30 -7 -113 -10 -185 -3 -71 -8
-159 -10 -195 -3 -36 -7 -112 -10 -170 -3 -58 -8 -139 -10 -180 -2 -41 -7
-124 -10 -185 -3 -60 -7 -139 -10 -175 -2 -36 -7 -123 -11 -195 -3 -71 -7
-155 -9 -185 -2 -30 -6 -113 -10 -185 -3 -71 -8 -155 -10 -185 -2 -30 -7 -111
-10 -180 -3 -69 -8 -150 -10 -180 -2 -30 -7 -113 -10 -185 -3 -71 -8 -157 -10
-190 -2 -33 -7 -112 -10 -175 -13 -254 -23 -438 -30 -555 -2 -38 -7 -119 -10
-180 -3 -60 -7 -146 -10 -190 -3 -44 -7 -127 -10 -185 -4 -58 -8 -134 -10
-170 -2 -36 -7 -130 -11 -210 -3 -80 -7 -157 -8 -172 -1 -15 -5 -30 -9 -34
-12 -12 -2737 -11 -2738 1 0 6 -2 21 -4 35 -1 14 -6 77 -10 140 -3 63 -8 124
-10 135 -2 11 -7 63 -10 115 -4 52 -8 120 -10 150 -22 289 -23 301 -30 385 -4
39 -8 97 -10 130 -8 112 -15 210 -20 255 -2 25 -7 86 -10 135 -3 50 -8 113
-10 140 -3 28 -7 84 -10 125 -3 41 -8 100 -10 130 -3 30 -7 91 -10 135 -4 44
-8 101 -11 127 -2 25 -6 84 -9 130 -3 45 -7 106 -10 133 -4 49 -8 94 -20 260
-3 44 -8 103 -10 130 -2 28 -7 86 -10 130 -3 44 -8 103 -10 130 -2 28 -7 86
-10 130 -4 44 -8 104 -11 134 -2 30 -6 93 -9 140 -3 47 -8 102 -10 121 -2 19
-7 80 -10 135 -3 55 -8 116 -10 135 -3 19 -7 73 -10 120 -3 47 -7 105 -10 130
-2 25 -7 83 -10 130 -4 47 -8 105 -10 130 -2 25 -7 81 -10 125 -5 79 -11 146
-21 255 -8 92 -36 135 -107 165 -33 13 -285 15 -2324 15 -2019 -1 -2292 -3
-2323 -16z m13042 -12969 c103 -26 166 -66 334 -211 56 -49 182 -156 233 -199
13 -11 29 -24 35 -30 6 -5 40 -35 76 -65 36 -30 67 -57 70 -60 3 -4 70 -61
150 -129 208 -176 249 -211 301 -256 25 -22 57 -49 70 -60 36 -30 520 -443
549 -468 14 -13 52 -45 85 -72 32 -28 66 -57 75 -65 9 -8 40 -35 70 -60 70
-59 418 -355 450 -383 14 -12 57 -49 95 -82 39 -33 72 -62 75 -65 3 -3 32 -27
65 -55 33 -27 62 -52 65 -55 3 -3 32 -28 65 -55 33 -28 62 -52 65 -55 3 -3 32
-28 65 -55 33 -28 69 -58 80 -68 11 -10 72 -62 135 -115 63 -53 122 -103 130
-112 8 -8 58 -51 110 -95 52 -44 97 -82 100 -85 3 -3 48 -41 100 -85 52 -44
108 -93 123 -109 70 -71 142 -225 162 -346 3 -19 7 -42 10 -50 19 -73 25 -394
16 -876 -3 -180 -12 -230 -51 -309 -35 -71 -75 -116 -148 -168 -47 -33 -188
-147 -332 -267 -25 -21 -148 -122 -275 -225 -126 -103 -250 -204 -274 -224
-24 -20 -52 -43 -62 -51 -9 -8 -34 -28 -55 -45 -20 -16 -67 -55 -104 -85 -36
-30 -86 -71 -110 -90 -69 -56 -623 -509 -645 -528 -11 -9 -56 -46 -100 -82
-44 -35 -85 -69 -91 -75 -6 -5 -29 -23 -50 -40 -21 -16 -57 -46 -79 -65 -23
-19 -55 -46 -72 -60 -130 -105 -548 -447 -678 -555 -22 -18 -121 -99 -220
-180 -99 -80 -200 -163 -224 -183 -24 -20 -54 -44 -65 -52 -12 -8 -34 -27 -51
-43 -56 -54 -167 -120 -243 -144 -100 -33 -204 -37 -301 -12 -157 40 -269 139
-324 287 -20 54 -22 80 -27 477 -3 231 -5 526 -5 655 1 230 1 237 28 313 15
43 49 111 76 151 59 86 192 225 316 327 50 41 92 76 95 79 3 3 28 23 55 45 98
78 181 149 275 234 52 47 126 115 165 150 38 35 88 81 110 101 22 20 141 128
265 240 124 112 230 209 236 215 6 5 46 42 89 80 43 39 88 79 100 90 34 32
222 203 334 304 14 13 70 64 125 114 l98 91 -39 36 c-21 19 -81 73 -132 120
-51 46 -103 93 -115 105 -12 11 -67 61 -121 110 -55 50 -112 102 -128 117 -16
15 -63 58 -105 95 -42 37 -85 77 -97 88 -11 11 -67 63 -125 115 -57 52 -111
102 -120 110 -9 8 -59 53 -110 100 -52 47 -105 96 -119 108 -84 77 -122 111
-171 156 -53 49 -205 187 -252 228 -13 11 -88 73 -168 137 -181 145 -194 156
-305 266 -149 147 -223 265 -249 392 -16 83 -19 128 -17 263 1 58 4 305 7 550
5 487 11 544 63 635 109 190 334 278 563 220z"/>
<path d="M9690 12781 c-133 -36 -160 -54 -440 -296 -25 -22 -68 -59 -95 -82
-28 -23 -60 -50 -71 -60 -48 -41 -136 -116 -249 -212 -66 -57 -134 -115 -150
-129 -17 -15 -55 -47 -85 -72 -30 -25 -57 -47 -60 -50 -3 -3 -34 -30 -70 -60
-35 -30 -99 -84 -140 -120 -42 -36 -100 -86 -130 -111 -30 -26 -109 -93 -176
-150 -66 -57 -145 -124 -174 -149 -30 -25 -72 -61 -94 -80 -73 -62 -87 -75
-351 -300 -143 -122 -269 -229 -280 -238 -25 -21 -229 -195 -270 -231 -16 -14
-91 -78 -165 -141 -74 -63 -140 -119 -146 -125 -7 -5 -34 -29 -60 -51 -403
-341 -556 -474 -592 -513 -51 -55 -102 -159 -130 -261 -41 -154 -47 -230 -46
-555 2 -494 6 -597 24 -668 27 -102 87 -185 180 -247 19 -13 49 -35 66 -49 38
-32 81 -67 205 -168 101 -82 745 -610 766 -628 7 -5 18 -14 25 -20 25 -19 123
-100 128 -105 3 -3 52 -43 110 -90 58 -47 114 -92 125 -102 11 -9 90 -73 175
-143 85 -70 164 -134 175 -143 11 -9 45 -37 75 -62 30 -25 57 -47 60 -50 4 -4
59 -48 124 -100 10 -8 33 -27 50 -41 17 -15 198 -162 401 -328 204 -167 380
-311 391 -321 12 -9 84 -68 160 -131 260 -212 469 -383 474 -389 35 -40 176
-117 245 -134 61 -16 71 -17 145 -17 141 0 251 43 345 136 67 66 106 138 123
225 14 71 24 1227 12 1295 -28 149 -90 256 -238 406 -93 96 -133 130 -342 299
-58 46 -120 98 -139 115 -19 16 -39 35 -45 40 -6 6 -36 33 -66 60 -31 28 -98
88 -149 135 -52 47 -106 96 -121 110 -45 41 -185 168 -207 187 -11 10 -63 57
-115 106 -53 48 -106 97 -119 108 -13 11 -64 57 -114 103 -49 45 -110 100
-134 122 -25 21 -54 48 -66 59 -11 11 -65 61 -119 110 -122 111 -102 93 -221
200 -55 50 -115 104 -133 121 l-33 30 93 85 c51 46 102 93 114 104 26 25 200
184 228 208 24 22 200 183 231 212 12 11 62 56 110 100 49 44 96 87 105 95 9
8 58 53 110 100 51 47 105 96 120 110 84 77 215 197 232 212 19 16 157 142
233 212 22 21 130 110 239 199 313 254 460 414 516 564 31 82 46 206 43 341
-2 65 -5 317 -8 562 -4 355 -9 459 -21 514 -47 203 -224 342 -448 351 -55 2
-102 -3 -146 -14z"/>
</g>
</svg>
