<?xml version="1.0" encoding="UTF-8" standalone="no"?>
<!-- Created with Inkscape (http://www.inkscape.org/) -->

<svg
   version="1.1"
   id="svg48"
   width="321.20401"
   height="398.35599"
   viewBox="0 0 321.20401 398.35599"
   sodipodi:docname="hackntts.ai"
   xmlns:inkscape="http://www.inkscape.org/namespaces/inkscape"
   xmlns:sodipodi="http://sodipodi.sourceforge.net/DTD/sodipodi-0.dtd"
   xmlns="http://www.w3.org/2000/svg"
   xmlns:svg="http://www.w3.org/2000/svg">
  <defs
     id="defs52">
    <clipPath
       clipPathUnits="userSpaceOnUse"
       id="clipPath64">
      <path
         d="M 63.32,43.628 H 304.341 V 342.514 H 63.32 Z"
         id="path62" />
    </clipPath>
  </defs>
  <sodipodi:namedview
     id="namedview50"
     pagecolor="#505050"
     bordercolor="#ffffff"
     borderopacity="1"
     inkscape:showpageshadow="0"
     inkscape:pageopacity="0"
     inkscape:pagecheckerboard="1"
     inkscape:deskcolor="#505050"
     showgrid="false" />
  <g
     id="g56"
     inkscape:groupmode="layer"
     inkscape:label="Page 1"
     transform="matrix(1.3333333,0,0,-1.3333333,-84.504798,456.60558)">
    <g
       id="g60"
       clip-path="url(#clipPath64)"
       style="fill:#1a1a1a"
       inkscape:export-filename="../Code/hacknotts.com/src/assets/hacknotts_logo.svg"
       inkscape:export-xdpi="96"
       inkscape:export-ydpi="96">
      <g
         id="g66"
         transform="translate(266.4146,134.9572)"
         inkscape:export-filename="../Code/hacknotts.com/src/assets/hacknotts_logo.svg"
         inkscape:export-xdpi="96"
         inkscape:export-ydpi="96">
        <path
           d="m 0,0 c 0.069,-2.391 -1.053,-4.018 -2.631,-4.891 -13.93,-11.398 -27.842,-22.797 -41.771,-34.193 -3.779,-3.093 -9.945,-1.347 -9.945,4.13 v 7.446 c 0,2.642 -0.629,6.468 0.771,8.858 1.827,3.12 5.785,5.634 8.397,8.009 6.289,5.716 12.581,11.432 18.869,17.148 -6.288,5.734 -12.569,11.468 -18.858,17.203 -2.631,2.399 -7.981,5.728 -8.999,9.427 -0.689,2.505 -0.18,5.637 -0.18,8.186 v 6.632 c 0,5.4 6.196,7.328 9.945,4.131 9.563,-8.153 19.096,-16.305 28.659,-24.458 4.39,-3.743 8.781,-7.487 13.171,-11.231 C 1.244,13.145 -0.132,4.54 0,0 m 37.811,205.519 c 0.056,1.978 -1.98,1.978 -1.98,1.978 h -53.853 c -1.721,0 -1.879,-1.978 -1.879,-1.978 l -4.866,-56.427 -31.957,-0.021 c 0,0 -3.02,54.471 -3.134,56.448 -0.114,1.978 -1.869,1.978 -1.869,1.978 0,0 -39.858,-0.01 -41.756,-0.005 -1.899,0.005 -1.869,-1.973 -1.869,-1.973 l -3.075,-56.447 -32.557,0.002 c 0,0 -4.157,54.468 -4.322,56.445 -0.166,1.978 -1.999,1.978 -1.999,1.978 h -53.368 c -2.363,0 -2.363,-1.978 -2.363,-1.978 0,0 0.852,-111.567 0.935,-114.257 0.083,-2.69 2.576,-2.623 2.576,-2.623 l 110.631,-1.233 c 0,0 -0.105,-169.591 0,-174.134 0.106,-4.542 4.437,-4.542 4.437,-4.542 h 117.44 c 4.884,0 4.884,4.542 4.884,4.542 0,0 -0.111,290.27 -0.056,292.247"
           style="fill:currentColor;fill-opacity:1;fill-rule:nonzero;stroke:none"
           id="path68" />
      </g>
      <g
         id="g70"
         transform="translate(148.8391,167.9348)">
        <path
           d="m 0,0 c 0.689,2.505 0.18,5.637 0.18,8.186 v 6.632 c 0,5.4 -6.196,7.328 -9.946,4.131 -9.562,-8.153 -19.096,-16.305 -28.658,-24.458 -4.39,-3.743 -8.781,-7.486 -13.172,-11.231 -3.815,-3.252 -2.44,-11.857 -2.571,-16.397 -0.069,-2.391 1.053,-4.018 2.631,-4.891 13.929,-11.398 27.842,-22.797 41.77,-34.193 3.78,-3.092 9.946,-1.347 9.946,4.131 v 7.446 c 0,2.641 0.629,6.467 -0.771,8.857 -1.828,3.12 -5.786,5.635 -8.397,8.009 -6.289,5.716 -12.582,11.432 -18.869,17.148 6.287,5.734 12.569,11.469 18.857,17.203 2.632,2.399 7.982,5.728 9,9.427"
           style="fill:currentColor;fill-opacity:1;fill-rule:nonzero;stroke:none"
           id="path72" />
      </g>
    </g>
  </g>
</svg>
