<?xml version="1.0" encoding="UTF-8" standalone="no"?><!DOCTYPE svg PUBLIC "-//W3C//DTD SVG 1.1//EN" "http://www.w3.org/Graphics/SVG/1.1/DTD/svg11.dtd"><svg width="100%" height="100%" viewBox="0 0 842 142" version="1.1" xmlns="http://www.w3.org/2000/svg" xmlns:xlink="http://www.w3.org/1999/xlink" xml:space="preserve" xmlns:serif="http://www.serif.com/" style="fill-rule:evenodd;clip-rule:evenodd;stroke-linejoin:round;stroke-miterlimit:2;"><g id="Logo"><path d="M799.58,0l-757.531,0c-23.129,0 -42.049,31.86 -42.049,70.809c0,38.949 18.92,70.809 42.049,70.809l757.552,-0c23.129,-0 42.049,-31.86 42.049,-70.809c0,-38.949 -18.942,-70.809 -42.07,-70.809Z" style="fill:#3e3632;"/><g><rect id="polygon7_00000001656786455258842800000011693801996860144811_" x="379.377" y="20.508" width="201.15" height="10.337" style="fill:#f20029;"/><rect x="379.377" y="43.065" width="201.15" height="10.374" style="fill:#fd7801;"/><rect x="379.377" y="65.659" width="201.15" height="10.3" style="fill:#f2f540;"/><rect x="379.377" y="88.179" width="201.15" height="10.374" style="fill:#48cc31;"/><rect id="polygon15_00000025427389810582415990000006569259060333928854_" x="379.377" y="110.773" width="201.15" height="10.337" style="fill:#14a3fd;"/></g><path d="M620.591,70c-4.098,0.647 -5.715,1.078 -7.44,1.941c-4.744,2.372 -6.577,6.901 -6.577,16.065c-0,9.596 2.372,14.233 8.518,16.928c5.391,2.264 10.566,2.696 33.64,2.696c20.27,-0 25.338,-0.324 30.513,-1.618c8.734,-2.264 11.753,-7.008 11.753,-18.006c-0,-8.302 -1.402,-12.507 -5.176,-15.202c-1.833,-1.402 -3.558,-1.941 -8.841,-2.804c9.919,-0.754 13.154,-4.636 13.154,-15.957c-0,-9.381 -2.372,-14.34 -8.302,-17.036c-4.529,-2.049 -15.311,-3.019 -33.101,-3.019c-14.125,0 -25.769,0.755 -30.298,2.049c-7.871,2.264 -10.998,7.332 -10.998,18.006c0,11.321 3.235,15.203 13.155,15.957Zm25.984,-19.839c7.871,0 16.389,0.324 18.761,0.755c2.804,0.539 3.99,2.156 3.99,5.499c-0,6.146 -0,6.146 -21.349,6.146c-18.869,-0 -19.731,-0.216 -19.731,-6.146c-0,-5.607 1.941,-6.254 18.329,-6.254Zm2.157,27.926c7.763,-0 16.496,0.323 18.006,0.755c2.588,0.646 3.45,1.94 3.45,5.606c0,6.685 -0.97,7.009 -23.505,7.009c-18.545,-0 -19.3,-0.216 -19.3,-6.47c0,-6.685 0.539,-6.9 21.349,-6.9Z" style="fill:#fff;fill-rule:nonzero;"/><path d="M792.565,77.224l-14.017,0l0,-42.373l-35.473,-0l-42.697,31.052l-0,27.494l57.361,0l-0,13.37l20.809,0l0,-13.37l14.017,0l-0,-16.173Zm-34.826,0l-37.738,0l0,-2.803l33.317,-22.858l4.421,-0l-0,25.661Z" style="fill:#fff;fill-rule:nonzero;"/><path d="M147.929,34.851l-0,71.916l22.966,0l-0,-25.985l49.489,0l0,25.985l22.966,0l0,-71.916l-22.966,-0l0,25.769l-49.489,-0l-0,-25.769l-22.966,-0Z" style="fill:#fff;fill-rule:nonzero;"/><path d="M253.485,34.851l0,71.916l22.319,0l-0.539,-53.695l2.372,0l37.845,53.695l38.061,0l0,-71.916l-22.319,-0l0.539,53.587l-2.264,-0l-37.629,-53.587l-38.385,-0Z" style="fill:#fff;fill-rule:nonzero;"/><g id="HackNotts-Logo" serif:id="HackNotts Logo"><g><path d="M97.553,87.679c0.02,0.694 -0.305,1.167 -0.764,1.42c-4.043,3.309 -8.082,6.618 -12.126,9.927c-1.097,0.897 -2.887,0.391 -2.887,-1.199l0,-2.162c0,-0.767 -0.183,-1.877 0.224,-2.571c0.53,-0.906 1.679,-1.636 2.437,-2.325c1.826,-1.66 3.653,-3.319 5.478,-4.978c-1.825,-1.665 -3.649,-3.33 -5.474,-4.995c-0.764,-0.696 -2.317,-1.662 -2.613,-2.736c-0.2,-0.728 -0.052,-1.637 -0.052,-2.377l0,-1.925c0,-1.568 1.799,-2.127 2.887,-1.199c2.776,2.366 5.544,4.733 8.32,7.1c1.274,1.087 2.549,2.173 3.824,3.26c1.107,0.944 0.708,3.442 0.746,4.76m10.977,-59.663c0.016,-0.574 -0.575,-0.574 -0.575,-0.574l-15.634,0c-0.499,0 -0.545,0.574 -0.545,0.574l-1.413,16.381l-9.277,0.007c0,-0 -0.877,-15.814 -0.91,-16.388c-0.033,-0.574 -0.542,-0.574 -0.542,-0.574c-0,0 -11.571,0.003 -12.122,0.002c-0.552,-0.002 -0.543,0.572 -0.543,0.572l-0.892,16.387l-9.452,-0c0,-0 -1.207,-15.813 -1.255,-16.387c-0.048,-0.574 -0.58,-0.574 -0.58,-0.574l-15.493,0c-0.686,0 -0.686,0.574 -0.686,0.574c0,0 0.247,32.389 0.271,33.17c0.025,0.781 0.748,0.761 0.748,0.761l32.117,0.358c0,0 -0.031,49.233 0,50.552c0.031,1.319 1.288,1.319 1.288,1.319l34.093,-0c1.418,-0 1.418,-1.319 1.418,-1.319c0,-0 -0.032,-84.267 -0.016,-84.841" style="fill:#fff;fill-rule:nonzero;"/></g><g><path d="M63.421,78.106c0.2,-0.727 0.052,-1.636 0.052,-2.376l-0,-1.926c-0,-1.567 -1.799,-2.127 -2.887,-1.199c-2.776,2.367 -5.544,4.734 -8.32,7.1c-1.275,1.087 -2.549,2.174 -3.824,3.261c-1.107,0.944 -0.708,3.442 -0.746,4.76c-0.02,0.694 0.305,1.166 0.764,1.42c4.043,3.309 8.082,6.618 12.126,9.926c1.097,0.898 2.887,0.391 2.887,-1.199l-0,-2.162c-0,-0.766 0.183,-1.877 -0.224,-2.571c-0.53,-0.906 -1.679,-1.636 -2.438,-2.325c-1.825,-1.659 -3.652,-3.319 -5.477,-4.978c1.825,-1.665 3.648,-3.33 5.474,-4.994c0.764,-0.697 2.317,-1.663 2.613,-2.737" style="fill:#fff;fill-rule:nonzero;"/></g></g></g></svg>