<?xml version="1.0" encoding="UTF-8" standalone="no"?><!DOCTYPE svg PUBLIC "-//W3C//DTD SVG 1.1//EN" "http://www.w3.org/Graphics/SVG/1.1/DTD/svg11.dtd"><svg width="100%" height="100%" viewBox="0 0 4737 1976" version="1.1" xmlns="http://www.w3.org/2000/svg" xmlns:xlink="http://www.w3.org/1999/xlink" xml:space="preserve" xmlns:serif="http://www.serif.com/" style="fill-rule:evenodd;clip-rule:evenodd;stroke-linejoin:round;stroke-miterlimit:2;"><rect id="Small-Logo-w--Date" serif:id="Small Logo w/ Date" x="-0" y="0" width="4736.9" height="1975.18" style="fill:#1a1a1a;"/><g><g transform="matrix(0.818693,0,0,0.818693,-167.624,136.432)"><g transform="matrix(671.707,0,0,671.707,500.217,1006.65)"><path d="M-0.002,-0l0.13,-0.65l0.16,0l-0.05,0.244l0.16,0l0.048,-0.244l0.16,0l-0.13,0.65l-0.16,-0l0.054,-0.266l-0.16,0l-0.052,0.266l-0.16,-0Z" style="fill:#1ebb4f;fill-rule:nonzero;"/></g><g transform="matrix(671.707,0,0,671.707,903.242,1006.65)"><path d="M0.189,0.012c-0.049,0 -0.089,-0.017 -0.117,-0.051c-0.029,-0.033 -0.044,-0.081 -0.044,-0.143c0,-0.046 0.007,-0.089 0.022,-0.129c0.015,-0.04 0.035,-0.075 0.06,-0.105c0.024,-0.03 0.053,-0.053 0.085,-0.07c0.031,-0.017 0.064,-0.026 0.099,-0.026c0.032,0 0.059,0.005 0.082,0.017c0.023,0.011 0.039,0.026 0.05,0.045l0.004,0l0.022,-0.05l0.128,0l-0.1,0.5l-0.13,-0l-0,-0.066l-0.004,0c-0.023,0.025 -0.048,0.044 -0.076,0.058c-0.027,0.013 -0.054,0.02 -0.081,0.02Zm0.061,-0.13c0.016,0 0.034,-0.006 0.053,-0.017c0.02,-0.01 0.038,-0.028 0.055,-0.053l0.033,-0.156c-0.007,-0.013 -0.017,-0.023 -0.031,-0.029c-0.013,-0.006 -0.025,-0.009 -0.036,-0.009c-0.023,0 -0.044,0.008 -0.063,0.023c-0.02,0.015 -0.036,0.036 -0.048,0.064c-0.013,0.026 -0.019,0.058 -0.019,0.093c0,0.029 0.005,0.051 0.016,0.064c0.01,0.013 0.023,0.02 0.04,0.02Z" style="fill:#1ebb4f;fill-rule:nonzero;"/></g><g transform="matrix(671.707,0,0,671.707,1306.27,1006.65)"><path d="M0.3,0.012c-0.043,0 -0.083,-0.008 -0.12,-0.024c-0.037,-0.016 -0.066,-0.04 -0.089,-0.073c-0.022,-0.032 -0.033,-0.072 -0.033,-0.121c0,-0.046 0.008,-0.088 0.025,-0.126c0.016,-0.037 0.038,-0.069 0.067,-0.096c0.028,-0.027 0.061,-0.047 0.098,-0.062c0.036,-0.015 0.075,-0.022 0.116,-0.022c0.045,-0 0.084,0.009 0.117,0.028c0.034,0.019 0.059,0.041 0.077,0.064l-0.096,0.088c-0.016,-0.017 -0.033,-0.03 -0.051,-0.038c-0.019,-0.008 -0.038,-0.012 -0.057,-0.012c-0.023,-0 -0.044,0.007 -0.065,0.021c-0.02,0.015 -0.036,0.034 -0.049,0.058c-0.013,0.025 -0.02,0.052 -0.02,0.083c0,0.035 0.011,0.06 0.032,0.077c0.021,0.017 0.045,0.025 0.072,0.025c0.023,-0 0.044,-0.005 0.061,-0.015c0.017,-0.01 0.035,-0.022 0.053,-0.037l0.055,0.108c-0.025,0.023 -0.053,0.041 -0.085,0.054c-0.032,0.013 -0.068,0.02 -0.108,0.02Z" style="fill:#1ebb4f;fill-rule:nonzero;"/></g><g transform="matrix(671.707,0,0,671.707,1709.29,1006.65)"><path d="M0.01,-0l0.14,-0.696l0.16,0l-0.078,0.38l0.004,0l0.198,-0.184l0.184,0l-0.223,0.208l0.135,0.292l-0.162,-0l-0.082,-0.195l-0.094,0.081l-0.022,0.114l-0.16,-0Z" style="fill:#1ebb4f;fill-rule:nonzero;"/></g><g transform="matrix(671.707,0,0,671.707,2112.32,1006.65)"><path d="M0.006,-0l0.13,-0.65l0.16,0l0.057,0.31l0.021,0.144l0.004,0c0.001,-0.017 0.003,-0.038 0.005,-0.061c0.003,-0.023 0.005,-0.046 0.007,-0.069c0.003,-0.023 0.005,-0.045 0.008,-0.065c0.003,-0.019 0.005,-0.035 0.007,-0.047l0.042,-0.212l0.151,0l-0.13,0.65l-0.156,-0l-0.063,-0.31l-0.021,-0.144l-0.004,0c-0.002,0.024 -0.004,0.052 -0.007,0.083c-0.003,0.031 -0.006,0.062 -0.01,0.092c-0.003,0.03 -0.007,0.056 -0.011,0.077l-0.039,0.202l-0.151,-0Z" style="fill:#1ebb4f;fill-rule:nonzero;"/></g><g transform="matrix(671.707,0,0,671.707,2515.34,1006.65)"><path d="M0.256,0.012c-0.07,0 -0.125,-0.02 -0.166,-0.061c-0.04,-0.041 -0.06,-0.095 -0.06,-0.163c0,-0.045 0.008,-0.087 0.024,-0.124c0.016,-0.037 0.038,-0.068 0.066,-0.094c0.027,-0.027 0.058,-0.047 0.094,-0.061c0.035,-0.014 0.071,-0.021 0.108,-0.021c0.07,0 0.125,0.02 0.165,0.061c0.041,0.041 0.061,0.095 0.061,0.163c0,0.045 -0.008,0.087 -0.024,0.124c-0.016,0.037 -0.038,0.068 -0.066,0.095c-0.027,0.026 -0.059,0.046 -0.094,0.06c-0.035,0.014 -0.071,0.021 -0.108,0.021Zm0.012,-0.13c0.02,0 0.039,-0.007 0.057,-0.02c0.018,-0.014 0.033,-0.033 0.044,-0.058c0.011,-0.025 0.017,-0.055 0.017,-0.088c-0,-0.032 -0.007,-0.056 -0.021,-0.073c-0.013,-0.017 -0.032,-0.025 -0.055,-0.025c-0.02,0 -0.039,0.007 -0.057,0.021c-0.018,0.013 -0.033,0.033 -0.044,0.058c-0.011,0.025 -0.017,0.054 -0.017,0.087c0,0.032 0.007,0.056 0.021,0.073c0.014,0.017 0.032,0.025 0.055,0.025Z" style="fill:#1ebb4f;fill-rule:nonzero;"/></g><g transform="matrix(671.707,0,0,671.707,2918.36,1006.65)"><path d="M0.31,0.012c-0.062,0 -0.107,-0.014 -0.134,-0.042c-0.028,-0.028 -0.042,-0.065 -0.042,-0.112c0,-0.01 0.001,-0.02 0.002,-0.03c0.001,-0.01 0.003,-0.022 0.006,-0.036l0.034,-0.168l-0.126,0l0.024,-0.118l0.134,-0.006l0.054,-0.15l0.13,0l-0.032,0.15l0.2,0l-0.024,0.124l-0.202,0l-0.034,0.16c-0.002,0.009 -0.003,0.015 -0.004,0.02c0,0.006 -0,0.011 -0,0.016c-0,0.023 0.006,0.039 0.018,0.048c0.012,0.009 0.027,0.014 0.046,0.014c0.019,0 0.038,-0.004 0.056,-0.011c0.018,-0.008 0.034,-0.016 0.048,-0.025l0.048,0.111c-0.023,0.015 -0.052,0.028 -0.088,0.039c-0.036,0.011 -0.074,0.016 -0.114,0.016Z" style="fill:#1ebb4f;fill-rule:nonzero;"/></g><g transform="matrix(671.707,0,0,671.707,3321.39,1006.65)"><path d="M0.31,0.012c-0.062,0 -0.107,-0.014 -0.134,-0.042c-0.028,-0.028 -0.042,-0.065 -0.042,-0.112c0,-0.01 0.001,-0.02 0.002,-0.03c0.001,-0.01 0.003,-0.022 0.006,-0.036l0.034,-0.168l-0.126,0l0.024,-0.118l0.134,-0.006l0.054,-0.15l0.13,0l-0.032,0.15l0.2,0l-0.024,0.124l-0.202,0l-0.034,0.16c-0.002,0.009 -0.003,0.015 -0.004,0.02c0,0.006 -0,0.011 -0,0.016c-0,0.023 0.006,0.039 0.018,0.048c0.012,0.009 0.027,0.014 0.046,0.014c0.019,0 0.038,-0.004 0.056,-0.011c0.018,-0.008 0.034,-0.016 0.048,-0.025l0.048,0.111c-0.023,0.015 -0.052,0.028 -0.088,0.039c-0.036,0.011 -0.074,0.016 -0.114,0.016Z" style="fill:#1ebb4f;fill-rule:nonzero;"/></g><g transform="matrix(671.707,0,0,671.707,3724.41,1006.65)"><path d="M0.264,0.012c-0.048,0 -0.092,-0.008 -0.131,-0.025c-0.039,-0.017 -0.073,-0.039 -0.101,-0.067l0.087,-0.1c0.027,0.026 0.055,0.045 0.084,0.056c0.029,0.012 0.058,0.018 0.087,0.018c0.039,0 0.058,-0.009 0.058,-0.028c0,-0.011 -0.006,-0.02 -0.017,-0.027c-0.011,-0.008 -0.034,-0.016 -0.069,-0.027c-0.05,-0.016 -0.089,-0.036 -0.117,-0.061c-0.027,-0.025 -0.041,-0.056 -0.041,-0.095c0,-0.037 0.01,-0.068 0.031,-0.093c0.021,-0.025 0.048,-0.043 0.081,-0.056c0.033,-0.013 0.069,-0.019 0.108,-0.019c0.049,-0 0.091,0.008 0.125,0.023c0.034,0.016 0.063,0.036 0.087,0.059l-0.087,0.093c-0.02,-0.016 -0.042,-0.03 -0.068,-0.041c-0.024,-0.011 -0.05,-0.016 -0.075,-0.016c-0.015,-0 -0.028,0.002 -0.037,0.007c-0.01,0.005 -0.015,0.012 -0.015,0.023c0,0.01 0.007,0.018 0.021,0.025c0.013,0.007 0.039,0.018 0.077,0.031c0.044,0.015 0.079,0.033 0.106,0.056c0.027,0.023 0.04,0.055 0.04,0.096c0,0.038 -0.01,0.069 -0.031,0.094c-0.021,0.025 -0.049,0.044 -0.084,0.056c-0.035,0.012 -0.075,0.018 -0.119,0.018Z" style="fill:#1ebb4f;fill-rule:nonzero;"/></g><g transform="matrix(671.707,0,0,671.707,4530.46,1006.65)"><path d="M0.258,-0.295l0.012,-0.239l0.025,-0.15l0.179,0l-0.036,0.15l-0.084,0.239l-0.096,0Z" style="fill:#bb1937;fill-rule:nonzero;"/></g><g transform="matrix(671.707,0,0,671.707,4933.49,1006.65)"><path d="M0.052,-0l0,-0.098c0.057,-0.046 0.107,-0.089 0.151,-0.128c0.044,-0.039 0.079,-0.076 0.104,-0.109c0.025,-0.033 0.038,-0.064 0.038,-0.093c0,-0.029 -0.008,-0.05 -0.025,-0.063c-0.017,-0.014 -0.039,-0.021 -0.067,-0.021c-0.023,0 -0.045,0.006 -0.064,0.019c-0.018,0.012 -0.037,0.026 -0.054,0.041l-0.091,-0.092c0.035,-0.035 0.07,-0.061 0.105,-0.078c0.035,-0.016 0.078,-0.024 0.128,-0.024c0.045,0 0.085,0.008 0.12,0.025c0.035,0.017 0.062,0.042 0.082,0.073c0.019,0.031 0.029,0.068 0.029,0.11c0,0.034 -0.01,0.069 -0.031,0.104c-0.021,0.035 -0.047,0.07 -0.079,0.104c-0.032,0.033 -0.065,0.065 -0.1,0.094c0.017,-0.002 0.037,-0.004 0.059,-0.005c0.021,-0.002 0.04,-0.003 0.055,-0.003l0.128,0l0,0.144l-0.488,0Z" style="fill:#bb1937;fill-rule:nonzero;"/></g><g transform="matrix(671.707,0,0,671.707,5336.51,1006.65)"><path d="M0.276,0.012c-0.054,0 -0.101,-0.008 -0.142,-0.024c-0.04,-0.016 -0.073,-0.038 -0.098,-0.066l0.078,-0.108c0.021,0.018 0.045,0.033 0.07,0.043c0.025,0.011 0.05,0.017 0.074,0.017c0.031,0 0.057,-0.005 0.077,-0.015c0.019,-0.01 0.029,-0.025 0.029,-0.045c0,-0.016 -0.005,-0.03 -0.015,-0.041c-0.009,-0.011 -0.027,-0.02 -0.052,-0.026c-0.025,-0.006 -0.062,-0.009 -0.109,-0.009l-0,-0.12c0.057,0 0.098,-0.007 0.121,-0.02c0.023,-0.013 0.035,-0.03 0.035,-0.052c-0,-0.019 -0.007,-0.034 -0.021,-0.043c-0.014,-0.01 -0.034,-0.015 -0.059,-0.015c-0.023,0 -0.044,0.004 -0.064,0.013c-0.019,0.009 -0.04,0.022 -0.062,0.039l-0.086,-0.104c0.033,-0.026 0.067,-0.046 0.104,-0.061c0.037,-0.014 0.075,-0.021 0.116,-0.021c0.073,0 0.132,0.015 0.177,0.046c0.045,0.031 0.067,0.076 0.067,0.133c0,0.031 -0.01,0.057 -0.03,0.08c-0.02,0.023 -0.049,0.042 -0.086,0.057l0,0.004c0.039,0.011 0.072,0.029 0.098,0.054c0.025,0.025 0.038,0.058 0.038,0.098c0,0.04 -0.012,0.074 -0.037,0.101c-0.024,0.028 -0.056,0.049 -0.095,0.063c-0.039,0.015 -0.082,0.022 -0.128,0.022Z" style="fill:#bb1937;fill-rule:nonzero;"/></g></g><path d="M921.783,1363.27l-11.64,-8.314l29.931,-45.728l-44.896,-19.399l4.434,-12.749l46.282,15.243l2.494,-52.38l13.303,0l2.494,52.38l46.282,-15.243l4.435,12.749l-44.897,19.399l29.931,45.728l-11.64,8.314l-33.256,-44.065l-33.257,44.065Z" style="fill:#a0a0a0;fill-rule:nonzero;"/><path d="M1231.35,1394.04l0,-18.846l50.994,0l-0,-130.255l-39.631,-0l0,-14.688c10.347,-1.478 19.076,-3.28 26.19,-5.405c7.113,-2.124 13.533,-4.665 19.261,-7.621l16.905,0l0,157.969l46.283,0l-0,18.846l-120.002,-0Z" style="fill:#a0a0a0;fill-rule:nonzero;"/><path d="M1397.63,1394.04l-0,-18.846l50.993,0l0,-130.255l-39.631,-0l0,-14.688c10.347,-1.478 19.077,-3.28 26.19,-5.405c7.113,-2.124 13.534,-4.665 19.261,-7.621l16.906,0l-0,157.969l46.282,0l-0,18.846l-120.001,-0Z" style="fill:#a0a0a0;fill-rule:nonzero;"/><rect x="1560.59" y="1293.99" width="119.17" height="17.183" style="fill:#a0a0a0;fill-rule:nonzero;"/><path d="M1730.2,1394.04l-0,-18.846l50.993,0l0,-130.255l-39.631,-0l0,-14.688c10.347,-1.478 19.077,-3.28 26.19,-5.405c7.113,-2.124 13.534,-4.665 19.261,-7.621l16.906,0l-0,157.969l46.282,0l-0,18.846l-120.001,-0Z" style="fill:#a0a0a0;fill-rule:nonzero;"/><path d="M1889.83,1394.04l-0,-13.58c19.954,-17.737 36.859,-33.257 50.716,-46.559c13.857,-13.303 24.342,-25.312 31.456,-36.028c7.113,-10.716 10.669,-20.971 10.669,-30.763c0,-10.162 -3.141,-18.476 -9.422,-24.942c-6.282,-6.467 -15.982,-9.7 -29.1,-9.7c-8.314,-0 -16.028,2.078 -23.141,6.235c-7.113,4.157 -13.534,9.192 -19.261,15.104l-13.026,-13.025c7.945,-8.13 16.536,-14.642 25.774,-19.538c9.238,-4.897 20.047,-7.345 32.425,-7.345c17.737,0 31.779,4.758 42.126,14.273c10.346,9.515 15.519,22.125 15.519,37.83c0,11.085 -3.418,22.309 -10.254,33.672c-6.836,11.363 -16.397,23.28 -28.684,35.751c-12.286,12.471 -26.466,26.005 -42.541,40.601c5.543,-0.37 11.132,-0.739 16.767,-1.109c5.636,-0.369 11.04,-0.554 16.213,-0.554l58.199,-0l0,19.677l-124.435,-0Z" style="fill:#a0a0a0;fill-rule:nonzero;"/><path d="M2239.03,1394.04l0,-181.803l111.687,-0l0,19.399l-88.407,0l-0,61.525l74.827,0l0,19.4l-74.827,-0l-0,81.479l-23.28,-0Z" style="fill:#a0a0a0;fill-rule:nonzero;"/><path d="M2456.58,1274.04c-11.085,-0 -20.97,3.556 -29.654,10.669c-8.683,7.114 -14.041,17.322 -16.074,30.624l85.913,0c-0.923,-13.857 -4.988,-24.203 -12.194,-31.039c-7.205,-6.836 -16.536,-10.254 -27.991,-10.254Zm3.326,123.326c-13.488,0 -25.728,-2.771 -36.721,-8.314c-10.993,-5.542 -19.723,-13.626 -26.19,-24.249c-6.466,-10.624 -9.7,-23.419 -9.7,-38.384c0,-14.596 3.234,-27.16 9.7,-37.691c6.467,-10.531 14.92,-18.615 25.359,-24.25c10.438,-5.635 21.663,-8.452 33.672,-8.452c19.4,-0 34.504,5.773 45.312,17.321c10.809,11.547 16.213,26.836 16.213,45.866c-0,2.587 -0.093,5.081 -0.277,7.483c-0.185,2.402 -0.462,4.527 -0.832,6.374l-106.144,0c1.478,15.15 7.067,26.606 16.767,34.365c9.7,7.76 21.571,11.64 35.612,11.64c8.13,0 15.474,-1.154 22.033,-3.464c6.559,-2.309 12.887,-5.404 18.984,-9.284l8.314,14.965c-6.651,4.435 -14.273,8.222 -22.864,11.363c-8.591,3.141 -18.337,4.711 -29.238,4.711Z" style="fill:#a0a0a0;fill-rule:nonzero;"/><path d="M2623.42,1397.36c-6.467,0 -13.441,-1.616 -20.924,-4.849c-7.483,-3.234 -14.458,-7.714 -20.924,-13.442l-0.832,0l-1.939,14.966l-18.292,-0l0,-197.323l22.726,-0l-0,53.765l-0.832,26.051l0.832,-0c6.097,-6.282 13.164,-11.27 21.201,-14.966c8.037,-3.695 16.028,-5.542 23.972,-5.542c18.107,-0 31.964,6.189 41.571,18.568c9.608,12.379 14.412,29.007 14.412,49.885c-0,15.335 -2.864,28.453 -8.592,39.354c-5.727,10.9 -13.21,19.215 -22.448,24.942c-9.238,5.728 -19.215,8.591 -29.931,8.591Zm-3.603,-19.122c11.825,-0 21.617,-4.758 29.377,-14.273c7.76,-9.515 11.64,-22.587 11.64,-39.215c-0,-14.781 -2.956,-26.744 -8.869,-35.889c-5.912,-9.146 -15.612,-13.719 -29.099,-13.719c-5.913,0 -12.241,1.617 -18.984,4.85c-6.744,3.233 -13.626,8.36 -20.647,15.381l-0,67.068c6.466,5.728 12.979,9.792 19.538,12.194c6.559,2.402 12.24,3.603 17.044,3.603Z" style="fill:#a0a0a0;fill-rule:nonzero;"/><path d="M2887.53,1394.04l0,-13.58c19.954,-17.737 36.86,-33.257 50.717,-46.559c13.857,-13.303 24.342,-25.312 31.455,-36.028c7.113,-10.716 10.67,-20.971 10.67,-30.763c0,-10.162 -3.141,-18.476 -9.423,-24.942c-6.282,-6.467 -15.981,-9.7 -29.099,-9.7c-8.314,-0 -16.028,2.078 -23.141,6.235c-7.114,4.157 -13.534,9.192 -19.262,15.104l-13.025,-13.025c7.945,-8.13 16.536,-14.642 25.774,-19.538c9.238,-4.897 20.046,-7.345 32.425,-7.345c17.737,0 31.779,4.758 42.125,14.273c10.347,9.515 15.52,22.125 15.52,37.83c0,11.085 -3.418,22.309 -10.254,33.672c-6.836,11.363 -16.398,23.28 -28.684,35.751c-12.287,12.471 -26.467,26.005 -42.541,40.601c5.543,-0.37 11.132,-0.739 16.767,-1.109c5.635,-0.369 11.039,-0.554 16.213,-0.554l58.199,-0l-0,19.677l-124.436,-0Z" style="fill:#a0a0a0;fill-rule:nonzero;"/><path d="M3116.72,1397.36c-19.584,0 -35.058,-8.037 -46.42,-24.111c-11.363,-16.074 -17.044,-38.799 -17.044,-68.176c-0,-29.746 5.681,-52.379 17.044,-67.899c11.362,-15.52 26.836,-23.28 46.42,-23.28c19.77,0 35.29,7.76 46.56,23.28c11.27,15.52 16.905,38.153 16.905,67.899c0,29.377 -5.635,52.102 -16.905,68.176c-11.27,16.074 -26.79,24.111 -46.56,24.111Zm0,-18.291c12.379,0 22.495,-6.004 30.347,-18.014c7.852,-12.009 11.779,-30.67 11.779,-55.982c-0,-25.497 -3.927,-44.019 -11.779,-55.566c-7.852,-11.548 -17.968,-17.321 -30.347,-17.321c-12.378,-0 -22.494,5.773 -30.346,17.321c-7.853,11.547 -11.779,30.069 -11.779,55.566c0,25.312 3.926,43.973 11.779,55.982c7.852,12.01 17.968,18.014 30.346,18.014Zm0,-57.367c-4.619,-0 -8.637,-1.663 -12.055,-4.989c-3.418,-3.326 -5.127,-7.852 -5.127,-13.58c-0,-5.727 1.709,-10.208 5.127,-13.441c3.418,-3.233 7.436,-4.85 12.055,-4.85c4.619,0 8.638,1.617 12.056,4.85c3.418,3.233 5.127,7.714 5.127,13.441c0,5.728 -1.709,10.254 -5.127,13.58c-3.418,3.326 -7.437,4.989 -12.056,4.989Z" style="fill:#a0a0a0;fill-rule:nonzero;"/><path d="M3220.1,1394.04l0,-13.58c19.954,-17.737 36.86,-33.257 50.717,-46.559c13.857,-13.303 24.342,-25.312 31.455,-36.028c7.113,-10.716 10.67,-20.971 10.67,-30.763c-0,-10.162 -3.141,-18.476 -9.423,-24.942c-6.282,-6.467 -15.981,-9.7 -29.099,-9.7c-8.315,-0 -16.028,2.078 -23.142,6.235c-7.113,4.157 -13.533,9.192 -19.261,15.104l-13.025,-13.025c7.944,-8.13 16.536,-14.642 25.774,-19.538c9.238,-4.897 20.046,-7.345 32.425,-7.345c17.737,0 31.779,4.758 42.125,14.273c10.347,9.515 15.52,22.125 15.52,37.83c-0,11.085 -3.418,22.309 -10.254,33.672c-6.836,11.363 -16.398,23.28 -28.684,35.751c-12.287,12.471 -26.467,26.005 -42.541,40.601c5.543,-0.37 11.132,-0.739 16.767,-1.109c5.635,-0.369 11.039,-0.554 16.213,-0.554l58.199,-0l-0,19.677l-124.436,-0Z" style="fill:#a0a0a0;fill-rule:nonzero;"/><path d="M3445.69,1397.36c-15.151,0 -27.945,-2.54 -38.384,-7.621c-10.439,-5.081 -18.892,-10.854 -25.358,-17.321l11.639,-14.966c5.913,5.543 13.026,10.439 21.34,14.689c8.314,4.249 18.107,6.374 29.377,6.374c12.009,0 22.079,-2.956 30.208,-8.868c8.129,-5.913 12.194,-13.765 12.194,-23.557c0,-10.532 -4.896,-19.03 -14.688,-25.497c-9.792,-6.467 -26.328,-9.7 -49.608,-9.7l-0,-17.46c20.878,0 35.751,-3.187 44.619,-9.561c8.869,-6.374 13.303,-14.18 13.303,-23.418c-0,-8.684 -3.28,-15.52 -9.838,-20.509c-6.559,-4.988 -15.289,-7.482 -26.19,-7.482c-8.314,-0 -16.167,1.663 -23.557,4.988c-7.39,3.326 -14.042,7.668 -19.954,13.026l-12.194,-14.411c7.39,-6.467 15.843,-11.779 25.358,-15.936c9.515,-4.157 19.908,-6.236 31.178,-6.236c11.086,0 21.017,1.756 29.793,5.266c8.776,3.51 15.75,8.591 20.924,15.243c5.173,6.651 7.76,14.78 7.76,24.388c-0,10.716 -3.557,19.492 -10.67,26.328c-7.113,6.836 -16.12,12.102 -27.021,15.797l-0,1.109c7.944,1.662 15.196,4.48 21.755,8.452c6.559,3.973 11.871,9.007 15.936,15.104c4.064,6.098 6.097,13.211 6.097,21.34c-0,10.347 -2.91,19.308 -8.73,26.883c-5.82,7.575 -13.534,13.395 -23.141,17.459c-9.608,4.065 -20.324,6.097 -32.148,6.097Z" style="fill:#a0a0a0;fill-rule:nonzero;"/><path d="M3748.6,1363.27l-11.64,-8.314l29.931,-45.728l-44.897,-19.399l4.434,-12.749l46.283,15.243l2.494,-52.38l13.303,0l2.494,52.38l46.282,-15.243l4.434,12.749l-44.896,19.399l29.931,45.728l-11.64,8.314l-33.257,-44.065l-33.256,44.065Z" style="fill:#a0a0a0;fill-rule:nonzero;"/></g></svg>