<?xml version="1.0" encoding="UTF-8" standalone="no"?>
<!DOCTYPE svg PUBLIC "-//W3C//DTD SVG 1.1//EN" "http://www.w3.org/Graphics/SVG/1.1/DTD/svg11.dtd">
<svg width="100%" height="100%" viewBox="0 0 3652 3652" version="1.1" xmlns="http://www.w3.org/2000/svg" xmlns:xlink="http://www.w3.org/1999/xlink" xml:space="preserve" xmlns:serif="http://www.serif.com/" style="fill-rule:evenodd;clip-rule:evenodd;stroke-linejoin:round;stroke-miterlimit:2;">
    <g transform="matrix(1,0,0,1,-17979.5,0)">
        <g id="Filled-Logo" serif:id="Filled Logo" transform="matrix(1,0,0,1,643.082,0)">
            <rect x="17336.4" y="0" width="3651.5" height="3651.5" style="fill:rgb(26,26,26);"/>
            <g transform="matrix(1.19639,0,0,1.19639,-3444.53,76.7582)">
                <g transform="matrix(0.826222,0,0,0.826222,19470.8,1057.29)">
                    <path d="M0,979.427C0.58,999.573 -8.872,1013.28 -22.175,1020.64C-139.553,1116.69 -256.795,1212.75 -374.167,1308.79C-406.012,1334.84 -457.973,1320.13 -457.973,1273.98L-457.973,1211.23C-457.973,1188.97 -463.276,1156.73 -451.48,1136.59C-436.078,1110.3 -402.725,1089.11 -380.719,1069.1C-327.723,1020.93 -274.695,972.763 -221.708,924.597C-274.695,876.275 -327.629,827.951 -380.62,779.625C-402.797,759.409 -447.878,731.36 -456.459,700.188C-462.264,679.079 -457.973,652.688 -457.973,631.206L-457.973,575.315C-457.973,529.812 -405.763,513.566 -374.167,540.505C-293.583,609.208 -213.248,677.909 -132.667,746.611C-95.668,778.153 -58.67,809.699 -21.672,841.252C10.484,868.658 -1.109,941.169 0,979.427M318.629,-752.453C319.096,-769.12 301.942,-769.12 301.942,-769.12L-151.871,-769.12C-166.371,-769.12 -167.704,-752.453 -167.704,-752.453L-208.704,-276.953L-478.002,-276.771C-478.002,-276.771 -503.454,-735.787 -504.413,-752.453C-505.371,-769.12 -520.163,-769.12 -520.163,-769.12C-520.163,-769.12 -856.038,-769.037 -872.038,-769.078C-888.038,-769.12 -887.788,-752.453 -887.788,-752.453L-913.694,-276.781L-1188.05,-276.797C-1188.05,-276.797 -1223.08,-735.787 -1224.48,-752.453C-1225.87,-769.12 -1241.32,-769.12 -1241.32,-769.12L-1691.04,-769.12C-1710.95,-769.12 -1710.95,-752.453 -1710.95,-752.453C-1710.95,-752.453 -1703.78,187.706 -1703.08,210.376C-1702.37,233.047 -1681.37,232.477 -1681.37,232.477L-749.094,242.869C-749.094,242.869 -749.984,1671.99 -749.094,1710.27C-748.204,1748.55 -711.709,1748.55 -711.709,1748.55L277.942,1748.55C319.096,1748.55 319.096,1710.27 319.096,1710.27C319.096,1710.27 318.162,-735.787 318.629,-752.453" style="fill:rgb(30,187,79);fill-rule:nonzero;"/>
                </g>
                <g transform="matrix(0.826222,0,0,0.826222,18652.2,2051.74)">
                    <path d="M0,-448.033C5.804,-469.141 1.514,-495.533 1.514,-517.014L1.514,-572.905C1.514,-618.408 -50.697,-634.655 -82.293,-607.716C-162.876,-539.013 -243.212,-470.311 -323.793,-401.61C-360.791,-370.068 -397.789,-338.522 -434.788,-306.969C-466.944,-279.563 -455.351,-207.052 -456.459,-168.794C-457.039,-148.648 -447.587,-134.936 -434.285,-127.581C-316.907,-31.528 -199.664,64.528 -82.293,160.566C-50.447,186.622 1.514,171.911 1.514,125.754L1.514,63.009C1.514,40.752 6.817,8.506 -4.979,-11.632C-20.382,-37.92 -53.734,-59.114 -75.741,-79.119C-128.736,-127.288 -181.765,-175.457 -234.751,-223.624C-181.765,-271.946 -128.831,-320.27 -75.839,-368.596C-53.662,-388.812 -8.581,-416.861 0,-448.033" style="fill:rgb(30,187,79);fill-rule:nonzero;"/>
                </g>
            </g>
        </g>
    </g>
</svg>
