<?xml version="1.0" encoding="UTF-8" standalone="no"?>
<!DOCTYPE svg PUBLIC "-//W3C//DTD SVG 1.1//EN" "http://www.w3.org/Graphics/SVG/1.1/DTD/svg11.dtd">
<svg width="100%" height="100%" viewBox="0 0 478 173" version="1.1" xmlns="http://www.w3.org/2000/svg" xmlns:xlink="http://www.w3.org/1999/xlink" xml:space="preserve" xmlns:serif="http://www.serif.com/" style="fill-rule:evenodd;clip-rule:evenodd;stroke-linejoin:round;stroke-miterlimit:2;">
    <g transform="matrix(1,0,0,1,-111.239,-38.7678)">
        <g transform="matrix(1,0,0,1,-9.35836,129.526)">
            <g transform="matrix(0.655549,0,0,1,52.8727,-97.9395)">
                <g transform="matrix(1,0,0,1,1.52544,0)">
                    <path d="M105.551,99.409C104.425,99.409 103.516,99.258 102.823,98.954C102.13,98.651 101.784,98.24 101.784,97.72C101.784,96.854 103.169,96.162 105.94,95.642C109.231,95.036 111.375,94.04 112.37,92.654C113.366,91.269 113.864,89.017 113.864,85.9L113.864,27.185C113.864,24.154 113.54,22.011 112.89,20.755C112.241,19.5 110.27,18.569 106.98,17.963C104.122,17.443 102.693,16.664 102.693,15.624C102.693,15.105 102.996,14.693 103.602,14.39C104.209,14.087 105.161,13.936 106.46,13.936C108.798,13.936 110.617,13.979 111.916,14.066C113.215,14.152 114.427,14.217 115.553,14.26C116.679,14.304 118.108,14.325 119.84,14.325C121.658,14.325 123.152,14.304 124.321,14.26C125.49,14.217 126.746,14.152 128.088,14.066C129.431,13.979 131.271,13.936 133.609,13.936C136.12,13.936 137.376,14.499 137.376,15.624C137.376,16.231 137.03,16.707 136.337,17.053C135.644,17.4 134.562,17.703 133.089,17.963C129.885,18.569 127.612,19.63 126.27,21.145C124.927,22.661 124.256,24.674 124.256,27.185L124.256,52.775C124.256,53.295 124.473,53.62 124.906,53.75C125.339,53.88 125.728,53.945 126.075,53.945L174.267,53.945C174.873,53.945 175.177,53.425 175.177,52.386L175.177,27.055C175.177,24.717 174.57,22.769 173.358,21.21C172.146,19.651 169.894,18.569 166.603,17.963C165.131,17.703 164.049,17.4 163.356,17.053C162.663,16.707 162.317,16.231 162.317,15.624C162.317,14.499 163.572,13.936 166.084,13.936C168.422,13.936 170.349,13.979 171.864,14.066C173.38,14.152 174.83,14.217 176.216,14.26C177.601,14.304 179.247,14.325 181.152,14.325C182.711,14.325 183.923,14.304 184.789,14.26C185.655,14.217 186.651,14.152 187.777,14.066C188.902,13.979 190.634,13.936 192.973,13.936C194.185,13.936 195.116,14.087 195.765,14.39C196.415,14.693 196.74,15.105 196.74,15.624C196.74,16.664 195.311,17.443 192.453,17.963C189.249,18.569 187.3,19.608 186.608,21.08C185.915,22.552 185.568,24.544 185.568,27.055L185.568,85.77C185.568,88.974 185.98,91.269 186.802,92.654C187.625,94.04 189.639,95.036 192.843,95.642C195.614,96.162 197,96.854 197,97.72C197,98.24 196.653,98.651 195.96,98.954C195.268,99.258 194.358,99.409 193.232,99.409C190.894,99.409 189.076,99.344 187.777,99.214C186.478,99.084 185.265,98.976 184.14,98.889C183.014,98.803 181.542,98.76 179.723,98.76C177.904,98.76 176.411,98.803 175.241,98.889C174.072,98.976 172.795,99.084 171.409,99.214C170.024,99.344 168.162,99.409 165.824,99.409C164.698,99.409 163.789,99.258 163.096,98.954C162.403,98.651 162.057,98.24 162.057,97.72C162.057,97.114 162.381,96.681 163.031,96.421C163.68,96.162 164.741,95.902 166.214,95.642C168.985,95.122 171.171,94.105 172.773,92.589C174.375,91.074 175.177,88.931 175.177,86.159L175.177,59.53C175.177,59.097 174.96,58.881 174.527,58.881L124.906,58.881C124.473,58.881 124.256,59.357 124.256,60.31L124.256,84.99C124.256,87.675 125.252,89.991 127.244,91.94C129.236,93.888 131.704,95.122 134.648,95.642C136.12,95.902 137.181,96.162 137.831,96.421C138.48,96.681 138.805,97.114 138.805,97.72C138.805,98.24 138.458,98.651 137.766,98.954C137.073,99.258 136.164,99.409 135.038,99.409C132.7,99.409 130.773,99.344 129.257,99.214C127.742,99.084 126.291,98.976 124.906,98.889C123.52,98.803 121.831,98.76 119.84,98.76C118.021,98.76 116.484,98.803 115.228,98.889C113.973,98.976 112.63,99.084 111.201,99.214C109.773,99.344 107.889,99.409 105.551,99.409Z" style="fill:rgb(240,240,240);fill-rule:nonzero;"/>
                </g>
                <g transform="matrix(1,0,0,1,1.52544,0)">
                    <path d="M217.394,100.578C215.835,100.578 214.254,99.972 212.652,98.76C211.05,97.547 209.708,96.075 208.625,94.343C207.543,92.611 207.002,90.966 207.002,89.407C207.002,86.636 207.738,84.471 209.21,82.912C210.682,81.353 213.02,79.924 216.225,78.625L229.474,73.17C231.206,72.477 232.224,71.871 232.527,71.351C232.83,70.831 233.025,69.706 233.111,67.974L233.371,59.66C233.458,57.408 232.83,55.46 231.488,53.815C230.145,52.169 228.219,51.347 225.707,51.347C224.408,51.347 223.109,51.563 221.81,51.996C220.511,52.429 219.429,52.992 218.563,53.685C218.043,54.031 217.697,54.551 217.524,55.244C217.35,55.936 217.264,56.672 217.264,57.452C217.264,57.798 217.285,58.188 217.329,58.621C217.372,59.054 217.394,59.444 217.394,59.79C217.394,60.223 216.852,60.808 215.77,61.544C214.687,62.28 213.475,62.929 212.133,63.492C210.79,64.055 209.686,64.336 208.82,64.336C208.387,64.336 208.041,64.228 207.781,64.012C207.521,63.795 207.391,63.514 207.391,63.167C207.391,61.782 207.846,60.288 208.755,58.686C209.665,57.084 210.942,55.59 212.587,54.204C214.579,52.386 216.744,50.784 219.082,49.398C221.42,48.012 223.715,46.93 225.967,46.151C228.219,45.371 230.21,44.982 231.942,44.982C235.06,44.982 237.636,46.086 239.671,48.294C241.706,50.502 242.681,53.252 242.594,56.542L241.944,87.718C241.858,89.537 242.269,91.009 243.179,92.135C244.088,93.261 245.235,93.823 246.621,93.823C248.786,93.823 250.388,93.347 251.427,92.395C251.86,91.962 252.206,91.745 252.466,91.745C252.899,91.745 253.246,91.875 253.505,92.135C253.765,92.395 253.895,92.741 253.895,93.174C253.895,94.127 253.419,95.079 252.466,96.032C251.081,97.417 249.587,98.521 247.985,99.344C246.383,100.167 244.889,100.578 243.503,100.578C239.52,100.578 236.359,98.327 234.021,93.823L233.631,93.823C230.773,96.162 228.045,97.872 225.447,98.954C222.849,100.037 220.165,100.578 217.394,100.578ZM223.499,94.343C225.231,94.343 226.703,94.062 227.915,93.499C229.128,92.936 230.21,92.178 231.163,91.225C231.596,90.792 231.964,90.208 232.267,89.472C232.57,88.736 232.765,87.545 232.852,85.9L233.111,79.535C233.198,78.582 233.155,77.889 232.981,77.456C232.808,77.023 232.462,76.807 231.942,76.807C231.769,76.807 231.466,76.85 231.033,76.937C230.6,77.023 230.037,77.196 229.344,77.456C224.755,79.102 221.572,80.812 219.797,82.587C218.021,84.362 217.134,85.986 217.134,87.458C217.134,89.71 217.805,91.42 219.147,92.589C220.49,93.758 221.94,94.343 223.499,94.343Z" style="fill:rgb(240,240,240);fill-rule:nonzero;"/>
                </g>
                <g transform="matrix(1,0,0,1,1.52544,0)">
                    <path d="M281.693,100.708C277.364,100.708 273.445,99.604 269.938,97.396C266.43,95.187 263.659,92.156 261.624,88.303C259.589,84.449 258.572,80.141 258.572,75.378C258.572,69.749 259.806,64.64 262.274,60.05C264.742,55.46 268.054,51.801 272.211,49.073C276.368,46.345 280.957,44.982 285.98,44.982C291.609,44.982 296.545,46.497 300.789,49.528C301.828,50.307 302.347,51.13 302.347,51.996C302.347,52.689 302.044,53.468 301.438,54.334C300.832,55.2 300.096,55.915 299.23,56.478C298.364,57.04 297.541,57.322 296.762,57.322C296.329,57.322 295.896,57.17 295.463,56.867C295.03,56.564 294.553,56.239 294.034,55.893C292.129,54.421 290.007,53.035 287.669,51.736C285.331,50.437 283.382,49.788 281.823,49.788C277.58,49.788 274.138,51.758 271.496,55.698C268.855,59.638 267.535,64.813 267.535,71.221C267.535,75.291 268.422,78.972 270.197,82.262C271.973,85.553 274.354,88.151 277.342,90.056C280.33,91.962 283.642,92.914 287.279,92.914C289.791,92.914 291.955,92.503 293.774,91.68C295.593,90.857 297.541,89.407 299.62,87.328C299.793,87.155 300.009,87.004 300.269,86.874C300.529,86.744 300.745,86.679 300.918,86.679C301.871,86.679 302.347,87.285 302.347,88.498C302.347,89.017 302.196,89.602 301.893,90.251C301.59,90.901 301.092,91.658 300.399,92.524C299.013,94.256 297.368,95.75 295.463,97.006C293.558,98.262 291.458,99.193 289.163,99.799C286.868,100.405 284.378,100.708 281.693,100.708Z" style="fill:rgb(240,240,240);fill-rule:nonzero;"/>
                </g>
                <path d="M312.35,99.149C310.358,99.149 309.362,98.673 309.362,97.72C309.362,97.028 309.687,96.573 310.336,96.356C310.986,96.14 311.657,95.902 312.35,95.642C313.649,95.209 314.904,94.646 316.117,93.953C317.329,93.261 317.935,92.048 317.935,90.316L317.935,25.237C317.935,22.206 317.502,19.998 316.636,18.612C315.77,17.226 314.255,16.274 312.09,15.754C311.31,15.581 310.921,15.018 310.921,14.066C310.921,13.2 311.267,12.68 311.96,12.507C314.211,11.987 316.16,11.446 317.805,10.883C319.451,10.32 320.945,9.757 322.287,9.194C323.629,8.632 324.95,8.09 326.249,7.571C326.768,7.311 327.158,7.181 327.418,7.181C327.678,7.181 327.872,7.268 328.002,7.441C328.132,7.614 328.197,7.917 328.197,8.35C328.197,9.216 328.002,10.948 327.613,13.546C327.223,16.144 327.028,20.214 327.028,25.756L327.028,68.363C327.028,69.143 327.245,69.532 327.678,69.532C328.197,69.532 328.868,69.316 329.691,68.883C330.514,68.45 331.401,67.8 332.354,66.934C335.905,63.903 338.871,61.154 341.252,58.686C343.634,56.218 345.257,54.507 346.123,53.555C346.556,53.035 346.859,52.624 347.033,52.321C347.206,52.018 347.292,51.78 347.292,51.606C347.292,51.173 346.924,50.784 346.188,50.437C345.452,50.091 344.694,49.831 343.915,49.658C342.876,49.398 342.356,48.965 342.356,48.359C342.356,47.926 342.616,47.558 343.136,47.255C343.655,46.952 344.348,46.8 345.214,46.8L351.579,46.8C352.965,46.8 354.415,46.67 355.931,46.41C357.446,46.151 358.875,45.891 360.217,45.631C361.56,45.371 362.62,45.241 363.4,45.241C364.612,45.241 365.218,45.674 365.218,46.54C365.218,47.06 364.915,47.515 364.309,47.904C363.703,48.294 362.923,48.619 361.971,48.878C360.326,49.311 358.788,49.918 357.359,50.697C355.931,51.476 354.61,52.213 353.398,52.905C352.878,53.252 351.687,54.183 349.825,55.698C347.963,57.214 345.842,58.967 343.46,60.959C341.079,62.951 338.849,64.856 336.771,66.675C336.251,67.194 335.991,67.627 335.991,67.974C335.991,68.06 336.034,68.19 336.121,68.363C336.208,68.536 336.294,68.71 336.381,68.883C338.632,71.654 341.057,74.469 343.655,77.326C346.253,80.184 348.656,82.695 350.865,84.86C353.073,87.025 354.61,88.541 355.476,89.407C356.948,90.792 358.615,92.026 360.477,93.109C362.339,94.191 363.919,94.949 365.218,95.382C366.171,95.729 367.059,96.032 367.881,96.292C368.704,96.551 369.115,97.028 369.115,97.72C369.115,98.673 368.249,99.149 366.517,99.149C363.14,99.149 359.351,99.084 355.151,98.954C350.951,98.825 346.643,98.76 342.226,98.76C340.668,98.76 339.888,98.37 339.888,97.59C339.888,97.071 340.105,96.638 340.538,96.292C340.971,95.945 341.49,95.685 342.096,95.512C343.049,95.166 343.872,94.776 344.564,94.343C345.257,93.91 345.604,93.304 345.604,92.524C345.604,92.265 345.517,91.983 345.344,91.68C345.171,91.377 344.954,91.052 344.694,90.706L328.977,72.91C328.457,72.304 328.024,72 327.678,72C327.245,72 327.028,72.304 327.028,72.91C326.942,74.122 326.898,75.443 326.898,76.872L326.898,85.77C326.898,87.328 326.942,88.844 327.028,90.316C327.028,92.048 327.461,93.261 328.327,93.953C329.193,94.646 330.276,95.209 331.575,95.642C332.267,95.902 332.939,96.14 333.588,96.356C334.238,96.573 334.562,97.028 334.562,97.72C334.562,98.327 334.151,98.716 333.328,98.889C332.506,99.063 331.921,99.149 331.575,99.149C329.929,99.149 328.717,99.084 327.937,98.954C327.158,98.825 326.444,98.716 325.794,98.63C325.145,98.543 324.04,98.5 322.482,98.5C321.009,98.5 319.84,98.543 318.974,98.63C318.108,98.716 317.221,98.825 316.311,98.954C315.402,99.084 314.082,99.149 312.35,99.149Z" style="fill:rgb(240,240,240);fill-rule:nonzero;"/>
                <g transform="matrix(1,0,0,1,7.6272,0)">
                    <path d="M454.589,100.968C453.809,100.968 452.272,100.318 449.977,99.019C447.682,97.72 445.496,95.642 443.417,92.784C443.071,92.351 442.01,91.052 440.235,88.887C438.46,86.722 436.208,84.016 433.48,80.769C430.752,77.521 427.786,73.992 424.582,70.182C421.378,66.371 418.174,62.561 414.97,58.751C411.765,54.94 408.778,51.411 406.007,48.164C403.235,44.917 400.919,42.189 399.057,39.98C397.195,37.772 396.048,36.408 395.615,35.889C395.008,35.109 394.489,34.568 394.056,34.265C393.623,33.962 393.233,33.81 392.887,33.81C392.454,33.81 392.151,34.135 391.978,34.784C391.804,35.434 391.718,36.018 391.718,36.538C391.631,40.781 391.545,45.674 391.458,51.217C391.371,56.759 391.285,62.475 391.198,68.363C391.112,74.252 391.068,79.881 391.068,85.25C391.068,87.588 391.653,89.753 392.822,91.745C393.991,93.737 396.178,95.036 399.382,95.642C400.854,95.902 401.936,96.205 402.629,96.551C403.322,96.898 403.668,97.374 403.668,97.98C403.668,98.5 403.322,98.868 402.629,99.084C401.936,99.301 401.027,99.409 399.901,99.409C397.563,99.409 395.81,99.344 394.64,99.214C393.471,99.084 392.432,98.976 391.523,98.889C390.614,98.803 389.336,98.76 387.691,98.76C386.132,98.76 384.92,98.803 384.054,98.889C383.188,98.976 382.192,99.084 381.066,99.214C379.94,99.344 378.208,99.409 375.87,99.409C374.744,99.409 373.835,99.301 373.142,99.084C372.449,98.868 372.103,98.5 372.103,97.98C372.103,97.374 372.449,96.898 373.142,96.551C373.835,96.205 374.917,95.859 376.39,95.512C378.901,94.819 380.72,93.542 381.845,91.68C382.971,89.818 383.664,87.545 383.924,84.86C384.27,81.57 384.617,77.218 384.963,71.806C385.309,66.393 385.612,60.331 385.872,53.62C386.132,46.908 386.262,40.002 386.262,32.901C386.262,28.311 385.071,25.02 382.69,23.029C380.308,21.037 377.212,19.435 373.402,18.222C373.056,18.049 372.298,17.681 371.129,17.118C369.96,16.555 369.375,15.884 369.375,15.105C369.375,14.325 369.765,13.827 370.544,13.611C371.324,13.394 371.93,13.286 372.363,13.286C374.874,13.373 376.909,13.438 378.468,13.481C380.027,13.524 381.412,13.589 382.625,13.676C383.837,13.763 385.179,13.827 386.652,13.871C388.124,13.914 390.029,13.936 392.367,13.936C393.147,13.936 393.753,14.152 394.186,14.585C394.619,15.018 395.052,15.538 395.485,16.144C395.831,16.664 396.979,18.114 398.927,20.496C400.876,22.877 403.3,25.865 406.201,29.459C409.102,33.052 412.285,36.949 415.749,41.149C419.213,45.35 422.677,49.55 426.141,53.75C429.605,57.95 432.809,61.847 435.753,65.441C438.698,69.034 441.144,72 443.093,74.339C445.041,76.677 446.189,78.062 446.535,78.495C446.881,78.842 447.379,79.361 448.029,80.054C448.678,80.747 449.263,81.093 449.782,81.093C450.562,81.093 450.995,80.184 451.081,78.365C451.081,77.153 451.103,74.837 451.146,71.416C451.19,67.995 451.233,63.838 451.276,58.946C451.32,54.053 451.341,48.749 451.341,43.033L451.341,25.497C451.255,23.765 450.345,22.206 448.613,20.82C446.881,19.435 445.279,18.612 443.807,18.352C442.335,18.092 440.993,17.746 439.78,17.313C438.568,16.88 437.962,16.36 437.962,15.754C437.962,15.235 438.568,14.867 439.78,14.65C440.993,14.434 442.162,14.325 443.288,14.325L450.692,14.325C452.77,14.325 454.416,14.304 455.628,14.26C456.84,14.217 458.161,14.152 459.59,14.066C461.019,13.979 463.032,13.936 465.63,13.936C466.756,13.936 467.665,14.044 468.358,14.26C469.051,14.477 469.397,14.845 469.397,15.365C469.397,16.577 467.968,17.443 465.11,17.963C461.906,18.569 459.785,19.348 458.745,20.301C457.706,21.253 457.1,22.812 456.927,24.977C456.927,25.41 456.905,27.099 456.862,30.043C456.819,32.988 456.797,36.711 456.797,41.214C456.797,45.718 456.775,50.567 456.732,55.763C456.689,60.959 456.667,66.133 456.667,71.286L456.667,85.12C456.667,87.199 456.732,89.082 456.862,90.771C456.992,92.459 457.1,93.888 457.187,95.057C457.273,96.227 457.317,97.114 457.317,97.72C457.317,99.106 457.035,99.994 456.472,100.383C455.909,100.773 455.281,100.968 454.589,100.968Z" style="fill:rgb(240,240,240);fill-rule:nonzero;"/>
                </g>
                <path d="M501.092,100.578C496.243,100.578 491.87,99.452 487.973,97.201C484.076,94.949 480.98,91.853 478.685,87.913C476.39,83.973 475.243,79.491 475.243,74.469C475.243,70.831 475.957,67.281 477.386,63.817C478.815,60.353 480.828,57.192 483.426,54.334C486.024,51.476 489.055,49.203 492.519,47.515C495.983,45.826 499.707,44.982 503.69,44.982C508.713,44.982 513.238,46.194 517.265,48.619C521.292,51.043 524.496,54.226 526.877,58.166C529.259,62.106 530.45,66.415 530.45,71.091C530.45,76.114 529.345,80.877 527.137,85.38C524.929,89.883 521.66,93.542 517.33,96.356C513,99.171 507.587,100.578 501.092,100.578ZM503.82,96.681C506.765,96.681 509.406,96.118 511.744,94.993C514.082,93.867 515.901,92.048 517.2,89.537C518.239,87.545 518.932,85.12 519.278,82.262C519.625,79.405 519.798,76.72 519.798,74.209C519.798,70.052 519.04,66.047 517.525,62.193C516.009,58.339 513.887,55.179 511.16,52.71C508.432,50.242 505.206,49.008 501.482,49.008C499.144,49.008 497.044,49.376 495.182,50.113C493.32,50.849 491.61,52.213 490.051,54.204C488.319,56.369 487.193,59.011 486.674,62.128C486.154,65.246 485.894,68.363 485.894,71.481C485.894,75.724 486.674,79.773 488.232,83.626C489.791,87.48 491.913,90.619 494.598,93.044C497.282,95.469 500.356,96.681 503.82,96.681Z" style="fill:rgb(240,240,240);fill-rule:nonzero;"/>
                <g transform="matrix(1,0,0,1,-1.52544,0)">
                    <path d="M559.547,100.578C555.304,100.578 551.991,99.279 549.61,96.681C547.228,94.083 546.037,90.23 546.037,85.12L546.037,54.984C546.037,54.291 545.778,53.793 545.258,53.49C544.738,53.187 543.613,53.035 541.881,53.035L541.101,53.035C540.668,53.035 540.3,52.754 539.997,52.191C539.694,51.628 539.542,51.043 539.542,50.437C539.542,50.264 539.672,50.004 539.932,49.658C540.192,49.311 540.365,49.095 540.452,49.008C542.184,47.796 543.764,46.584 545.193,45.371C546.622,44.159 547.921,42.968 549.09,41.799C550.259,40.63 551.233,39.569 552.013,38.616C552.446,38.183 552.814,37.815 553.117,37.512C553.42,37.209 553.788,37.058 554.221,37.058C554.654,37.058 555.065,37.144 555.455,37.317C555.845,37.491 555.996,37.88 555.91,38.487L555.26,44.332C555.174,45.285 555.39,45.934 555.91,46.28C556.429,46.627 557.252,46.8 558.378,46.8L573.186,46.8C573.533,46.8 573.836,47.082 574.096,47.644C574.355,48.207 574.485,48.878 574.485,49.658C574.485,50.437 574.355,51.195 574.096,51.931C573.836,52.667 573.533,53.035 573.186,53.035L560.326,53.035C558.161,53.035 556.754,53.208 556.105,53.555C555.455,53.901 555.13,54.94 555.13,56.672L555.13,82.262C555.13,85.726 555.866,88.454 557.339,90.446C558.811,92.438 560.932,93.434 563.704,93.434C566.215,93.434 568.163,93.239 569.549,92.849C570.935,92.459 572.19,91.875 573.316,91.096C573.489,90.922 573.663,90.836 573.836,90.836C574.182,90.836 574.42,91.031 574.55,91.42C574.68,91.81 574.745,92.221 574.745,92.654C574.745,93.087 574.031,93.953 572.602,95.252C571.173,96.551 569.311,97.764 567.016,98.889C564.721,100.015 562.231,100.578 559.547,100.578Z" style="fill:rgb(240,240,240);fill-rule:nonzero;"/>
                </g>
                <path d="M600.335,100.578C596.092,100.578 592.779,99.279 590.398,96.681C588.016,94.083 586.826,90.23 586.826,85.12L586.826,54.984C586.826,54.291 586.566,53.793 586.046,53.49C585.527,53.187 584.401,53.035 582.669,53.035L581.889,53.035C581.456,53.035 581.088,52.754 580.785,52.191C580.482,51.628 580.331,51.043 580.331,50.437C580.331,50.264 580.461,50.004 580.72,49.658C580.98,49.311 581.153,49.095 581.24,49.008C582.972,47.796 584.552,46.584 585.981,45.371C587.41,44.159 588.709,42.968 589.878,41.799C591.047,40.63 592.022,39.569 592.801,38.616C593.234,38.183 593.602,37.815 593.905,37.512C594.208,37.209 594.576,37.058 595.009,37.058C595.442,37.058 595.854,37.144 596.243,37.317C596.633,37.491 596.785,37.88 596.698,38.487L596.048,44.332C595.962,45.285 596.178,45.934 596.698,46.28C597.218,46.627 598.04,46.8 599.166,46.8L613.974,46.8C614.321,46.8 614.624,47.082 614.884,47.644C615.144,48.207 615.273,48.878 615.273,49.658C615.273,50.437 615.144,51.195 614.884,51.931C614.624,52.667 614.321,53.035 613.974,53.035L601.114,53.035C598.949,53.035 597.542,53.208 596.893,53.555C596.243,53.901 595.919,54.94 595.919,56.672L595.919,82.262C595.919,85.726 596.655,88.454 598.127,90.446C599.599,92.438 601.721,93.434 604.492,93.434C607.003,93.434 608.952,93.239 610.337,92.849C611.723,92.459 612.979,91.875 614.104,91.096C614.278,90.922 614.451,90.836 614.624,90.836C614.97,90.836 615.208,91.031 615.338,91.42C615.468,91.81 615.533,92.221 615.533,92.654C615.533,93.087 614.819,93.953 613.39,95.252C611.961,96.551 610.099,97.764 607.804,98.889C605.509,100.015 603.02,100.578 600.335,100.578Z" style="fill:rgb(240,240,240);fill-rule:nonzero;"/>
                <g transform="matrix(1,0,0,1,3.05088,0)">
                    <path d="M635.278,100.578C632.593,100.578 630.082,100.167 627.744,99.344C625.406,98.521 623.414,97.374 621.768,95.902C621.335,94.949 621.011,93.347 620.794,91.096C620.578,88.844 620.426,86.982 620.339,85.51C620.339,84.731 620.902,84.341 622.028,84.341C622.375,84.341 622.699,84.406 623.002,84.536C623.306,84.666 623.5,84.904 623.587,85.25C624.713,89.493 626.51,92.524 628.978,94.343C631.446,96.162 633.936,97.071 636.447,97.071C638.958,97.071 641.102,96.227 642.877,94.538C644.652,92.849 645.54,90.749 645.54,88.238C645.54,85.9 644.76,83.886 643.202,82.197C641.643,80.509 638.915,78.452 635.018,76.027C632.074,74.209 629.692,72.477 627.874,70.831C626.055,69.186 624.734,67.497 623.912,65.765C623.089,64.033 622.678,62.085 622.678,59.92C622.678,57.149 623.327,54.637 624.626,52.386C625.925,50.134 627.874,48.337 630.472,46.995C633.07,45.653 636.317,44.982 640.214,44.982C642.812,44.982 644.977,45.241 646.709,45.761C648.441,46.28 649.74,46.843 650.606,47.45C651.299,48.402 651.883,49.896 652.36,51.931C652.836,53.966 653.074,55.893 653.074,57.712C653.074,58.318 652.641,58.621 651.775,58.621C651.255,58.621 650.757,58.513 650.281,58.296C649.805,58.08 649.48,57.798 649.307,57.452C648.181,54.594 646.774,52.407 645.085,50.892C643.397,49.376 641.296,48.619 638.785,48.619C636.62,48.619 634.693,49.268 633.005,50.567C631.316,51.866 630.472,53.771 630.472,56.283C630.472,58.274 631.099,60.05 632.355,61.609C633.611,63.167 635.971,64.943 639.435,66.934C644.457,69.792 648.203,72.455 650.671,74.923C653.139,77.391 654.373,80.66 654.373,84.731C654.373,89.407 652.598,93.217 649.047,96.162C645.497,99.106 640.907,100.578 635.278,100.578Z" style="fill:rgb(240,240,240);fill-rule:nonzero;"/>
                </g>
            </g>
        </g>
        <g transform="matrix(1,0,0,1,-9.35836,129.526)">
            <g transform="matrix(0.0372367,0,0,0.0372367,541.124,-43.8651)">
                <g transform="matrix(1,0,0,1,-1015.52,-1259.34)">
                    <g id="Layer-1" serif:id="Layer 1">
                        <g transform="matrix(1,0,0,1,1711.45,769.623)">
                            <path d="M0,979.427C0.58,999.573 -8.872,1013.28 -22.175,1020.64C-139.553,1116.69 -256.795,1212.75 -374.167,1308.79C-406.012,1334.84 -457.973,1320.13 -457.973,1273.98L-457.973,1211.23C-457.973,1188.97 -463.276,1156.73 -451.48,1136.59C-436.078,1110.3 -402.725,1089.11 -380.719,1069.1C-327.723,1020.93 -274.695,972.763 -221.708,924.597C-274.695,876.275 -327.629,827.951 -380.62,779.625C-402.797,759.409 -447.878,731.36 -456.459,700.188C-462.264,679.079 -457.973,652.688 -457.973,631.206L-457.973,575.315C-457.973,529.812 -405.763,513.566 -374.167,540.505C-293.583,609.208 -213.248,677.909 -132.667,746.611C-95.668,778.153 -58.67,809.699 -21.672,841.252C10.484,868.658 -1.109,941.169 0,979.427M318.629,-752.453C319.096,-769.12 301.942,-769.12 301.942,-769.12L-151.871,-769.12C-166.371,-769.12 -167.704,-752.453 -167.704,-752.453L-208.704,-276.953L-478.002,-276.771C-478.002,-276.771 -503.454,-735.787 -504.413,-752.453C-505.371,-769.12 -520.163,-769.12 -520.163,-769.12C-520.163,-769.12 -856.038,-769.037 -872.038,-769.078C-888.038,-769.12 -887.788,-752.453 -887.788,-752.453L-913.694,-276.781L-1188.05,-276.797C-1188.05,-276.797 -1223.08,-735.787 -1224.48,-752.453C-1225.87,-769.12 -1241.32,-769.12 -1241.32,-769.12L-1691.04,-769.12C-1710.95,-769.12 -1710.95,-752.453 -1710.95,-752.453C-1710.95,-752.453 -1703.78,187.706 -1703.08,210.376C-1702.37,233.047 -1681.37,232.477 -1681.37,232.477L-749.094,242.869C-749.094,242.869 -749.984,1671.99 -749.094,1710.27C-748.204,1748.55 -711.709,1748.55 -711.709,1748.55L277.942,1748.55C319.096,1748.55 319.096,1710.27 319.096,1710.27C319.096,1710.27 318.162,-735.787 318.629,-752.453" style="fill:rgb(240,240,240);fill-rule:nonzero;"/>
                        </g>
                        <g transform="matrix(1,0,0,1,720.663,1919.19)">
                            <path d="M0,-448.033C5.804,-469.141 1.514,-495.533 1.514,-517.014L1.514,-572.905C1.514,-618.408 -50.697,-634.655 -82.293,-607.716C-162.876,-539.013 -243.212,-470.311 -323.793,-401.61C-360.791,-370.068 -397.789,-338.522 -434.788,-306.969C-466.944,-279.563 -455.351,-207.052 -456.459,-168.794C-457.039,-148.648 -447.587,-134.936 -434.285,-127.581C-316.907,-31.528 -199.664,64.528 -82.293,160.566C-50.447,186.622 1.514,171.911 1.514,125.754L1.514,63.009C1.514,40.752 6.817,8.506 -4.979,-11.632C-20.382,-37.92 -53.734,-59.114 -75.741,-79.119C-128.736,-127.288 -181.765,-175.457 -234.751,-223.624C-181.765,-271.946 -128.831,-320.27 -75.839,-368.596C-53.662,-388.812 -8.581,-416.861 0,-448.033" style="fill:rgb(240,240,240);fill-rule:nonzero;"/>
                        </g>
                    </g>
                </g>
            </g>
        </g>
        <g transform="matrix(1,0,0,1,-9.35836,129.526)">
            <g transform="matrix(0.862821,0,0,0.931856,131.68,-128.835)">
                <g transform="matrix(1,0,0,1,-7.51189,0)">
                    <path d="M385.8,224.878C385.376,224.878 384.281,224.86 382.515,224.825C380.749,224.79 378.648,224.737 376.211,224.666C373.774,224.595 371.302,224.542 368.794,224.507C366.287,224.472 364.114,224.454 362.278,224.454C360.512,224.454 358.728,224.472 356.927,224.507C355.126,224.542 353.466,224.578 351.947,224.613C350.429,224.648 349.175,224.684 348.186,224.719C347.197,224.754 346.632,224.772 346.491,224.772C346.35,224.772 345.961,224.595 345.325,224.242C344.69,223.889 344.372,223.465 344.372,222.971C344.372,222.335 344.548,221.823 344.901,221.434C345.255,221.046 345.573,220.71 345.855,220.428L360.689,203.581C364.432,199.414 367.17,195.317 368.9,191.29C370.631,187.264 371.496,182.779 371.496,177.834C371.496,175.009 370.825,172.607 369.483,170.629C368.141,168.652 366.128,167.663 363.443,167.663C361.042,167.663 358.781,168.351 356.662,169.729C354.543,171.106 352.707,172.536 351.153,174.02C350.729,174.444 350.182,174.938 349.51,175.503C348.839,176.068 348.115,176.351 347.338,176.351C346.773,176.351 346.402,176.139 346.226,175.715C346.049,175.291 345.961,174.726 345.961,174.02C345.961,172.819 346.561,171.318 347.762,169.517C348.963,167.716 350.623,165.914 352.742,164.113C354.861,162.312 357.298,160.793 360.053,159.557C362.808,158.321 365.739,157.703 368.847,157.703C372.52,157.703 375.611,158.533 378.118,160.193C380.626,161.853 382.551,164.025 383.893,166.709C385.235,169.393 385.906,172.325 385.906,175.503C385.906,177.481 385.447,179.671 384.528,182.072C383.61,184.474 382.498,186.752 381.191,188.906C379.884,191.061 378.56,192.88 377.217,194.363C376.158,195.564 374.851,196.924 373.297,198.442C371.743,199.961 370.154,201.48 368.529,202.998C366.905,204.517 365.368,205.947 363.92,207.289C362.472,208.632 361.307,209.726 360.424,210.574C359.541,211.422 359.099,211.916 359.099,212.057C359.099,212.34 359.629,212.552 360.689,212.693C362.031,212.834 363.62,212.94 365.457,213.011C367.293,213.082 368.918,213.117 370.33,213.117C371.814,213.117 373.297,213.082 374.781,213.011C376.264,212.94 377.712,212.834 379.125,212.693C380.608,212.481 381.932,212.128 383.098,211.634C384.263,211.139 385.305,210.415 386.224,209.462C387.142,208.508 387.919,207.325 388.555,205.912C388.766,205.418 389.155,204.923 389.72,204.429C390.285,203.934 390.921,203.687 391.627,203.687C392.192,203.687 392.599,203.934 392.846,204.429C393.093,204.923 393.111,205.453 392.899,206.018C392.122,208.137 391.362,210.397 390.621,212.799C389.879,215.201 389.261,217.302 388.766,219.103C388.272,220.905 388.025,222.052 388.025,222.547C388.025,223.253 387.689,223.818 387.018,224.242C386.347,224.666 385.941,224.878 385.8,224.878Z" style="fill:rgb(160,174,218);fill-rule:nonzero;"/>
                </g>
                <path d="M416.209,225.937C411.829,225.937 408.032,224.948 404.819,222.971C401.605,220.993 398.938,218.362 396.819,215.077C394.7,211.793 393.128,208.172 392.104,204.217C391.08,200.261 390.568,196.341 390.568,192.456C390.568,188.43 391.08,184.368 392.104,180.271C393.128,176.174 394.718,172.413 396.872,168.987C399.026,165.561 401.817,162.806 405.242,160.723C408.668,158.639 412.747,157.597 417.48,157.597C421.86,157.597 425.656,158.586 428.87,160.564C432.084,162.541 434.733,165.173 436.817,168.457C438.9,171.742 440.472,175.344 441.532,179.265C442.591,183.185 443.121,187.052 443.121,190.867C443.121,194.893 442.609,198.954 441.585,203.051C440.56,207.148 438.971,210.927 436.817,214.388C434.662,217.85 431.89,220.64 428.499,222.759C425.109,224.878 421.012,225.937 416.209,225.937ZM417.798,220.746C419.917,220.746 421.63,219.439 422.937,216.825C424.243,214.212 425.197,210.768 425.797,206.495C426.398,202.221 426.698,197.648 426.698,192.774C426.698,189.101 426.469,185.481 426.009,181.913C425.55,178.346 424.862,175.115 423.943,172.219C423.025,169.323 421.895,167.009 420.553,165.279C419.211,163.548 417.621,162.683 415.785,162.683C413.666,162.683 411.97,164.007 410.699,166.656C409.428,169.305 408.509,172.748 407.944,176.987C407.379,181.225 407.097,185.781 407.097,190.655C407.097,194.328 407.308,197.948 407.732,201.515C408.156,205.082 408.827,208.314 409.745,211.21C410.664,214.106 411.794,216.419 413.136,218.15C414.478,219.88 416.032,220.746 417.798,220.746Z" style="fill:rgb(160,174,218);fill-rule:nonzero;"/>
                <path d="M487.516,224.878C487.092,224.878 485.997,224.86 484.231,224.825C482.465,224.79 480.364,224.737 477.927,224.666C475.49,224.595 473.018,224.542 470.51,224.507C468.003,224.472 465.831,224.454 463.994,224.454C462.228,224.454 460.444,224.472 458.643,224.507C456.842,224.542 455.182,224.578 453.663,224.613C452.145,224.648 450.891,224.684 449.902,224.719C448.913,224.754 448.348,224.772 448.207,224.772C448.066,224.772 447.677,224.595 447.041,224.242C446.406,223.889 446.088,223.465 446.088,222.971C446.088,222.335 446.264,221.823 446.617,221.434C446.971,221.046 447.289,220.71 447.571,220.428L462.405,203.581C466.148,199.414 468.886,195.317 470.616,191.29C472.347,187.264 473.212,182.779 473.212,177.834C473.212,175.009 472.541,172.607 471.199,170.629C469.857,168.652 467.844,167.663 465.159,167.663C462.758,167.663 460.497,168.351 458.378,169.729C456.259,171.106 454.423,172.536 452.869,174.02C452.445,174.444 451.898,174.938 451.226,175.503C450.555,176.068 449.831,176.351 449.054,176.351C448.489,176.351 448.118,176.139 447.942,175.715C447.765,175.291 447.677,174.726 447.677,174.02C447.677,172.819 448.277,171.318 449.478,169.517C450.679,167.716 452.339,165.914 454.458,164.113C456.577,162.312 459.014,160.793 461.769,159.557C464.524,158.321 467.455,157.703 470.563,157.703C474.236,157.703 477.327,158.533 479.834,160.193C482.342,161.853 484.267,164.025 485.609,166.709C486.951,169.393 487.622,172.325 487.622,175.503C487.622,177.481 487.163,179.671 486.244,182.072C485.326,184.474 484.214,186.752 482.907,188.906C481.6,191.061 480.276,192.88 478.934,194.363C477.874,195.564 476.567,196.924 475.013,198.442C473.459,199.961 471.87,201.48 470.245,202.998C468.621,204.517 467.084,205.947 465.636,207.289C464.188,208.632 463.023,209.726 462.14,210.574C461.257,211.422 460.815,211.916 460.815,212.057C460.815,212.34 461.345,212.552 462.405,212.693C463.747,212.834 465.336,212.94 467.173,213.011C469.009,213.082 470.634,213.117 472.046,213.117C473.53,213.117 475.013,213.082 476.497,213.011C477.98,212.94 479.428,212.834 480.841,212.693C482.324,212.481 483.648,212.128 484.814,211.634C485.979,211.139 487.021,210.415 487.94,209.462C488.858,208.508 489.635,207.325 490.271,205.912C490.483,205.418 490.871,204.923 491.436,204.429C492.001,203.934 492.637,203.687 493.343,203.687C493.908,203.687 494.315,203.934 494.562,204.429C494.809,204.923 494.827,205.453 494.615,206.018C493.838,208.137 493.078,210.397 492.337,212.799C491.595,215.201 490.977,217.302 490.483,219.103C489.988,220.905 489.741,222.052 489.741,222.547C489.741,223.253 489.405,223.818 488.734,224.242C488.063,224.666 487.657,224.878 487.516,224.878Z" style="fill:rgb(160,174,218);fill-rule:nonzero;"/>
                <path d="M502.561,224.772C502.137,224.772 501.714,224.631 501.29,224.348C500.866,224.066 500.654,223.677 500.654,223.183C500.654,221.982 501.325,221.205 502.667,220.852C504.504,220.357 506.093,219.88 507.435,219.421C508.777,218.962 509.837,218.326 510.614,217.514C511.391,216.702 511.779,215.589 511.779,214.176L511.779,176.245C511.779,174.479 511.338,173.137 510.455,172.219C509.572,171.3 508.442,170.629 507.064,170.206C505.687,169.782 504.221,169.429 502.667,169.146C502.102,169.005 501.502,168.757 500.866,168.404C500.23,168.051 499.912,167.451 499.912,166.603C499.912,165.614 500.248,164.908 500.919,164.484C501.59,164.06 502.385,163.813 503.303,163.742C507.682,163.46 511.62,162.789 515.117,161.729C518.613,160.67 522.092,159.257 525.553,157.491C525.695,157.42 525.871,157.332 526.083,157.226C526.295,157.12 526.542,157.067 526.825,157.067C527.39,157.067 527.92,157.173 528.414,157.385C528.909,157.597 529.156,157.88 529.156,158.233C529.156,159.08 529.05,160.087 528.838,161.252C528.626,162.418 528.52,163.99 528.52,165.967L528.52,214.071C528.52,215.342 528.979,216.384 529.897,217.196C530.816,218.008 532.034,218.68 533.553,219.209C535.072,219.739 536.749,220.287 538.586,220.852C539.221,221.064 539.716,221.311 540.069,221.593C540.422,221.876 540.599,222.37 540.599,223.077C540.599,224.136 540.034,224.666 538.904,224.666C537.42,224.666 535.495,224.631 533.129,224.56C530.763,224.489 528.432,224.419 526.136,224.348C523.84,224.277 521.986,224.242 520.573,224.242C519.161,224.242 517.342,224.277 515.117,224.348C512.892,224.419 510.631,224.507 508.336,224.613C506.04,224.719 504.115,224.772 502.561,224.772Z" style="fill:rgb(160,174,218);fill-rule:nonzero;"/>
            </g>
        </g>
    </g>
</svg>
