<?xml version="1.0" encoding="utf-8"?>
<!-- Generator: Adobe Illustrator 24.0.1, SVG Export Plug-In . SVG Version: 6.00 Build 0)  -->
<svg version="1.1" id="Layer_1" xmlns="http://www.w3.org/2000/svg" xmlns:xlink="http://www.w3.org/1999/xlink" x="0px" y="0px"
	 viewBox="0 0 283.5 283.5" style="enable-background:new 0 0 283.5 283.5;" xml:space="preserve">
<style type="text/css">
	.st0{fill:none;stroke:#0b101f;stroke-miterlimit:10;}
</style>
<g>
	<path class="st0" d="M-453.1,316.7c0-45.1,13-81.7,29-81.7s29,36.6,29,81.7s8,108.1-29,59.6C-436,360.7-453.1,361.8-453.1,316.7z"
		/>
	<path class="st0" d="M-437.6,301.1c0-45.2,13-82.4,29.2-82.4c16.2,0,29.8,37,29.8,82.2s6.6,106.3-29.7,59.6
		C-420.1,345.4-437.6,346.3-437.6,301.1z"/>
	<path class="st0" d="M-423.2,287.7c0-45.3,13.1-83.2,29.4-83.2s30.5,37.5,30.5,82.8s5.2,104.7-30.4,59.6
		C-405.2,332.3-423.2,333.1-423.2,287.7z"/>
	<path class="st0" d="M-409.7,276.5c0-45.4,13.1-84,29.6-84c16.5,0,31.3,37.9,31.3,83.4s3.8,102.9-31.1,59.6
		C-391.3,321.4-409.7,322-409.7,276.5z"/>
	<path class="st0" d="M-397,267.3c0-45.5,13.2-84.8,29.8-84.8c16.7,0,32,38.4,32,83.9s2.4,101.2-31.9,59.6
		C-378.2,312.4-397,312.8-397,267.3z"/>
	<path class="st0" d="M-385.2,259.9c0-45.7,13.2-85.5,30-85.5c16.9,0,32.8,38.8,32.8,84.5s1,99.5-32.6,59.6
		C-366,305.2-385.2,305.5-385.2,259.9z"/>
	<path class="st0" d="M-374.1,254.1c0-45.8,13.2-86.3,30.3-86.3s33.6,39.3,33.6,85.1s-0.4,97.8-33.3,59.5
		C-354.5,299.8-374.1,299.9-374.1,254.1z"/>
	<path class="st0" d="M-363.7,249.9c0-45.9,13.3-87.1,30.5-87.1s34.3,39.7,34.3,85.6s-1.8,96.1-34,59.5
		C-343.6,295.9-363.7,295.8-363.7,249.9z"/>
	<path class="st0" d="M-353.8,247.1c0-46,13.3-87.8,30.7-87.8c17.4,0,35.1,40.2,35.1,86.2s-3.2,94.4-34.7,59.5
		C-333.3,293.4-353.8,293.1-353.8,247.1z"/>
	<path class="st0" d="M-344.4,245.6c0-46.1,13.4-88.6,30.9-88.6c17.5,0,35.8,40.7,35.8,86.8s-4.6,92.7-35.4,59.5
		C-323.4,292.1-344.4,291.7-344.4,245.6z"/>
	<path class="st0" d="M-335.4,245.1c0-46.2,13.4-89.4,31.1-89.4s36.6,41.1,36.6,87.3s-6,91-36.1,59.5
		C-314,291.9-335.4,291.4-335.4,245.1z"/>
	<path class="st0" d="M-326.7,245.6c0-46.3,13.4-90.1,31.3-90.1c17.9,0,37.4,41.6,37.4,87.9s-7.4,89.3-36.9,59.5
		C-305,292.7-326.7,292-326.7,245.6z"/>
	<path class="st0" d="M-318.3,246.9c0-46.4,13.5-90.9,31.5-90.9s38.1,42,38.1,88.4s-8.8,87.6-37.6,59.5
		C-296.1,294.3-318.3,293.4-318.3,246.9z"/>
	<path class="st0" d="M-310.1,248.9c0-46.5,13.5-91.7,31.7-91.7c18.2,0,38.9,42.5,38.9,89s-10.2,86-38.3,59.5
		C-287.5,296.6-310.1,295.4-310.1,248.9z"/>
	<path class="st0" d="M-302.1,251.4c0-46.6,13.6-92.4,31.9-92.4c18.4,0,39.6,42.9,39.6,89.6s-11.6,84.3-39,59.5
		C-279,299.3-302.1,298-302.1,251.4z"/>
	<path class="st0" d="M-294,254.2c0-46.8,13.6-93.2,32.1-93.2s40.4,43.4,40.4,90.1s-13,82.6-39.7,59.5
		C-270.6,302.5-294,301-294,254.2z"/>
	<path class="st0" d="M-286,257.3c0-46.9,13.6-94,32.3-94s41.2,43.8,41.2,90.7s-14.4,81-40.4,59.5C-262.1,305.8-286,304.1-286,257.3
		z"/>
	<path class="st0" d="M-277.8,260.4c0-47,13.7-94.7,32.6-94.7s41.9,44.3,41.9,91.3s-15.8,79.4-41.1,59.5
		C-253.6,309.2-277.8,307.3-277.8,260.4z"/>
	<path class="st0" d="M-269.5,263.4c0-47.1,13.7-95.5,32.8-95.5s42.7,44.8,42.7,91.8s-17.2,77.7-41.8,59.5
		C-244.8,312.6-269.5,310.5-269.5,263.4z"/>
	<path class="st0" d="M-261,266.2c0-47.2,13.8-96.3,33-96.3s43.4,45.2,43.4,92.4s-18.6,76.1-42.6,59.4
		C-235.8,315.7-261,313.4-261,266.2z"/>
	<path class="st0" d="M-252.1,268.6c0-47.3,13.8-97.1,33.2-97.1s44.2,45.7,44.2,93s-19.9,74.5-43.3,59.4
		C-226.5,318.5-252.1,315.9-252.1,268.6z"/>
	<path class="st0" d="M-242.8,270.6c0-47.4,13.8-97.8,33.4-97.8s45,46.1,45,93.5s-21.3,72.9-44,59.4
		C-216.8,320.7-242.8,318-242.8,270.6z"/>
	<path class="st0" d="M-233.1,271.8c0-47.5,13.9-98.6,33.6-98.6s45.7,46.6,45.7,94.1s-22.6,71.4-44.7,59.4
		C-206.7,322.3-233.1,319.3-233.1,271.8z"/>
	<path class="st0" d="M-222.8,272.2c0-47.6,13.9-99.4,33.8-99.4s46.5,47,46.5,94.7s-23.9,69.8-45.4,59.4
		C-196,323-222.8,319.8-222.8,272.2z"/>
	<path class="st0" d="M-211.9,271.7c0-47.7,14-100.1,34-100.1s47.2,47.5,47.2,95.2s-25.2,68.3-46.1,59.4
		C-184.6,322.8-211.9,319.4-211.9,271.7z"/>
	<path class="st0" d="M-200.3,270c0-47.9,14-100.9,34.2-100.9s48,47.9,48,95.8s-26.5,66.8-46.8,59.4
		C-172.6,321.5-200.3,317.8-200.3,270z"/>
	<path class="st0" d="M-188.2,266.3c0-48,14.1-101.7,34.4-101.7S-105,213-105,261s-27.7,65.3-47.6,59.4
		C-160.1,318.1-188.2,314.2-188.2,266.3z"/>
	<path class="st0" d="M-184,260.2c0-48.1,14.1-102.4,34.6-102.4s49.5,48.8,49.5,96.9s-28.8,63.8-48.3,59.4
		C-155.4,312.4-184,308.3-184,260.2z"/>
	<path class="st0" d="M-182.3,250.4c0-48.2,14.1-103.2,34.9-103.2s50.3,49.3,50.3,97.5s-29.7,58.8-49,59.4
		C-152.8,301.7-182.3,298.5-182.3,250.4z"/>
	<path class="st0" d="M-177.2,236.6c0-48.3,14.2-104,35.1-104s51,49.8,51,98s-31.1,57.1-49.7,59.4
		C-147.3,288.2-177.2,284.9-177.2,236.6z"/>
	<path class="st0" d="M-172,224c0-48.4,14.2-104.7,35.3-104.7s51.8,50.2,51.8,98.6s-32.4,55.3-50.4,59.4
		C-141.7,275.9-172,272.4-172,224z"/>
	<path class="st0" d="M-166.7,210.6c0-48.5,14.3-105.5,35.5-105.5s52.6,50.7,52.6,99.2s-33.8,53.5-51.1,59.4
		C-136,262.8-166.7,259.1-166.7,210.6z"/>
	<path class="st0" d="M-161.4,197c0-48.6,14.3-106.3,35.7-106.3s53.3,51.1,53.3,99.7s-35.1,51.8-51.8,59.3
		C-130.2,249.4-161.4,245.6-161.4,197z"/>
	<path class="st0" d="M-156.2,183.6c0-48.7,14.3-107,35.9-107s54.1,51.6,54.1,100.3s-36.5,50-52.5,59.3
		C-124.6,236.3-156.2,232.4-156.2,183.6z"/>
	<path class="st0" d="M-151.2,170.9c0-48.8,14.4-107.8,36.1-107.8s54.8,52,54.8,100.9s-37.8,48.3-53.3,59.3
		C-119.1,223.8-151.2,219.8-151.2,170.9z"/>
	<path class="st0" d="M-146.4,159.5c0-49,14.4-108.6,36.3-108.6s55.6,52.5,55.6,101.4s-39.2,46.5-54,59.3
		C-113.9,212.6-146.4,208.4-146.4,159.5z"/>
	<path class="st0" d="M-141.9,149.7c0-49.1,14.5-109.4,36.5-109.4S-49,93.3-49,142.3s-40.5,44.7-54.7,59.3
		C-109,203.1-141.9,198.7-141.9,149.7z"/>
	<path class="st0" d="M-137.9,142.1c0-49.2,14.5-110.1,36.7-110.1S-44,85.4-44,134.5s-41.8,43-55.4,59.3
		C-104.5,195.8-137.9,191.3-137.9,142.1z"/>
	<path class="st0" d="M-134.3,137.2c0-49.3,14.5-110.9,36.9-110.9s57.9,53.8,57.9,103.1s-43.2,41.2-56.1,59.3
		C-100.5,191.2-134.3,186.5-134.3,137.2z"/>
	<path class="st0" d="M-131.4,135.5c0-49.4,14.6-111.7,37.1-111.7s58.6,54.3,58.6,103.7s-44.5,39.5-56.8,59.3
		C-97.1,189.7-131.4,184.9-131.4,135.5z"/>
	<path class="st0" d="M-110.8,137.3c0-49.5,14.6-112.4,37.4-112.4S-14,79.7-14,129.2s-45.9,37.7-57.5,59.3
		C-76,191.8-110.8,186.8-110.8,137.3z"/>
	<path class="st0" d="M-88.1,139.5c0-49.6,14.7-113.2,37.6-113.2S9.6,81.5,9.6,131.2s-47.2,35.9-58.3,59.3
		C-52.9,194.3-88.1,189.2-88.1,139.5z"/>
	<path class="st0" d="M-66.6,141.9c0-49.7,14.7-114,37.8-114s60.9,55.7,60.9,105.4s-48.6,34.2-59,59.3
		C-31,196.9-66.6,191.6-66.6,141.9z"/>
	<path class="st0" d="M-46.2,144.2c0-49.8,14.8-114.7,38-114.7s61.7,56.1,61.7,105.9S7.9,169.9-6.2,194.7
		C-9.3,200.1-46.2,194-46.2,144.2z"/>
	<path class="st0" d="M-26.9,146.8c0-49.9,14.8-115.5,38.2-115.5s62.4,56.6,62.4,106.5s-47,32.4-60.4,59.3
		C10.4,202.8-26.9,196.8-26.9,146.8z"/>
	<path class="st0" d="M-8.7,149.5c0-50,14.8-116.3,38.4-116.3s63.2,57,63.2,107.1s-48.4,30.4-61.1,59.2
		C29.1,205.8-8.7,199.6-8.7,149.5z"/>
	<path class="st0" d="M8.4,152.4c0-50.2,14.9-117,38.6-117s64,57.5,64,107.6s-49.9,28.4-61.8,59.2C46.6,208.8,8.4,202.5,8.4,152.4z"
		/>
	<path class="st0" d="M24.4,155.4c0-50.3,14.9-117.8,38.8-117.8S128,95.5,128,145.7S76.6,172.2,65.4,205
		C63,212,24.4,205.6,24.4,155.4z"/>
	<path class="st0" d="M39.4,158.5c0-50.4,15-118.6,39-118.6s65.5,58.4,65.5,108.8S91,173.2,80.6,207.9
		C78.4,215.3,39.4,208.8,39.4,158.5z"/>
	<path class="st0" d="M53.2,161.7c0-50.5,15-119.4,39.2-119.4s66.2,58.8,66.2,109.3s-54.4,22.6-64,59.2
		C92.7,218.7,53.2,212.2,53.2,161.7z"/>
	<path class="st0" d="M66,165c0-50.6,15-120.1,39.4-120.1s67,59.3,67,109.9s-55.9,20.7-64.7,59.2C105.9,222.3,66,215.6,66,165z"/>
	<path class="st0" d="M77.8,168.5c0-50.7,15.1-120.9,39.7-120.9s67.8,59.8,67.8,110.5s-57.3,18.9-65.4,59.2
		C118.1,226,77.8,219.2,77.8,168.5z"/>
	<path class="st0" d="M88.4,172c0-50.8,15.1-121.7,39.9-121.7s68.5,60.2,68.5,111s-58.8,17-66.1,59.2
		C129.2,229.8,88.4,222.8,88.4,172z"/>
	<path class="st0" d="M98.1,175.7c0-50.9,15.2-122.4,40.1-122.4s69.3,60.7,69.3,111.6S147.1,180,140.6,224
		C139.2,233.7,98.1,226.6,98.1,175.7z"/>
	<path class="st0" d="M106.7,179.5c0-51,15.2-123.2,40.3-123.2s70,61.1,70,112.2s-61.8,13.3-67.5,59.2
		C148.2,237.7,106.7,230.5,106.7,179.5z"/>
	<path class="st0" d="M114.2,183.4c0-51.1,15.2-124,40.5-124s70.8,61.6,70.8,112.7s-63.3,11.5-68.2,59.2
		C156.2,241.9,114.2,234.5,114.2,183.4z"/>
	<path class="st0" d="M120.7,187.4c0-51.3,15.3-124.7,40.7-124.7s71.6,62,71.6,113.3s-64.7,9.7-69,59.2
		C163.1,246.1,120.7,238.7,120.7,187.4z"/>
	<path class="st0" d="M126.2,191.5c0-51.4,15.3-125.5,40.9-125.5s72.3,62.5,72.3,113.8s-66.2,7.9-69.7,59.2
		C169,250.5,126.2,242.9,126.2,191.5z"/>
	<path class="st0" d="M130.7,195.7c0-51.5,15.4-126.3,41.1-126.3s73.1,62.9,73.1,114.4s-67.7,6.1-70.4,59.1
		C173.9,255,130.7,247.2,130.7,195.7z"/>
	<path class="st0" d="M134.1,200.1c0-51.6,15.4-127,41.3-127s73.8,63.4,73.8,115s-69.1,4.3-71.1,59.1
		C177.8,259.5,134.1,251.6,134.1,200.1z"/>
	<path class="st0" d="M136.6,204.5c0-51.7,15.5-127.8,41.5-127.8s74.6,63.8,74.6,115.5s-70.6,2.5-71.8,59.1
		C180.6,264.2,136.6,256.2,136.6,204.5z"/>
	<path class="st0" d="M138,209c0-51.8,15.5-128.6,41.7-128.6s75.4,64.3,75.4,116.1s-72,0.7-72.5,59.1C182.5,269,138,260.8,138,209z"
		/>
	<path class="st0" d="M138.5,213.6c0-51.9,15.5-129.3,42-129.3S256.5,149,256.5,201s-73.4-1.1-73.2,59.1
		C183.4,273.9,138.5,265.6,138.5,213.6z"/>
	<path class="st0" d="M137.9,218.4c0-52,15.6-130.1,42.2-130.1S257,153.5,257,205.5s-74.9-2.9-73.9,59.1
		C183.2,278.8,137.9,270.4,137.9,218.4z"/>
	<path class="st0" d="M136.4,223.2c0-52.1,15.6-130.9,42.4-130.9s77.6,65.7,77.6,117.8s-76.3-4.6-74.7,59.1
		C182.1,283.9,136.4,275.3,136.4,223.2z"/>
	<path class="st0" d="M133.9,228.1c0-52.2,15.7-131.7,42.6-131.7s78.4,66.1,78.4,118.4s-77.7-6.4-75.4,59.1
		C180,289.1,133.9,280.3,133.9,228.1z"/>
	<path class="st0" d="M130.4,233.1c0-52.4,15.7-132.4,42.8-132.4s79.2,66.6,79.2,118.9s-79.2-8.2-76.1,59.1
		C177,294.3,130.4,285.4,130.4,233.1z"/>
	<path class="st0" d="M126,238.2c0-52.5,15.7-133.2,43-133.2s79.9,67,79.9,119.5s-80.6-9.9-76.8,59.1C173,299.7,126,290.6,126,238.2
		z"/>
	<path class="st0" d="M120.5,243.3c0-52.6,15.8-134,43.2-134s80.7,67.5,80.7,120.1s-82-11.7-77.5,59.1
		C168,305.1,120.5,295.9,120.5,243.3z"/>
	<path class="st0" d="M114.2,248.6c0-52.7,15.8-134.7,43.4-134.7S239,181.8,239,234.5s-83.4-13.5-78.2,59.1
		C162,310.6,114.2,301.3,114.2,248.6z"/>
	<path class="st0" d="M106.9,254c0-52.8,15.9-135.5,43.6-135.5s82.2,68.4,82.2,121.2s-84.8-15.2-78.9,59.1
		C155.2,316.2,106.9,306.7,106.9,254z"/>
	<path class="st0" d="M98.6,259.4c0-52.9,15.9-136.3,43.8-136.3s83,68.8,83,121.7s-86.2-17-79.7,59
		C147.3,321.9,98.6,312.3,98.6,259.4z"/>
	<path class="st0" d="M89.4,264.9c0-53,15.9-137,44-137s83.7,69.3,83.7,122.3s-87.7-18.8-80.4,59C138.6,327.7,89.4,317.9,89.4,264.9
		z"/>
	<path class="st0" d="M79.3,270.5c0-53.1,16-137.8,44.2-137.8S208,202.4,208,255.5S119,235,127,314.6
		C128.9,333.5,79.3,323.6,79.3,270.5z"/>
	<path class="st0" d="M68.3,276.1c0-53.2,16-138.6,44.5-138.6S198,207.8,198,261s-90.5-22.3-81.8,59
		C118.2,339.5,68.3,329.4,68.3,276.1z"/>
	<path class="st0" d="M56.3,281.9c0-53.3,16.1-139.3,44.7-139.3s86,70.7,86,124s-91.9-24.1-82.5,59
		C106.7,345.5,56.3,335.2,56.3,281.9z"/>
	<path class="st0" d="M43.4,287.7c0-53.5,16.1-140.1,44.9-140.1s86.8,71.1,86.8,124.6s-93.3-25.8-83.2,59
		C94.3,351.5,43.4,341.1,43.4,287.7z"/>
	<path class="st0" d="M29.6,293.6c0-53.6,16.2-140.9,45.1-140.9s87.5,71.6,87.5,125.1s-94.7-27.6-83.9,59
		C80.9,357.7,29.6,347.1,29.6,293.6z"/>
	<path class="st0" d="M14.9,299.5c0-53.7,16.2-141.6,45.3-141.6s88.3,72,88.3,125.7s-96.1-29.3-84.6,59
		C66.6,363.9,14.9,353.2,14.9,299.5z"/>
	<path class="st0" d="M-0.6,305.5c0-53.8,16.2-142.4,45.5-142.4s89.1,72.5,89.1,126.3s-97.5-31.1-85.4,59
		C51.5,370.2-0.6,359.3-0.6,305.5z"/>
	<path class="st0" d="M-17.1,311.6c0-53.9,16.3-143.2,45.7-143.2s89.8,72.9,89.8,126.8s-98.9-32.8-86.1,59
		C35.4,376.5-17.1,365.5-17.1,311.6z"/>
	<path class="st0" d="M-26.9,315.4c0-54,16.3-144,45.9-144s90.6,73.4,90.6,127.4s-100.3-34.6-86.8,59
		C26.1,380.5-26.9,369.4-26.9,315.4z"/>
	<path class="st0" d="M-32.6,318.6c0-54.1,16.4-144.7,46.1-144.7s91.3,73.8,91.3,128s-101.7-36.4-87.5,59
		C20.8,384.1-32.6,372.7-32.6,318.6z"/>
	<path class="st0" d="M-40,323.5C-40,269.2-23.7,178,6.3,178s92.1,74.3,92.1,128.5s-103.1-38.1-88.2,59
		C13.8,389.2-40,377.7-40,323.5z"/>
	<path class="st0" d="M-49.1,329.7c0-54.3,16.4-146.3,46.5-146.3s92.9,74.8,92.9,129.1s-104.5-39.9-88.9,58.9
		C5.2,395.6-49.1,384-49.1,329.7z"/>
	<path class="st0" d="M-59.5,337.1c0-54.4,16.5-147,46.8-147s93.6,75.2,93.6,129.6S-25,278.1-8.8,378.6
		C-4.8,403.3-59.5,391.5-59.5,337.1z"/>
	<path class="st0" d="M-71.1,345.5c0-54.5,16.5-147.8,47-147.8s94.4,75.7,94.4,130.2S-37,284.5-20.1,386.8
		C-15.9,412-71.1,400-71.1,345.5z"/>
	<path class="st0" d="M-83.5,354.7c0-54.7,16.6-148.6,47.2-148.6s95.1,76.1,95.1,130.8s-108.6-45.1-91.1,58.9
		C-27.9,421.5-83.5,409.4-83.5,354.7z"/>
	<path class="st0" d="M-96.6,364.6c0-54.8,16.6-149.3,47.4-149.3s95.9,76.6,95.9,131.3s-110-46.9-91.8,58.9
		C-40.6,431.6-96.6,419.4-96.6,364.6z"/>
	<path class="st0" d="M-110.2,374.9c0-54.9,16.6-150.1,47.6-150.1S34,301.8,34,356.7s-111.4-48.6-92.5,58.9
		C-53.8,442.2-110.2,429.8-110.2,374.9z"/>
	<path class="st0" d="M-124,385.5c0-55,16.7-150.9,47.8-150.9s97.4,77.5,97.4,132.5S-91.6,316.7-72,426
		C-67.2,453-124,440.5-124,385.5z"/>
	<path class="st0" d="M-137.9,396.2c0-55.1,16.7-151.6,48-151.6s98.2,77.9,98.2,133s-114.2-52.2-93.9,58.9
		C-80.6,464-137.9,451.3-137.9,396.2z"/>
	<path class="st0" d="M-151.5,406.8c0-55.2,16.8-152.4,48.2-152.4S-4.3,332.7-4.3,388S-119.9,334-99,446.8
		C-93.8,474.8-151.5,462-151.5,406.8z"/>
	<path class="st0" d="M-164.7,417c0-55.3,16.8-153.2,48.4-153.2s99.7,78.8,99.7,134.2s-117-55.7-95.3,58.9
		C-106.5,485.4-164.7,472.4-164.7,417z"/>
	<path class="st0" d="M-177.2,426.9c0-55.4,16.8-154,48.6-154s100.5,79.3,100.5,134.7s-118.4-57.4-96.1,58.9
		C-118.6,495.4-177.2,482.3-177.2,426.9z"/>
	<path class="st0" d="M-188.8,436c0-55.5,16.9-154.7,48.8-154.7S-38.8,361-38.8,416.6s-120-59.1-96.8,58.9
		C-129.9,504.8-188.8,491.5-188.8,436z"/>
	<path class="st0" d="M-199.4,444.3c0-55.6,16.9-155.5,49.1-155.5s102,80.2,102,135.9s-121.3-60.9-97.5,58.9
		C-140,513.4-199.4,499.9-199.4,444.3z"/>
	<path class="st0" d="M-208.6,451.6c0-55.8,17-156.3,49.3-156.3S-56.6,376-56.6,431.7s-122.7-62.6-98.2,58.8
		C-148.8,520.9-208.6,507.3-208.6,451.6z"/>
	<path class="st0" d="M-216.3,457.6c0-55.9,17-157,49.5-157s103.5,81.1,103.5,137s-124-64.4-98.9,58.8
		C-156,527.3-216.3,513.5-216.3,457.6z"/>
	<path class="st0" d="M-222.1,462.3c0-56,17.1-157.8,49.7-157.8S-68.2,386.1-68.2,442s-125.3-66.2-99.6,58.8
		C-161.4,532.2-222.1,518.2-222.1,462.3z"/>
	<path class="st0" d="M-226,465.3c0-56.1,17.1-158.6,49.9-158.6s105,82,105,138.1s-126.7-67.9-100.3,58.8
		C-164.9,535.5-226,521.4-226,465.3z"/>
	<path class="st0" d="M-227.7,466.6c0-56.2,17.1-159.3,50.1-159.3S-71.8,389.8-71.8,446s-128-69.7-101.1,58.8
		C-166.1,537-227.7,522.8-227.7,466.6z"/>
</g>
</svg>
